<?xml version="1.0" encoding="UTF-8"?>
<svg id="_レイヤー_1" data-name="レイヤー 1" xmlns="http://www.w3.org/2000/svg" viewBox="0 0 100 100">
  <defs>
    <style>
      .cls-1 {
        fill: #fff;
      }

      .cls-2 {
        fill: #3e3a39;
      }

      .cls-3 {
        fill: #1a1a1a;
      }
    </style>
  </defs>
  <g>
    <path class="cls-1" d="M17.11,2.5H82.89c1.68,0,3.05,1.36,3.05,3.05V71.33c0,1.68-1.36,3.05-3.05,3.05H17.11c-1.68,0-3.04-1.36-3.04-3.04V5.54c0-1.68,1.36-3.04,3.04-3.04Z"/>
    <path class="cls-2" d="M82.89,5c.3,0,.55,.24,.55,.55V71.33c0,.3-.24,.55-.55,.55H17.11c-.3,0-.55-.24-.55-.55V5.55c0-.3,.24-.55,.55-.55H82.89M82.89,0H17.11C14.05,0,11.56,2.48,11.56,5.55V71.33c0,3.06,2.48,5.55,5.55,5.55H82.89c3.06,0,5.55-2.48,5.55-5.55V5.55C88.44,2.48,85.95,0,82.89,0h0Z"/>
  </g>
  <g>
    <path class="cls-3" d="M28.42,48.88v18.24c-2.93,0-5.83,0-8.74,0-.05-.16-.06-43.25,0-43.51,.1,0,.2,0,.31,0,6.11,0,12.21,0,18.32,0,3.9,0,7.51,2.07,9.5,5.37,.83,1.38,1.35,2.87,1.51,4.48,.04,.4,.07,.8,.07,1.19,0,1.13,.02,2.26,0,3.39-.09,5.11-3.77,9.54-8.78,10.6-.81,.17-1.62,.24-2.45,.24-3.18,0-6.36,0-9.54,0-.05,0-.1,0-.19,0Zm.02-7.57c.1,0,.19,0,.28,0,3.2,0,6.41,0,9.61,0,1.88,0,3.51-1.62,3.49-3.48,0-1.06-.01-2.11,0-3.17,.02-1.84-1.56-3.5-3.48-3.49-.47,0-.95,0-1.42,0-2.74,0-5.47,0-8.21,0-.09,0-.17,0-.26,.01v10.13Z"/>
    <path class="cls-3" d="M58.19,64.3c0,.61,0,1.2,0,1.78,0,.1,0,.2-.02,.3-.09,.4-.44,.71-.85,.72-.73,.01-1.47,.02-2.2,0-.5-.01-.87-.42-.88-.94,0-.52,0-1.03,0-1.55,0-.09,0-.18,0-.3-.1,0-.19-.01-.27-.01-.29,0-.59,.01-.87-.02-1.18-.13-2-1.14-1.98-2.26,.01-1.12,0-2.24,0-3.35,0-1.04,0-2.09,0-3.13,0-.81,.33-1.45,.98-1.92,.49-.36,.98-.72,1.48-1.08,.17-.12,.27-.25,.33-.45,.66-2.13,1.34-4.26,2.01-6.39,.25-.81,.77-1.35,1.59-1.58,.18-.05,.38-.08,.57-.08,5.12,0,10.24,0,15.37,0,1.01,0,1.83,.62,2.14,1.61,.51,1.6,1.01,3.2,1.51,4.79,.18,.57,.37,1.14,.54,1.72,.04,.14,.11,.25,.24,.34,.51,.36,1.01,.74,1.52,1.11,.68,.49,1.01,1.14,1.01,1.99,0,2.16,0,4.32,0,6.48,0,.97-.6,1.82-1.51,2.11-.24,.08-.5,.1-.76,.12-.27,.02-.55,0-.85,0,0,.1-.01,.18-.01,.26,0,.49,0,.98,0,1.48,0,.13,0,.27-.03,.4-.1,.39-.44,.68-.86,.69-.73,.01-1.45,.02-2.18,0-.51-.01-.88-.42-.89-.93,0-.53,0-1.05,0-1.58,0-.09,0-.18,0-.29h-15.07Zm7.53-12.03c2.62,0,5.24,0,7.86,0,.09,0,.18,0,.28,0,.58-.05,.93-.52,.82-1.09-.01-.06-.02-.11-.03-.17-.31-1.33-.63-2.66-.94-3.99-.18-.76-.79-1.24-1.57-1.24-4.27,0-8.54,0-12.81,0-.09,0-.18,0-.27,.02-.71,.15-1.14,.58-1.3,1.28-.29,1.27-.6,2.53-.89,3.79-.04,.17-.08,.34-.08,.52,0,.42,.24,.74,.65,.84,.14,.03,.28,.04,.42,.04,2.63,0,5.25,0,7.88,0Zm9.63,8.32c1.23,0,2.2-.99,2.2-2.22,0-1.21-1-2.19-2.21-2.19-1.22,0-2.2,1-2.2,2.22,0,1.21,.99,2.18,2.21,2.18Zm-17.05-2.17c.02-1.21-.95-2.21-2.16-2.23-1.21-.02-2.21,.94-2.24,2.15-.03,1.23,.93,2.24,2.16,2.25,1.23,.02,2.22-.94,2.24-2.17Zm4.59,4.82c.4,.05,5.49,.03,5.66-.02v-2.11c-.44-.05-5.48-.03-5.66,.02v2.11Z"/>
  </g>
  <g>
    <path class="cls-2" d="M26.99,86.47c-.19,.17-.31,.26-.64,.51-.29-.42-.5-.67-.86-.96,.76-.51,1.23-.95,1.58-1.49,.09-.14,.15-.26,.21-.4l1.44,.23q-.07,.09-.16,.24c-.05,.1-.13,.22-.22,.33h4.18c.54,0,.85-.02,1.15-.05v1.35c-.28-.04-.47-.04-.8-.05v.83h.24c.46,0,.61,0,.89-.04v1.35c-.27-.04-.45-.04-.89-.04h-.24v.86h.07c.46,0,.66,0,.86-.04v1.32c-.23-.04-.41-.04-.85-.04,.4,.48,.5,.62,1.07,1.62l-1.22,.76c-.33-.79-.58-1.26-1.07-1.98l.83-.4h-5.66l.95,.47c-.37,.91-.61,1.33-1.15,1.96l-1.11-.85c.5-.5,.76-.88,1.06-1.58h-.07c-.35,0-.53,0-.76,.04v-1.33c.24,.04,.45,.05,.89,.05h.18v-.86h-.32c-.43,0-.61,0-.89,.04v-1.35c.28,.04,.43,.04,.89,.04h.41v-.55Zm1.14,6.3c.02-.24,.02-.32,.02-.49,0-.59-.03-1.04-.08-1.58l1.25-.12c.14,.93,.19,1.38,.21,2.09l-1.4,.1Zm-.02-5.75h.41v-.83h-.41v.83Zm0,2.12h.41v-.86h-.41v.86Zm1.56-2.12h.42v-.83h-.42v.83Zm0,2.12h.42v-.86h-.42v.86Zm.59,3.61c-.13-.88-.21-1.34-.39-1.98l1.25-.26c.26,.78,.39,1.24,.52,1.96l-1.39,.28Zm1.4-5.73v-.83h-.43v.83h.43Zm0,2.12v-.86h-.43v.86h.43Z"/>
    <path class="cls-2" d="M39.4,90.05c-.1,.27-.14,.41-.24,.75-.28-.28-.45-.5-.68-.88,.03,.39,.03,.41,.03,.7v1.3c0,.42,0,.63,.04,.87h-1.41c.04-.27,.05-.52,.05-.91v-.81c0-.32,0-.52,.02-.74-.37,.76-.56,1.06-.94,1.48-.16-.53-.32-.91-.58-1.36,.56-.51,1.03-1.19,1.34-1.97h-.34c-.42,0-.6,0-.85,.04v-1.32c.21,.04,.4,.05,.84,.05h.5v-2.13c0-.38,0-.58-.04-.8h1.4c-.03,.21-.04,.41-.04,.79v1.3c.17-.43,.32-1,.46-1.67l.94,.45c-.23,.85-.42,1.39-.7,1.95l-.69-.41v.52h.42c.38,0,.51,0,.7-.05v.67l.72-.79c.67,.48,1.04,.78,1.53,1.28l-.83,1.02c-.57-.59-.91-.9-1.42-1.28v.43c-.22-.04-.39-.04-.74-.04h-.3c.27,.38,.59,.69,1.05,1.04-.09,.2-.12,.26-.18,.41,.2,0,.53-.05,.82-.11l1.74-.36v-3.21l-.7,.86c-.58-.59-.78-.77-1.54-1.33l.86-.95c.69,.48,1,.72,1.39,1.1v-.48c0-.58,0-.82-.05-1.13h1.49c-.04,.32-.05,.56-.05,1.13v3.72c.29-.06,.46-.11,.73-.2l.09,1.4c-.21,.03-.44,.06-.82,.14v1.13c0,.58,0,.81,.05,1.14h-1.49c.04-.34,.05-.56,.05-1.15v-.84l-1.61,.33c-.51,.11-.68,.14-.87,.21l-.13-1.29Zm-2.74-5.33c.26,.8,.38,1.22,.5,1.93l-.93,.47c-.13-.82-.25-1.29-.49-1.92l.91-.48Z"/>
    <path class="cls-2" d="M46.84,89.85c-.05,1.14-.16,1.99-.37,2.62l-.77-.41c.26-.66,.37-1.31,.4-2.38l.74,.17Zm2.15-1.32h.32c.32,0,.46,0,.65-.04-.02,.13-.02,.21-.03,.62-.03,1.31-.1,2.13-.25,2.71-.13,.49-.25,.67-.56,.82-.18,.08-.53,.13-.92,.13h-.14c-.04-.51-.09-.79-.24-1.28,.25,.04,.37,.05,.5,.05,.32,0,.41-.12,.48-.68l-.41,.18c-.05-.62-.08-.74-.22-1.28l.35-.12c.15,.43,.21,.69,.27,1.2,.03-.32,.04-.61,.04-1.33h-2.16c-.23,0-.34,0-.61,.04,.03-.32,.04-.68,.04-.98v-3.09c0-.39,0-.58-.04-.94,.38,.04,.6,.04,.99,.04h1.88c.47,0,.76-.02,1.04-.05v1.17c-.2,0-.41-.02-.62-.02h-.37v.37h.33c.19,0,.32,0,.49-.03v.9c-.17-.02-.32-.03-.49-.03h-.33v.38h.33c.23,0,.34,0,.49-.03v.91c-.17-.02-.32-.03-.49-.03h-.33v.39Zm-1.54,1.23c.09,.64,.13,1.26,.13,1.91,0,.09,0,.23,0,.41l-.63,.12c.04-.55,.05-.81,.05-1.3,0-.42,0-.6-.04-1.05l.5-.09Zm.37-4.07h-.5v.37h.5v-.37Zm0,1.22h-.5v.38h.5v-.38Zm-.5,1.23v.39h.5v-.39h-.5Zm.69,1.57q.11,.47,.23,1.58l-.48,.13c-.04-.78-.07-1.06-.18-1.61l.42-.11Zm3.91-3.82c-.42-.29-.81-.5-1.37-.76l.98-.88c.7,.31,1.22,.6,1.86,1.04l-.62,.59h.5c.4,0,.65-.02,.93-.05v1.39c-.26-.03-.58-.04-.9-.04h-.52v1.28h.37c.36,0,.63-.02,.92-.04v1.34c-.28-.03-.59-.04-.92-.04h-.37v1.53h.47c.34,0,.74-.02,1.07-.05v1.39c-.32-.04-.65-.05-1.07-.05h-2.25c-.42,0-.82,.02-1.08,.05v-1.39c.32,.04,.74,.05,1.08,.05h.43v-1.53h-.32c-.34,0-.64,.02-.92,.04v-1.34c.28,.03,.55,.04,.91,.04h.32v-1.28h-.43c-.36,0-.67,.02-.94,.05v-1.4c.32,.04,.66,.05,.93,.05h.95Z"/>
    <path class="cls-2" d="M59.43,84.99c0-.27-.02-.42-.05-.68h1.52c-.04,.26-.05,.41-.05,.68h2.29c.57,0,.88-.02,1.16-.05v1.3c-.34-.04-.68-.05-1.12-.05h-2.33v.32h1.8c.54,0,.71,0,.97-.04-.03,.33-.04,.46-.04,.88v1.89c0,.42,0,.55,.04,.88-.28-.03-.44-.04-.98-.04h-1.79v.34h2.32c.56,0,.88-.02,1.14-.05v1.33c-.3-.04-.62-.05-1.18-.05h-2.29c0,.49,.02,.75,.06,1.08h-1.54c.05-.38,.06-.55,.06-1.08h-2.21c-.53,0-.91,.02-1.18,.05v-1.33c.27,.04,.6,.05,1.16,.05h2.22v-.34h-1.7c-.52,0-.71,0-.98,.04,.03-.32,.04-.5,.04-.88v-1.89c0-.38,0-.57-.04-.88,.26,.03,.44,.04,.97,.04h1.71v-.32h-2.25c-.43,0-.79,.02-1.12,.05v-1.3c.28,.04,.68,.05,1.16,.05h2.21Zm-1.29,2.5v.35h1.29v-.35h-1.29Zm0,1.25v.35h1.29v-.35h-1.29Zm4.08-.9v-.35h-1.38v.35h1.38Zm0,1.25v-.35h-1.38v.35h1.38Z"/>
    <path class="cls-2" d="M69.62,90.02c-.32,.22-.56,.37-.96,.56-.11-.14-.14-.19-.25-.32-.58,.36-.78,.46-1.91,.97-.07,.03-.13,.05-.22,.11l-.26-1.47c.19-.03,.26-.05,.86-.26v-2.01h-.13c-.23,0-.42,0-.63,.04v-1.32c.19,.03,.37,.04,.63,.04h.13v-.98c0-.5,0-.73-.05-1.02h1.43c-.05,.3-.05,.5-.05,1.02v.98h.1c.24,0,.39,0,.53-.03v1.3c-.18-.03-.27-.03-.5-.03h-.13v1.46c.17-.08,.21-.1,.46-.23v-1.12c.22,.03,.45,.04,.86,.04h4.03c.4,0,.73-.02,.97-.04v1.14c-.27-.04-.58-.05-.96-.05h-2.76c-.07,.11-.09,.14-.18,.25h2.86c.43,0,.59,0,.86-.03-.02,.15-.03,.27-.03,.55-.03,1.3-.16,2.21-.39,2.61-.23,.39-.64,.53-1.49,.53-.18,0-.31,0-.72-.04-.06-.35-.11-.54-.23-.86-.5,.43-.99,.71-1.75,1.01-.25-.38-.42-.57-.78-.86,1.33-.45,2.18-1.06,2.69-1.95h-.36c-.62,.85-1.33,1.34-2.56,1.76-.22-.35-.34-.52-.65-.8,.58-.15,.81-.23,1.23-.44,.3-.14,.51-.31,.74-.52h-.44Zm-.92-.58c.4-.23,.6-.38,.82-.63-.34,0-.67,.02-.82,.05v.58Zm1.21-1.94c-.32,0-.62,0-.83,.03,.03-.29,.04-.53,.04-.93v-1.27c0-.37,0-.57-.04-.85,.27,.04,.5,.04,.96,.04h2.85c.49,0,.73,0,.99-.04-.03,.26-.04,.44-.04,.95v1.18c0,.4,0,.65,.04,.91q-.17,0-.81-.02h-3.17Zm.5-1.79h2.12v-.25h-2.12v.25Zm0,.98h2.12v-.25h-2.12v.25Zm2.46,3.34c-.41,.76-.57,.98-.99,1.42,.2,.02,.36,.03,.5,.03,.36,0,.42-.06,.51-.5,.04-.22,.06-.47,.1-.95h-.13Z"/>
  </g>
</svg>