<?xml version="1.0" encoding="UTF-8"?>
<svg id="_レイヤー_1" data-name="レイヤー 1" xmlns="http://www.w3.org/2000/svg" viewBox="0 0 100 100">
  <defs>
    <style>
      .cls-1 {
        fill: #fff;
      }

      .cls-2 {
        fill: #3e3a39;
      }

      .cls-3 {
        fill: #1a1a1a;
      }
    </style>
  </defs>
  <g>
    <path class="cls-1" d="M17.11,2.5H82.89c1.68,0,3.04,1.36,3.04,3.04V71.33c0,1.68-1.36,3.05-3.05,3.05H17.11c-1.68,0-3.04-1.36-3.04-3.04V5.54c0-1.68,1.36-3.04,3.04-3.04Z"/>
    <path class="cls-2" d="M82.89,5c.3,0,.55,.24,.55,.55V71.33c0,.3-.24,.55-.55,.55H17.11c-.3,0-.55-.24-.55-.55V5.55c0-.3,.24-.55,.55-.55H82.89M82.89,0H17.11C14.05,0,11.56,2.48,11.56,5.55V71.33c0,3.06,2.48,5.55,5.55,5.55H82.89c3.06,0,5.55-2.48,5.55-5.55V5.55C88.44,2.48,85.95,0,82.89,0h0Z"/>
  </g>
  <path class="cls-3" d="M27.84,66.83c-.94-.5-1.03-1.17-.49-2.05,1.23-2.03,2.43-4.08,3.61-6.14,.38-.67,.9-.95,1.66-.95,11.96,.01,23.91,.01,35.87,0,.76,0,1.28,.28,1.66,.95,1.18,2.06,2.38,4.11,3.61,6.14,.54,.89,.43,1.55-.5,2.05H27.84Z"/>
  <path class="cls-3" d="M46.74,36.92h-7.13v18.86h-6.67V31.5c-1.42,0-2.71,0-3.99,0-1.23,0-1.43-.21-1.44-1.47-.01-1.44-.04-2.89,.03-4.32,.02-.37,.29-.9,.59-1.07,7.1-3.76,14.21-7.48,21.33-11.18,.29-.15,.78-.14,1.07,0,7.03,3.65,14.04,7.33,21.06,10.99,.61,.32,.92,.73,.9,1.44-.04,1.44-.02,2.88,0,4.32,0,.9-.39,1.31-1.32,1.28-1.32-.04-2.65-.01-4.07-.01v24.29h-6.63v-18.83h-7.12c-.02,.45-.06,.9-.06,1.35,0,5.48-.02,10.96,.01,16.43,0,.89-.23,1.2-1.15,1.16-1.76-.07-3.52-.02-5.43-.02v-18.96Z"/>
  <g>
    <path class="cls-2" d="M22.48,90.03h.32c.24,0,.39,0,.53-.03v1.08c-.28-.02-.53-.03-.87-.03h-1.43v.38h1.79c.57,0,.79,0,1.05-.04v1.19c-.32-.04-.63-.05-1.24-.05h-4.47c-.54,0-.86,.02-1.2,.05v-1.11c-.15,.5-.27,.78-.54,1.26-.41-.53-.67-.82-1.12-1.2,.3-.5,.44-.87,.58-1.51,.19-.87,.3-2.38,.3-4.13,0-.87,0-1.11-.06-1.49,.35,.04,.69,.05,1.27,.05h5.2c.46,0,.74,0,1.04-.04-.03,.28-.03,.43-.03,.83v.94c0,.35,0,.49,.03,.73-.29-.02-.57-.03-1.03-.03h-5.13v.32s5.18,0,5.18,0c.53,0,.76,0,1.03-.04v1.1c-.31-.03-.46-.04-.88-.04h-.23c.4,.41,.61,.65,1.05,1.19l-1.13,.61Zm-2.81,1.03h-1.21c-.36,0-.63,0-.91,.03v-1.08c.25,.03,.38,.03,.92,.03h1.2v-.37q-.31,0-.44,.02c-.91,.04-1.37,.05-1.59,.08l-.11-1.12c.21,.03,.3,.04,.65,.04h.34c.12-.18,.18-.28,.27-.45h-1.36c-.07,1.36-.21,2.35-.45,3.17,.26,.03,.5,.04,1.03,.04h1.67v-.38Zm2.6-5.14v-.35h-4.81v.35h4.81Zm-2.07,2.31c-.12,.21-.16,.27-.28,.44,.54-.02,1-.03,1.38-.05-.12-.13-.15-.16-.39-.39h-.71Zm2.22,1.8q-.26-.36-.38-.52-.74,.06-1.02,.08v.44h1.4Z"/>
    <path class="cls-2" d="M29.05,88.54c-.21,.33-.37,.7-.52,1.14-.22-.29-.35-.51-.5-.87q0,.31,.02,.96v1.8c0,.44,.02,.86,.05,1.16h-1.42c.04-.31,.05-.73,.05-1.16v-1.11c0-.31,0-.58,.02-.92-.2,.59-.4,.98-.7,1.37-.18-.66-.27-.88-.57-1.46,.54-.64,.97-1.54,1.16-2.44h-.34c-.24,0-.39,0-.58,.05v-1.34c.16,.04,.31,.04,.58,.04h.42v-.58c0-.41,0-.67-.05-.95h1.43c-.04,.24-.05,.53-.05,.95v.58h.28c.23,0,.37,0,.51-.04v1.32c-.14-.03-.29-.04-.48-.04h-.29c.19,.5,.5,.95,.97,1.41v-2.97c0-.45,0-.69-.04-.96,.28,.03,.52,.04,.99,.04h2.62c.49,0,.72,0,.99-.04-.03,.26-.04,.49-.04,.97v2.35c0,.5,0,.67,.04,.96-.18,0-.24-.02-.43-.03l.88,.83c-.38,.31-.87,.69-1.17,.89,.41,.42,.71,.64,1.32,.92-.4,.55-.45,.64-.79,1.35-.8-.51-1.32-1.01-1.73-1.65v.8c-.82,.29-1.56,.49-2.6,.69-.26,.05-.34,.07-.51,.11l-.22-1.4c.23,0,.32,0,.68-.06v-2.69Zm3.2-2.41v-.42h-1.84v.42h1.84Zm-1.84,1.47h1.84v-.43h-1.84v.43Zm0,3.4c.59-.12,.73-.15,1.09-.25-.41-.74-.56-1.12-.74-2h-.35v2.25Zm1.58-2.25c.08,.33,.12,.43,.24,.7,.33-.24,.57-.45,.78-.7h-1.03Z"/>
    <path class="cls-2" d="M38.15,91.61c0,.4,0,.72,.04,1.1h-1.47c.04-.33,.05-.63,.05-1.07v-2.31c0-.49,0-.62,0-.92-.23,.35-.33,.48-.58,.71-.17-.68-.29-1.02-.58-1.6,.61-.55,1.13-1.31,1.53-2.25,.18-.44,.27-.73,.33-1.11l1.43,.37c-.08,.16-.14,.32-.23,.58-.09,.26-.32,.81-.55,1.29v5.22Zm4.93-.28c0,.54-.11,.86-.34,1.05-.22,.17-.55,.22-1.48,.22-.28,0-.47,0-.85-.04-.07-.55-.15-.86-.41-1.42,.49,.07,.79,.1,1.06,.1,.52,0,.62-.04,.62-.23v-3.7h-2.05c-.42,0-.8,.02-1.16,.05v-1.39c.34,.04,.66,.05,1.1,.05h2.12v-.54c0-.45-.02-.84-.06-1.17h1.5c-.04,.35-.05,.68-.05,1.17v.54h.09c.4,0,.61,0,.87-.05v1.38c-.24-.04-.45-.04-.84-.04h-.13v4.01Zm-3.23-3.62c.57,.8,.87,1.32,1.25,2.16l-1.25,.72c-.4-1.06-.58-1.41-1.19-2.33l1.19-.55Z"/>
    <path class="cls-2" d="M46.68,85.47c.32,.04,.61,.04,1.03,.04,.51,0,1.21-.03,1.61-.06-.19-.5-.3-.74-.38-.9l1.58-.19c.04,.29,.11,.5,.28,.94,.86-.12,1.92-.33,2.44-.5l.13,1.31q-.17,.04-.67,.14c-.52,.11-.53,.12-1.43,.26,.07,.17,.17,.41,.21,.47,1.25-.22,1.68-.32,2.1-.48l.14,1.32q-.21,.03-1.11,.22s-.42,.07-.54,.1c.37,.65,.62,1.01,1.15,1.66l-1.32,.68c-.53-.28-1.11-.4-1.89-.4-1,0-1.55,.21-1.55,.58,0,.33,.47,.5,1.42,.5,1.04,0,2.14-.22,2.86-.56l.21,1.52q-.19,.03-.63,.13c-.86,.19-1.68,.28-2.52,.28-1.37,0-2.29-.29-2.73-.85-.21-.27-.33-.64-.33-.99,0-.63,.41-1.21,1.07-1.49,.53-.22,1.14-.33,1.93-.33,.48,0,.84,.03,1.24,.11-.1-.13-.23-.35-.41-.64-.76,.1-1.8,.16-3.1,.2-.54,.02-.57,.02-.78,.04l-.06-1.33c.26,.03,.43,.04,.93,.04,.86,0,1.73-.04,2.46-.13-.03-.07-.1-.23-.21-.48-.79,.08-1.21,.1-2.35,.1-.4,0-.47,0-.67,.02l-.08-1.32Z"/>
    <path class="cls-2" d="M62.22,87.15c.21,.51,.44,.96,.78,1.47,.45,.68,.85,1.13,1.58,1.73-.39,.51-.5,.71-.86,1.42-.48-.47-.7-.72-1.02-1.15-.41-.59-.67-1.03-.92-1.63,0,.23,.02,.46,.02,.8v1.84c0,.45,.02,.79,.05,1.08h-1.47c.04-.32,.06-.72,.06-1.07v-1.64c0-.26,0-.6,.03-.87-.57,1.2-.99,1.83-1.78,2.62-.2-.43-.36-.7-.59-1.04v.95c0,.38,0,.68,.04,1.04h-1.47c.04-.4,.05-.61,.05-1.04v-2.1c0-.13,0-.45,.02-.95-.19,.27-.32,.43-.5,.64-.14-.72-.22-1.03-.44-1.67,.83-.88,1.48-2.18,1.71-3.46l1.41,.41q-.08,.21-.22,.6c-.07,.2-.15,.41-.24,.65,.31,.03,.64,.04,.96,.04h1.04v-.71c0-.29-.02-.57-.05-.86h1.45c-.04,.26-.04,.54-.04,.86v.71h1.43c.39,0,.78-.02,1.11-.05v1.43c-.32-.04-.72-.05-1.06-.05h-1.08Zm-2.79,0c-.28,0-.69,.02-1.04,.05v-1.19c-.13,.3-.15,.35-.28,.64v3.52c.8-.75,1.58-1.93,1.97-3.02h-.65Z"/>
    <path class="cls-2" d="M66.02,91.81c.45-.63,.67-1.07,.95-1.92l1.17,.47c-.29,.95-.5,1.46-.95,2.23l-1.16-.78Zm1.73-6.25c-.44,.04-.94,.07-1.14,.07-.08-.37-.2-.67-.42-1.07,1.43-.02,2.97-.2,3.47-.39l.72,1.09c-.31,.06-.62,.1-1.32,.18v.48h.68c.32,0,.41,0,.58-.04v1.16c-.17-.03-.3-.04-.59-.04h-.66v.34h.34c.37,0,.55,0,.76-.03-.02,.19-.02,.31-.02,.69v1c0,.41,0,.51,.02,.67-.23-.02-.3-.02-.75-.02h-2.12c-.37,0-.5,0-.75,.02,.03-.22,.04-.39,.04-.73v-.89c0-.31,0-.5-.04-.74,.22,.02,.4,.03,.75,.03h.46v-.34h-.95c-.21,0-.37,0-.59,.04v-1.18c.23,.04,.36,.04,.63,.04h.92v-.36Zm.16,3.13h.98v-.43h-.98v.43Zm3.11,.97c.36,.35,.58,.6,.83,.95l-.19,.11c.28,.12,.63,.21,.97,.24-.11-.18-.17-.27-.34-.52l1.12-.54c.52,.72,.79,1.16,1.19,1.94l-1.22,.72c-.23-.63-.36-.89-.62-1.38-.07,.8-.22,1.12-.55,1.29-.25,.13-.71,.16-1.85,.16-.84,0-1.12-.02-1.44-.07-.5-.09-.65-.26-.65-.76v-1.29c0-.25-.02-.44-.04-.63h1.41c-.03,.18-.04,.27-.04,.47v.88c0,.19,.09,.23,.62,.23q1.23,0,1.24-.63l-.81,.45c-.22-.43-.43-.71-.79-1.09l1.06-.53c-.13,0-.28,0-.46,.02,.02-.17,.03-.4,.03-.75v-2.93c0-.53,0-.67-.02-.95,.24,.03,.49,.04,.91,.04h.14c.13-.31,.2-.57,.26-.91l1.45,.13q-.06,.14-.16,.41c-.04,.12-.07,.2-.15,.38h.4c.5,0,.78,0,.98-.04-.03,.28-.04,.47-.04,1.1v2.55c0,.49,0,.73,.04,1.01-.34-.02-.5-.03-.89-.03h-2.39Zm.77-3.26h1.16v-.32h-1.16v.32Zm0,1.14h1.16v-.32h-1.16v.32Zm0,1.16h1.16v-.33h-1.16v.33Z"/>
    <path class="cls-2" d="M80.18,88.8c0,.5,0,.54,.02,.8-.22,0-.44-.02-.95-.02h-1.21c-.05,1.4-.26,2.25-.77,3.16-.4-.5-.67-.74-1.12-1.07,.24-.46,.34-.71,.43-1.17,.13-.55,.18-1.48,.18-2.84,0-.72,0-1-.05-1.4,.31,.02,.52,.03,.97,.03h1.57c.46,0,.67,0,.96-.03-.02,.22-.03,.57-.03,.96v1.58Zm-3.76-4.29c.29,.04,.51,.05,1.09,.05h1.76c.61,0,.87,0,1.11-.05v1.33c-.24-.03-.54-.04-1.04-.04h-1.92c-.47,0-.74,0-1,.04v-1.33Zm2.47,3.92v-.99h-.82v.44c0,.31,0,.32,0,.55h.83Zm3.05-.11c-.18,2.18-.54,3.1-1.75,4.4-.33-.44-.58-.7-1.03-1.05,.47-.46,.68-.74,.91-1.16,.29-.53,.42-1.12,.5-2.11,.04-.48,.04-.98,.04-2.54,0-.5,0-.66-.04-.9,.76,0,1.43-.09,2.19-.27,.56-.13,1.04-.29,1.28-.41l.64,1.3c-.19,.05-.23,.06-.47,.12-.85,.23-1.4,.33-2.26,.43v.89h1.77c.47,0,.64,0,.91-.04v1.38c-.27-.03-.39-.04-.74-.04v3.28c0,.5,0,.74,.05,1.04h-1.45c.04-.32,.05-.58,.05-1.04v-3.28h-.63Z"/>
  </g>
</svg>