<?xml version="1.0" encoding="UTF-8"?>
<svg id="_レイヤー_1" data-name="レイヤー 1" xmlns="http://www.w3.org/2000/svg" viewBox="0 0 100 100">
  <defs>
    <style>
      .cls-1 {
        fill: #fff;
      }

      .cls-2 {
        fill: #3e3a39;
      }
    </style>
  </defs>
  <g>
    <path class="cls-1" d="M17.11,2.5H82.89c1.68,0,3.05,1.36,3.05,3.05V71.33c0,1.68-1.36,3.05-3.05,3.05H17.11c-1.68,0-3.04-1.36-3.04-3.04V5.54c0-1.68,1.36-3.04,3.04-3.04Z"/>
    <path class="cls-2" d="M82.89,5c.3,0,.55,.24,.55,.55V71.33c0,.3-.24,.55-.55,.55H17.11c-.3,0-.55-.24-.55-.55V5.55c0-.3,.24-.55,.55-.55H82.89M82.89,0H17.11C14.05,0,11.56,2.48,11.56,5.55V71.33c0,3.06,2.48,5.55,5.55,5.55H82.89c3.06,0,5.55-2.48,5.55-5.55V5.55C88.44,2.48,85.95,0,82.89,0h0Z"/>
  </g>
  <g>
    <path class="cls-2" d="M53.53,25.77c-2.98-2.99-7.84-2.99-10.82,0l-16.29,16.29c-2.99,2.99-2.99,7.84,0,10.83l.77,.77,8.36,8.36c2.99,2.99,7.84,2.99,10.83,0l9.43-9.42,6.87-6.87c2.98-2.99,2.98-7.84,0-10.83l-9.14-9.14Zm6.19,17.01l-6.1,6.1H28.64c-.57-1.28-.32-2.83,.72-3.88l3.57-3.57,4.28,4.28c.24,.24,.64,.24,.88,0,.25-.24,.25-.64,0-.89l-4.27-4.27,3.69-3.69h0s4.27,4.27,4.27,4.27c.24,.24,.65,.24,.89,0,.24-.25,.24-.65,0-.89l-4.28-4.27,3.7-3.7,4.28,4.27c.24,.25,.64,.25,.88,0,.24-.24,.24-.64,0-.88l-4.28-4.28,2.69-2.68c1.36-1.36,3.57-1.36,4.93,0l9.14,9.14c1.36,1.36,1.36,3.58,0,4.93Z"/>
    <path class="cls-2" d="M75.82,15.66c0-.78-.3-1.57-.89-2.16-1.19-1.19-3.13-1.19-4.32,0l-1.26,1.26-1.17,1.15c-.09-.03-.18-.07-.28-.09-2.48-.79-5.44-.32-7.96,1.34-.15,.1-.3,.21-.45,.32-.03,.02-.05,.04-.08,.05h0s0,0-.01,.01l3.95,3.95,3.6,3.6,3.95,3.95c.13-.18,.26-.36,.38-.55,1.72-2.62,2.15-5.71,1.24-8.26l2.42-2.42c.59-.59,.89-1.38,.89-2.16Z"/>
    <polygon class="cls-2" points="56.74 17.12 56.71 17.09 56.71 17.09 56.7 17.07 52.11 21.66 66.77 36.33 71.34 31.76 71.35 31.75 71.35 31.75 71.36 31.74 56.74 17.12"/>
  </g>
  <g>
    <path class="cls-2" d="M43.54,89.26c-.07,.1-.11,.13-.17,.22-.47,.68-.78,1.05-1.22,1.47,.68,.27,1.16,.38,2.11,.47-.3,.51-.42,.79-.61,1.37-1.09-.23-1.81-.5-2.63-.99-.72,.43-1.41,.71-2.43,.95-.19-.5-.35-.81-.6-1.15,0,.43-.07,.67-.22,.81-.21,.2-.58,.28-1.22,.28-.11,0-.29,0-.56-.02-.05-.52-.1-.77-.29-1.29,.31,.04,.58,.06,.74,.06,.18,0,.23-.05,.23-.26v-1.41c-.41,.11-.67,.18-.78,.22l-.22-1.37c.21,0,.59-.07,1-.15v-1.41h-.27c-.22,0-.39,0-.63,.04v-1.32c.21,.04,.38,.04,.65,.04h.25v-.61c0-.47,0-.63-.04-.92h1.41c-.04,.29-.04,.46-.04,.92v.61h.2c.15,0,.25,0,.38-.03v1.13c.13,.02,.2,.02,.56,.02-.14-.46-.18-.57-.33-.85l.88-.23c-.31,.02-.41,.02-.83,.04-.1-.47-.21-.77-.42-1.17h.36c.98,0,2.57-.13,3.44-.3,.39-.06,.62-.13,.82-.22l.95,1.19c-.54,.09-.89,.15-1.05,.17l1.07,.34c-.22,.46-.4,.76-.58,1.03,.35,0,.5,0,.72-.04-.03,.21-.04,.4-.04,.77v.64c0,.21,0,.4,.04,.63h-.88l.27,.32Zm-5.55-1.09q.12-.04,.5-.14v-.53c0-.2,0-.31,0-.42-.1-.02-.18-.02-.29-.02h-.2v1.12Zm0,3.31c.76-.1,1.31-.26,1.91-.53-.34-.32-.51-.51-.89-.99l.9-.33h-.26c-.35,0-.52,0-.73,.04v-.74h-.39v.32l-.54,.16v2.07Zm3.41-5.75c-.51,.04-1.04,.08-1.44,.1t.05,.1c.1,.2,.17,.4,.28,.78l-.81,.22h1.31c-.07-.31-.19-.63-.35-.93l.95-.27Zm.86,2.71c.24,0,.37,0,.5-.02v-.38h-3v.4h2.49Zm-1.96,1.19c.25,.33,.38,.45,.68,.68,.31-.25,.42-.38,.64-.68h-1.32Zm1.83-2.7c.26-.47,.41-.81,.54-1.33-.39,.04-.59,.07-1.03,.11,.18,.36,.23,.52,.33,.95l-.96,.27h1.12Z"/>
    <path class="cls-2" d="M50.65,85.31c-2,.41-2.94,.54-4.46,.59-.14-.52-.23-.76-.43-1.18,1.64,0,3.13-.21,3.99-.54l.91,1.12Zm-2.67,2c-.13-.47-.24-.79-.44-1.25l1.09-.32c.21,.43,.31,.68,.41,.98,.2-.42,.28-.63,.44-1.13l1.24,.44c-.27,.57-.5,1.02-.77,1.43q.16,0,.27-.03l.41,.67q-.18,.16-.5,.5c-.17,.19-.54,.51-.85,.76,.53-.05,.75-.07,1.42-.15v1.21c-.78,.11-1.11,.14-1.57,.19v1.11c0,.41-.15,.68-.45,.83-.23,.11-.54,.14-1.21,.14-.18,0-.36,0-.71-.02-.08-.53-.16-.85-.34-1.27,.32,.04,.7,.05,1.04,.05,.26,0,.34-.04,.34-.19v-.53c-.72,.06-.86,.07-1.15,.1-.36,.03-.58,.05-.77,.1l-.13-1.4c.09,0,.2,.02,.28,.02,.05,0,.11,0,.21,0,.07,0,.22,0,.46-.02,.45,0,.73-.03,1.11-.05,0-.2-.02-.31-.04-.44h.28c.17-.11,.25-.18,.42-.35h-1.63c-.43,0-.56,0-.78,.04v-1.29c.15,.02,.21,.03,.41,.04-.15-.48-.26-.74-.5-1.16l1.13-.41c.25,.49,.33,.68,.5,1.19l-1.02,.39h2.05c.12-.19,.17-.28,.27-.48l-.92,.31Zm4.32,3.86c0,.13,.07,.17,.28,.17,.25,0,.35-.06,.39-.24,.06-.3,.07-.71,.08-2.05,.48,.25,.76,.36,1.29,.49-.03,1.83-.13,2.44-.44,2.75-.27,.27-.61,.34-1.58,.34-.5,0-.79-.04-1.01-.14-.3-.13-.4-.36-.4-.86v-6.17c0-.39-.02-.76-.05-1.1h1.5c-.04,.33-.05,.69-.05,1.12v5.69Z"/>
    <path class="cls-2" d="M59.4,84.84c0-.25,0-.4-.04-.58h1.5c-.03,.14-.04,.32-.04,.58h2.29c.54,0,.79,0,1.1-.04-.03,.23-.03,.33-.03,.77v.67c0,.32,.02,.58,.05,.86h-.83v.57c-.25-.03-.33-.04-.8-.04,.4,.4,.64,.64,1.21,1.27l-1.09,.74c.41,0,.55,0,.83-.04v1.26c-.27-.03-.51-.04-.91-.04h-1.82v.46h2.4c.59,0,.84,0,1.12-.05v1.33c-.3-.04-.73-.05-1.31-.05h-5.74c-.56,0-.98,.02-1.28,.05v-1.33c.3,.04,.54,.05,1.12,.05h2.3v-.46h-1.67c-.43,0-.68,0-.96,.04v-1.26c.29,.03,.41,.04,.98,.04h1.66v-.44c-.58,.03-1,.04-1.27,.05-1.06,.03-1.15,.04-1.36,.06l-.13-1.24c.22,.03,.33,.04,.51,.04h.88c.13-.17,.22-.32,.31-.48h-.32c-.64,0-.86,0-1.11,.04v-.57h-.81c.04-.43,.04-.56,.04-.94v-.61c0-.31,0-.5-.04-.75,.38,.04,.63,.04,1.12,.04h2.14Zm3.47,1.22h-5.38v.39h5.38v-.39Zm-3.04,1.56c-.11,.17-.16,.26-.31,.46q.83,0,1.81-.05c-.07-.08-.11-.12-.22-.23l.41-.18h-1.7Zm2.83,2.01c-.24-.33-.32-.42-.44-.58q-.61,.04-1.38,.07v.5h1.82Z"/>
  </g>
</svg>