<?xml version="1.0" encoding="UTF-8"?>
<svg id="_レイヤー_1" data-name="レイヤー 1" xmlns="http://www.w3.org/2000/svg" viewBox="0 0 100 100">
  <defs>
    <style>
      .cls-1 {
        fill: #fff;
      }

      .cls-2 {
        fill: #3e3a39;
      }

      .cls-3 {
        fill: #1a1a1a;
      }

      .cls-4 {
        fill: #3d3939;
      }
    </style>
  </defs>
  <g>
    <path class="cls-1" d="M17.11,2.5H82.89c1.68,0,3.04,1.36,3.04,3.04V71.33c0,1.68-1.36,3.05-3.05,3.05H17.11c-1.68,0-3.04-1.36-3.04-3.04V5.54c0-1.68,1.36-3.04,3.04-3.04Z"/>
    <path class="cls-2" d="M82.89,5c.3,0,.55,.24,.55,.55V71.33c0,.3-.24,.55-.55,.55H17.11c-.3,0-.55-.24-.55-.55V5.55c0-.3,.24-.55,.55-.55H82.89M82.89,0H17.11C14.05,0,11.56,2.48,11.56,5.55V71.33c0,3.06,2.48,5.55,5.55,5.55H82.89c3.06,0,5.55-2.48,5.55-5.55V5.55C88.44,2.48,85.95,0,82.89,0h0Z"/>
  </g>
  <path class="cls-3" d="M27.84,66.83c-.94-.5-1.03-1.17-.49-2.05,1.23-2.03,2.43-4.08,3.61-6.14,.38-.67,.9-.95,1.66-.95,11.96,.01,23.91,.01,35.87,0,.76,0,1.28,.28,1.66,.95,1.18,2.06,2.38,4.11,3.61,6.14,.54,.89,.43,1.55-.5,2.05H27.84Z"/>
  <path class="cls-3" d="M46.74,36.92h-7.13v18.86h-6.67V31.5c-1.42,0-2.71,0-3.99,0-1.23,0-1.43-.21-1.44-1.47-.01-1.44-.04-2.89,.03-4.32,.02-.37,.29-.9,.59-1.07,7.1-3.76,14.21-7.48,21.33-11.18,.29-.15,.78-.14,1.07,0,7.03,3.65,14.04,7.33,21.06,10.99,.61,.32,.92,.73,.9,1.44-.04,1.44-.02,2.88,0,4.32,0,.9-.39,1.31-1.32,1.28-1.32-.04-2.65-.01-4.07-.01v24.29h-6.63v-18.83h-7.12c-.02,.45-.06,.9-.06,1.35,0,5.48-.02,10.96,.01,16.43,0,.89-.23,1.2-1.15,1.16-1.76-.07-3.52-.02-5.43-.02v-18.96Z"/>
  <g>
    <path class="cls-4" d="M20.18,86.11q-.06,0-.79,.04c-1.03,.06-1.5,.09-1.66,.12l-.15-.97c.23,.02,.26,.02,.44,.02h.75c.21-.31,.34-.53,.48-.83h-1.86c-.07,1.25-.15,1.98-.34,2.85-.18,.91-.39,1.47-.81,2.23-.29-.38-.52-.61-.89-.91,.38-.64,.57-1.14,.73-1.96,.23-1.1,.33-2.56,.33-4.91,0-.5-.02-.81-.06-1.14,.35,.05,.68,.06,1.31,.06h5.49c.51,0,.79,0,1.1-.05-.03,.31-.03,.45-.03,.8v.94c0,.34,0,.46,.03,.72-.37-.02-.65-.03-1.07-.03h-5.75v.53s5.85,0,5.85,0c.63,0,.88,0,1.16-.05v.97c-.32-.04-.54-.05-1.06-.05h-.65c.38,.35,.83,.81,1.51,1.56l-.91,.52-.51-.64q-.53,.04-1.57,.12v.82h1.79c.62,0,.77,0,1-.04v.96c-.32-.03-.58-.04-1.01-.04h-1.78v.73h2.2c.7,0,.95,0,1.21-.05v1.01c-.33-.05-.66-.06-1.33-.06h-5.1c-.57,0-.94,.02-1.26,.06v-1.01c.25,.04,.55,.05,1.16,.05h2.05v-.73h-1.48c-.45,0-.72,0-1.03,.04v-.96c.26,.03,.44,.04,1.04,.04h1.47v-.76Zm3-3.88v-.65h-5.74v.65h5.74Zm-2.81,2.26c-.2,.36-.31,.55-.49,.81,.8-.03,1.31-.04,1.52-.06,.08,0,.33-.02,.75-.05-.18-.18-.27-.26-.53-.48l.46-.22h-1.71Z"/>
    <path class="cls-4" d="M28.06,83.25c.08,.22,.17,.39,.4,.77,.25,.42,.42,.64,.81,1.04-.28,.26-.44,.48-.65,.83-.32-.47-.45-.72-.67-1.27,.03,.33,.05,.83,.05,1.45v2.39c0,.52,.02,.9,.06,1.22h-1.16c.04-.32,.06-.72,.06-1.22v-1.84c0-.4,.01-.81,.05-1.42-.28,.84-.57,1.44-1.05,2.11q-.28-.59-.59-.97c.68-.84,1.2-1.93,1.49-3.09h-.5c-.24,0-.44,0-.67,.04v-1.06c.19,.03,.37,.04,.67,.04h.59v-.84c0-.53,0-.76-.05-1.04h1.15c-.04,.26-.05,.56-.05,1.04v.84h.43c.27,0,.44,0,.61-.04v1.06c-.21-.03-.39-.04-.59-.04h-.39Zm6.55,2.77c-.53,.48-1.04,.87-1.54,1.18,.54,.64,1,.99,1.84,1.4-.36,.37-.56,.62-.76,.99-.72-.5-.92-.65-1.31-1.07-.87-.92-1.38-1.88-1.7-3.24h-.71v2.85c.84-.19,.99-.23,1.64-.43l.03,.96c-1.58,.51-1.94,.61-2.9,.81-.32,.06-.38,.08-.55,.12l-.2-1.12c.28-.01,.48-.03,.92-.12v-6.5c0-.44,0-.71-.04-1.05,.3,.03,.57,.04,1.05,.04h2.66c.51,0,.8-.01,1.05-.05-.03,.28-.03,.51-.03,1.09v2.38c0,.6,0,.79,.03,1.06-.13-.02-.15-.02-.25-.02l.77,.72Zm-1.61-3.39v-.86h-2.57v.86h2.57Zm-2.57,1.74h2.57v-.88h-2.57v.88Zm1.72,.91c.12,.51,.16,.64,.4,1.11,.47-.29,.87-.64,1.25-1.1-.25,0-.37,0-.63,0h-1.02Z"/>
    <path class="cls-4" d="M37.93,88.43c0,.45,.02,.82,.05,1.2h-1.2c.04-.36,.06-.7,.06-1.2v-2.95c0-.49,0-.72,.02-1.12-.34,.56-.5,.77-.86,1.14-.15-.44-.3-.75-.56-1.14,.78-.78,1.37-1.66,1.85-2.78,.24-.55,.35-.89,.41-1.25l1.15,.32c-.07,.15-.14,.32-.24,.58-.12,.33-.4,.96-.68,1.52v5.68Zm4.35-6.71c0-.48-.02-.89-.07-1.24h1.21c-.04,.38-.06,.74-.06,1.24v.88h.29c.44,0,.71-.02,.97-.06v1.1c-.27-.02-.59-.04-.94-.04h-.32v4.67c0,.52-.11,.83-.34,.98-.22,.15-.49,.19-1.23,.19-.36,0-.63-.01-1.06-.04-.06-.44-.13-.7-.32-1.13,.57,.07,.88,.1,1.23,.1,.56,0,.64-.03,.64-.25v-4.52h-2.72c-.41,0-.85,.02-1.18,.06v-1.12c.31,.04,.67,.06,1.13,.06h2.77v-.88Zm-2.57,2.55c.69,.84,1.07,1.42,1.54,2.33l-.93,.66c-.48-1.06-.83-1.63-1.48-2.43l.87-.56Z"/>
    <path class="cls-4" d="M46.45,82.01c.29,.03,.52,.04,.96,.04,.76,0,1.3-.03,2.06-.11q-.03-.08-.11-.26c-.25-.58-.39-.89-.4-.91l1.25-.17c.04,.25,.14,.55,.41,1.21,.85-.11,2.01-.37,2.7-.6l.1,1.06q-.1,.02-.34,.07c-.67,.16-1.78,.38-2.09,.42,.16,.37,.22,.5,.39,.82,.86-.18,1.32-.28,1.38-.29,.57-.14,.69-.18,.95-.29l.1,1.09c-.19,.03-.4,.07-.63,.13-.41,.1-.74,.17-.98,.22q-.25,.05-.37,.08c.52,.86,.68,1.07,1.34,1.83l-.88,.63c-.72-.3-1.32-.41-2.3-.41-.76,0-1.34,.1-1.68,.28-.28,.16-.43,.37-.43,.61s.17,.47,.43,.58c.32,.14,.85,.22,1.43,.22,1.04,0,2.45-.3,3.08-.65l.18,1.23q-.19,.03-.65,.15c-.85,.23-1.68,.34-2.56,.34-1.15,0-1.88-.15-2.44-.49-.48-.3-.77-.81-.77-1.37s.3-1.04,.84-1.39c.52-.33,1.32-.5,2.33-.5,.61,0,1.19,.07,1.73,.21-.16-.15-.35-.43-.77-1.12-1.06,.16-1.7,.2-3.87,.27-.17,0-.24,0-.41,.03l-.04-1.09c.29,.04,.35,.04,1.03,.04,1.05,0,1.88-.06,2.83-.19-.06-.12-.1-.18-.18-.37-.1-.21-.13-.27-.21-.45-.8,.09-1.52,.13-2.68,.14-.42,0-.47,0-.68,.02l-.05-1.06Z"/>
    <path class="cls-4" d="M57.58,88.46c0,.43,0,.8,.05,1.16h-1.2c.04-.38,.06-.68,.06-1.17v-2.81c0-.5,0-.71,.02-1.12-.28,.47-.44,.68-.81,1.11-.13-.49-.26-.84-.45-1.22,.68-.72,1.15-1.42,1.56-2.34,.3-.66,.47-1.17,.58-1.78l1.14,.34c-.12,.3-.17,.42-.28,.72-.25,.72-.38,1.01-.67,1.63v4.24c1.17-.97,2.19-2.41,2.7-3.79h-1.14c-.35,0-.75,.02-1.08,.06v-1.16c.3,.03,.69,.05,1.08,.05h1.48v-.94c0-.34-.02-.64-.07-.97h1.2c-.05,.32-.06,.61-.06,.97v.94h1.86c.4,0,.8-.02,1.13-.06v1.17c-.32-.04-.71-.06-1.1-.06h-1.57c.39,.91,.64,1.34,1.14,2,.53,.69,1.08,1.24,1.79,1.8-.33,.39-.51,.64-.74,1.08-.6-.55-.87-.84-1.24-1.32-.61-.79-.96-1.41-1.31-2.28,.02,.32,.03,.59,.03,1.01v2.79c0,.46,0,.78,.06,1.12h-1.2c.04-.34,.07-.74,.07-1.11v-2.66c0-.33,0-.72,.02-1.05-.62,1.5-1.29,2.47-2.4,3.49-.26-.47-.38-.64-.65-.91v1.07Z"/>
    <path class="cls-4" d="M65.53,88.79c.54-.71,.79-1.19,1.09-2.16l.95,.38c-.32,1.05-.57,1.58-1.11,2.41l-.93-.63Zm1.99-7.1c-.59,.07-.84,.1-1.45,.14-.06-.3-.15-.53-.34-.88,1.55-.05,3.22-.32,3.68-.58l.62,.9c-.79,.16-1.04,.21-1.5,.28v.77h.95c.36,0,.54-.01,.74-.05v.98c-.22-.04-.42-.05-.76-.05h-.93v.63h.5c.38,0,.61,0,.83-.03-.02,.21-.03,.37-.03,.71v1.05c0,.36,0,.51,.03,.7-.2-.02-.37-.03-.79-.03h-2.16c-.36,0-.55,.01-.8,.03,.02-.2,.03-.42,.03-.74v-.98c0-.29,0-.53-.03-.74,.21,.02,.44,.03,.8,.03h.61v-.63h-1.15c-.31,0-.52,.01-.74,.05v-.99c.24,.05,.44,.06,.76,.06h1.13v-.63Zm-.35,3.71h1.69v-.76h-1.69v.76Zm1.99,1.16c-.04,.24-.05,.37-.05,.68v.97c0,.31,.11,.34,1.04,.34q1.56,0,1.57-1.07c.32,.16,.62,.25,1.05,.31-.09,.98-.21,1.31-.55,1.51-.27,.15-.77,.19-2.17,.19-1.71,0-2-.13-2-.89v-1.25c0-.3-.02-.53-.06-.79h1.17Zm1.42,1.58c-.34-.55-.65-.91-1.12-1.33l.82-.5c.49,.4,.79,.7,1.17,1.21l-.87,.62Zm2.8-6.83c.44,0,.73,0,.95-.04-.03,.26-.04,.47-.04,1.03v2.98c0,.46,0,.7,.04,.97-.3-.02-.52-.03-.9-.03h-2.12c-.48,0-.58,0-.93,.03,.03-.19,.04-.45,.04-.82v-3.23c0-.49,0-.67-.03-.93,.25,.03,.5,.04,.9,.04h.29c.14-.29,.23-.59,.33-1.01l1.13,.13q-.06,.14-.17,.43c-.06,.15-.12,.27-.2,.45h.71Zm-1.93,1.38h1.82v-.52h-1.82v.52Zm0,1.3h1.82v-.5h-1.82v.5Zm0,1.36h1.82v-.55h-1.82v.55Zm2.29,4.02c-.41-1.02-.66-1.48-1.28-2.33l.9-.45c.6,.8,.91,1.3,1.36,2.17l-.98,.61Z"/>
    <path class="cls-4" d="M79.5,85.54q-.65,.04-2.21,.11c-.48,.02-.78,.04-.88,.05l-.12-1.01c.26,.02,.42,.03,.73,.03,.18,0,.41,0,.86,0,.23-.32,.42-.63,.59-.97h-.48c-.67,0-.91,0-1.2,.05v-.48h-1q0-.16,.02-.34c.01-.13,.02-.36,.02-.6v-.51c0-.3,0-.49-.04-.74,.36,.03,.67,.04,1.24,.04h2.44v-.14c0-.24-.02-.45-.05-.65h1.22c-.03,.19-.05,.4-.05,.65v.14h2.59c.62,0,.95,0,1.26-.04-.02,.23-.03,.36-.03,.78v.55c0,.32,.02,.57,.05,.82h-1.02v.52c-.29-.04-.49-.05-1.08-.05h-.23c.65,.54,.81,.69,1.78,1.67l-.81,.69c-.32-.39-.43-.52-.63-.73q-.64,.04-1.87,.12v.93h2.09c.5,0,.7,0,1.01-.04v1.04c-.32-.04-.55-.05-1.03-.05h-2.07v.95h2.8c.62,0,.93-.02,1.24-.06v1.09c-.35-.04-.75-.06-1.37-.06h-6.31c-.61,0-1.01,.02-1.35,.06v-1.09c.32,.05,.63,.06,1.24,.06h2.65v-.95h-1.9c-.5,0-.73,0-1.05,.05v-1.04c.29,.03,.48,.04,1.07,.04h1.88v-.88Zm3.87-3.42h-6.5v.67c.23,.02,.47,.03,1,.03h4.46c.57,0,.82,0,1.04-.03v-.67Zm-3.75,1.62c-.23,.42-.33,.59-.58,.94q1.87-.07,2.66-.12c-.2-.18-.27-.25-.53-.46l.61-.36h-2.16Z"/>
  </g>
</svg>