<?xml version="1.0" encoding="UTF-8"?>
<svg id="_レイヤー_1" data-name="レイヤー 1" xmlns="http://www.w3.org/2000/svg" viewBox="0 0 100 100">
  <defs>
    <style>
      .cls-1 {
        fill: #fff;
      }

      .cls-2 {
        fill: #3e3a39;
      }

      .cls-3 {
        fill: #3d3939;
      }

      .cls-4 {
        fill: none;
        stroke: #1a1a1a;
        stroke-miterlimit: 10;
        stroke-width: 2.56px;
      }
    </style>
  </defs>
  <g>
    <path class="cls-1" d="M17.11,2.5H82.89c1.68,0,3.05,1.36,3.05,3.05V71.33c0,1.68-1.36,3.05-3.05,3.05H17.11c-1.68,0-3.04-1.36-3.04-3.04V5.54c0-1.68,1.36-3.04,3.04-3.04Z"/>
    <path class="cls-2" d="M82.89,5c.3,0,.55,.24,.55,.55V71.33c0,.3-.24,.55-.55,.55H17.11c-.3,0-.55-.24-.55-.55V5.55c0-.3,.24-.55,.55-.55H82.89M82.89,0H17.11C14.05,0,11.56,2.48,11.56,5.55V71.33c0,3.06,2.48,5.55,5.55,5.55H82.89c3.06,0,5.55-2.48,5.55-5.55V5.55C88.44,2.48,85.95,0,82.89,0h0Z"/>
  </g>
  <path class="cls-4" d="M77.93,24.09c-2.08-5.47-6.97-8.97-12.78-9.14-.17,0-.34,0-.51,0-6.01,0-11.5,3.07-14.65,8.1-3.15-5.03-8.63-8.1-14.65-8.1-.17,0-.34,0-.51,0-5.8,.17-10.7,3.67-12.78,9.14-2.11,5.57-.75,11.55,3.57,15.61l23.09,21.72c.36,.34,.81,.5,1.27,.5s.91-.17,1.27-.5l23.09-21.72c4.32-4.06,5.68-10.04,3.57-15.61Zm-27.8,36.13c-.08,.07-.19,.07-.27,0l-23.09-21.72c-3.82-3.59-5.03-8.89-3.16-13.81,1.83-4.83,6.15-7.92,11.27-8.07,.15,0,.31,0,.46,0,5.72,0,10.92,3.08,13.67,8.06l-4.68,6.71c-.88,1.32-.59,3.13,.66,4.11l1.88,1.47c1.2,.94,2.94,.85,4.03-.22l3.68-3.61,11.76,11.83-3.82,3.6-5.76-5.63c-.33-.32-.85-.31-1.17,.01-.32,.33-.31,.85,.01,1.17l5.71,5.58-3.27,3.07-5.78-5.64c-.33-.32-.85-.31-1.17,.01-.32,.33-.31,.85,.01,1.17l5.73,5.6-2.92,2.74-5.81-5.67c-.33-.32-.85-.31-1.17,.01-.32,.33-.31,.85,.01,1.17l5.76,5.62-2.59,2.44Zm23.09-21.72l-5.66,5.32-12.38-12.45c-.32-.32-.84-.33-1.17,0l-4.27,4.19c-.5,.49-1.29,.53-1.85,.1l-1.88-1.47c-.57-.45-.71-1.27-.31-1.87l4.97-7.13s.01-.03,.02-.04c0-.02,.02-.03,.03-.05,2.69-5.24,8.02-8.5,13.91-8.5,.15,0,.31,0,.46,0,5.12,.15,9.44,3.24,11.27,8.07,1.87,4.93,.66,10.22-3.16,13.81Z"/>
  <g>
    <path class="cls-3" d="M11.93,81.68c-.1,.22-.14,.41-.19,.75-.22,1.59-.32,2.23-.55,3.58h1.06c.63,0,.83,0,1.17-.06v1.13c-.32-.04-.53-.05-1.15-.05H6.83c-.63,0-.84,0-1.16,.05v-1.13c.34,.05,.54,.06,1.18,.06h3.14c.25-1.19,.44-2.46,.57-3.69h-2.81c-.5,0-.69,0-1.01,.05v-1.14c.32,.05,.51,.07,1,.07h2.62c.54,0,.72-.02,1-.09l.57,.47Z"/>
    <path class="cls-3" d="M14.8,85.75c.34,.05,.54,.06,1.15,.06h5.17c.61,0,.81,0,1.15-.06v1.21c-.32-.04-.55-.04-1.13-.04h-5.2c-.58,0-.82,0-1.13,.04v-1.21Zm.91-4.38c.32,.05,.53,.06,1.06,.06h3.54c.53,0,.74,0,1.06-.06v1.19c-.3-.04-.51-.04-1.05-.04h-3.56c-.54,0-.76,0-1.05,.04v-1.19Z"/>
    <path class="cls-3" d="M26.77,81.07c-.03,.1-.04,.11-.05,.18l-.02,.15-.04,.26-.03,.22c-.38,2.58-1.08,4.36-2.29,5.74-.42-.41-.59-.54-1.03-.77,.54-.54,.91-1.09,1.29-1.92,.39-.84,.7-1.95,.85-3.09,.05-.37,.08-.67,.08-.87v-.13l1.23,.23Zm2.56-.23c0,.41,.17,1.3,.38,2.07,.44,1.67,1.07,2.88,2.01,3.89-.46,.29-.65,.44-.99,.83-1.2-1.43-2.04-3.5-2.39-5.92-.05-.37-.08-.51-.13-.65l1.12-.22Zm.76-.54c.33,.47,.53,.85,.75,1.45l-.68,.22c-.21-.58-.4-.96-.74-1.47l.67-.2Zm1.24,1.31c-.21-.56-.43-1.01-.72-1.42l.67-.19c.34,.48,.54,.85,.74,1.39l-.68,.22Z"/>
    <path class="cls-3" d="M32.68,83.51c.4,.05,.57,.06,1.46,.06h4.8c.89,0,1.06,0,1.46-.06v1.25c-.36-.04-.46-.04-1.47-.04h-4.78c-1.01,0-1.11,0-1.47,.04v-1.25Z"/>
    <path class="cls-3" d="M46.7,82.05v-.41s0-.29,0-.29c0-.59,0-.79-.04-1h1.16c-.03,.21-.04,.25-.04,.6q0,.55,0,1.09h.58c.64,0,.82,0,1.17-.06v1.1c-.31-.04-.56-.04-1.15-.04h-.6c-.02,1.08-.02,1.14-.06,1.49-.13,1.15-.51,1.92-1.3,2.58-.49,.41-.93,.65-1.76,.95-.17-.39-.29-.56-.67-.95,.85-.26,1.29-.48,1.72-.86,.61-.53,.87-1.12,.96-2.16,.02-.21,.02-.42,.04-1.04h-2.33v1.35c0,.38,0,.52,.04,.76h-1.17c.03-.2,.04-.44,.04-.77v-1.33h-.55c-.59,0-.84,0-1.15,.04v-1.1c.35,.05,.53,.06,1.17,.06h.53v-.9c0-.38,0-.57-.04-.8h1.18c-.04,.3-.04,.32-.04,.77v.93h2.34Z"/>
    <path class="cls-3" d="M53.36,80.61q-.04,.25-.09,2.02c-.06,1.76-.26,2.77-.73,3.7-.31,.62-.65,1.08-1.24,1.67-.35-.45-.49-.58-.91-.87,.44-.36,.66-.6,.93-1.04,.65-1.04,.86-2.2,.86-4.72,0-.5,0-.58-.04-.82l1.22,.06Zm2.39-.11c-.04,.26-.05,.41-.06,.86l-.04,5.12c.63-.3,.99-.57,1.38-1.03,.41-.49,.67-.98,.88-1.65,.32,.41,.43,.52,.85,.85-.37,.89-.84,1.57-1.43,2.1-.51,.44-.98,.71-1.92,1.08-.2,.07-.27,.11-.39,.16l-.58-.61c.06-.26,.07-.46,.08-.95l.04-5.08v-.27c0-.23,0-.42-.04-.59l1.22,.02Z"/>
    <path class="cls-3" d="M64.18,83.95c-.1,2.22-.95,3.41-2.98,4.2-.22-.45-.37-.65-.74-1,1.76-.56,2.47-1.45,2.53-3.2h-2.19c-.7,0-.84,0-1.14,.04v-1.07c.32,.05,.5,.06,1.16,.06h5.27c.67,0,.85,0,1.16-.06v1.07c-.31-.04-.44-.04-1.14-.04h-1.93Zm1.36-2.21c-.28-.04-.41-.04-1.14-.04h-2.68c-.74,0-.86,0-1.14,.04v-1.1c.31,.05,.49,.06,1.16,.06h2.65c.68,0,.86,0,1.16-.06v1.1Zm.52-1.68c.34,.47,.55,.83,.8,1.42l-.67,.25c-.25-.6-.46-.97-.79-1.44l.67-.23Zm1.29,1.28c-.21-.51-.47-.97-.77-1.4l.65-.23c.36,.48,.58,.84,.79,1.37l-.67,.26Z"/>
    <path class="cls-3" d="M73.61,82.11v-.75c0-.48,0-.68-.04-.89h1.15c-.03,.22-.03,.28-.03,.59,0,.33,0,.68,0,1.04h.57c.68,0,.86,0,1.18-.06v1.1c-.31-.04-.43-.04-1.16-.04h-.59c-.02,1.62-.11,2.2-.44,2.91-.5,.97-1.38,1.67-2.67,2.1-.15-.36-.31-.58-.68-.95,1.28-.36,2.04-.93,2.42-1.8,.22-.54,.27-.98,.29-2.25h-2.33v1.34c0,.41,0,.54,.04,.76h-1.17c.03-.19,.03-.29,.04-.77v-1.32h-.55c-.72,0-.85,0-1.15,.04v-1.1c.32,.05,.5,.06,1.17,.06h.53v-.9c0-.46,0-.58-.04-.8h1.18c-.04,.3-.04,.33-.04,.77v.94h2.34Zm1.72-2.16c.27,.44,.47,.87,.62,1.4l-.62,.18c-.17-.58-.36-1.02-.61-1.41l.61-.17Zm1.11,1.29c-.13-.46-.34-.92-.61-1.36l.58-.18c.24,.38,.43,.8,.61,1.35l-.58,.19Z"/>
    <path class="cls-3" d="M84.95,81c-.15,.13-.2,.17-.33,.32-.67,.7-1.35,1.29-2.12,1.85v3.84c0,.5,0,.76,.04,1h-1.26c.04-.26,.05-.44,.05-.97v-3.17c-1.05,.63-1.56,.86-3.21,1.46-.19-.47-.29-.62-.6-1.03,1.78-.49,3.29-1.23,4.73-2.34,.8-.62,1.41-1.24,1.67-1.68l1.04,.72Z"/>
    <path class="cls-3" d="M87.12,86.51c.77-.04,1.85-.31,2.67-.67,1.12-.49,1.96-1.18,2.67-2.21,.4-.58,.65-1.07,.92-1.8,.35,.42,.5,.56,.95,.88-.76,1.65-1.62,2.71-2.85,3.53-.92,.61-2.03,1.05-3.43,1.35-.36,.07-.39,.08-.59,.15l-.33-1.24Zm.77-5.59c1.07,.67,1.63,1.08,2.32,1.74l-.77,.98c-.72-.77-1.46-1.36-2.29-1.83l.75-.89Z"/>
  </g>
</svg>