<?xml version="1.0" encoding="UTF-8"?>
<svg id="_レイヤー_1" data-name="レイヤー 1" xmlns="http://www.w3.org/2000/svg" viewBox="0 0 100 100">
  <defs>
    <style>
      .cls-1 {
        fill: #fff;
      }

      .cls-2 {
        fill: #3e3a39;
      }

      .cls-3 {
        fill: #1a1a1a;
      }

      .cls-4 {
        fill: #3d3939;
      }
    </style>
  </defs>
  <g>
    <rect class="cls-1" x="11.04" y="2.34" width="72.03" height="72.03" rx="3.04" ry="3.04"/>
    <path class="cls-2" d="M80.03,4.84c.3,0,.55,.24,.55,.55V71.33c0,.3-.24,.55-.55,.55H14.09c-.3,0-.55-.24-.55-.55V5.38c0-.3,.24-.55,.55-.55H80.03m0-5H14.09c-3.06,0-5.55,2.48-5.55,5.55V71.33c0,3.06,2.48,5.55,5.55,5.55H80.03c3.06,0,5.55-2.48,5.55-5.55V5.38c0-3.06-2.48-5.55-5.55-5.55h0Z"/>
  </g>
  <g>
    <path class="cls-4" d="M79.01,46.83c-.43,.11-.88,.19-1.3,.35-8.04,3.23-16.07,6.48-24.12,9.68-.61,.24-1.37,.31-2.02,.2-11.81-1.99-23.62-4.03-35.42-6.06-.28-.05-.56-.16-1.04-.31,4.23-5.15,7.58-10.74,10.51-16.59,2.91-5.82,5.33-11.84,7.27-18.19,9.04,3.17,18.27,3.61,27.66,2.27,.91,2.23,1.75,4.45,2.69,6.61,2.69,6.17,5.67,12.19,10.26,17.2,1.6,1.74,3.66,3.07,5.51,4.59v.25Zm-5.22-.74c-1.19-1.33-2.35-2.52-3.38-3.81-4.73-5.92-7.99-12.66-10.73-19.67-.53-1.35-1.15-1.71-2.53-1.54-4.61,.58-9.23,.52-13.82-.21-2.69-.43-5.37-.92-8.06-1.39,.24,7.85,11.07,29.68,17.44,35.11,7-2.82,14.01-5.65,21.09-8.5ZM33.71,22.24c-2.09,4.59-4,9.26-6.3,13.73-2.3,4.46-4.98,8.72-7.53,13.13,2.89,.49,5.93,1.01,9.01,1.53,1.18-3.99,2.31-7.84,3.5-11.89,1.36,3.43,2.27,6.88,6.14,8.31v5.25c3.65,.64,7.18,1.26,11.09,1.95-7.64-9.85-13.03-20.36-15.91-32.01Z"/>
    <g>
      <path class="cls-1" d="M65.44,51.74c-.21,.11-3.06,1.53-5.1,.11-.29-.2-.64-.51-.95-1-.04-2.02-.09-4.03-.13-6.05h6.84c.26,1.04,.52,2.76,.08,4.77-.19,.86-.46,1.59-.74,2.18Z"/>
      <path class="cls-3" d="M68.25,59.45h-10.92c0-.74,.03-1.48,.02-2.22-.01-1.03-.03-2.06,.78-2.88-.77-.72-.94-1.6-.9-2.56,.02-.44-.04-.89,.01-1.33,.12-.97-.16-1.73-1-2.28-.39-.26-.53-.69-.53-1.16,0-.79,0-1.58,0-2.37,0-.91,.56-1.48,1.47-1.49,.66,0,1.33,0,1.99,0,.28,0,.34-.11,.24-.39h-.94c-.08-.56-.01-.69,.46-.87,.06-.02,.13-.07,.17-.12,.37-.66,1-.92,1.69-1.08,.37-.08,.74-.14,1.11-.21,.59,0,1.18,0,1.77,0,.12,.03,.23,.06,.35,.08,.96,.14,1.91,.29,2.47,1.24,.03,.05,.09,.07,.15,.09,.47,.18,.54,.31,.46,.88h-.95c-.09,.29,0,.38,.26,.38,.68,0,1.35,0,2.03,0,.84,.01,1.41,.58,1.43,1.42,.01,.84,0,1.68,0,2.52,0,.42-.16,.77-.47,1.05-.18,.17-.36,.34-.56,.49-.38,.27-.5,.64-.5,1.09,0,.7-.02,1.41,0,2.11,.04,.95-.16,1.81-.9,2.52,.78,.8,.79,1.8,.78,2.81,0,.76,.01,1.53,.02,2.29Zm-8.76-13.93c0,.18,0,.33,0,.47,0,1.11,.04,2.22-.01,3.33-.05,1.09,.53,1.81,1.25,2.47,.07,.06,.2,.08,.31,.08,1.17,0,2.34,0,3.5,0,.11,0,.24,0,.31-.07,.7-.66,1.31-1.35,1.26-2.43-.05-1.13-.01-2.27-.01-3.4,0-.14,0-.29,0-.45h-6.61Zm7.14-.02c0,.2,0,.34,0,.47,0,1.12-.01,2.25,0,3.37,.01,.88-.23,1.65-.87,2.28-.06,.05-.09,.13-.18,.26,.36,0,.65,0,.94,0,.21,0,.29,.07,.28,.28-.01,.2,0,.41,0,.62-.25,.02-.45,.04-.63,.06-.1,.48-.09,.48,.27,.71,.14,.09,.27,.17,.39,.27,.19,.16,.33,.11,.47-.06,.34-.41,.52-.89,.53-1.43,0-.68,.05-1.36,0-2.04-.1-1.03,.2-1.83,1.07-2.42,.21-.14,.4-.45,.42-.69,.05-.91,.03-1.82,0-2.74-.01-.41-.27-.7-.66-.72-.64-.05-1.28-.01-2.03-.01,.56,.32,1.02,.59,1.49,.87,.16,.09,.33,.18,.45,.31,.25,.26,.16,.52-.18,.59-.13,.03-.27,.02-.4,.03-.43,0-.86,0-1.33,0Zm-6.65,6.38c-.03-.09-.04-.12-.05-.14-.04-.05-.08-.1-.12-.14-.61-.61-.86-1.36-.85-2.21,.01-1.12,0-2.25,0-3.37,0-.16,0-.31,0-.48-.11-.01-.18-.03-.25-.03-.46,0-.91,.02-1.36-.01-.15,0-.39-.13-.4-.23-.02-.14,.08-.36,.2-.46,.21-.18,.48-.3,.72-.44,.34-.2,.69-.4,1.03-.6-.55-.09-1.06-.09-1.57-.09-.75,0-1.07,.32-1.07,1.09,0,.49,.04,.99-.01,1.48-.1,.88,.16,1.56,.92,2.05,.47,.31,.62,.8,.62,1.35-.01,.88-.04,1.76,.01,2.63,.02,.41,.16,.84,.35,1.22,.24,.49,.35,.49,.8,.18,.07-.05,.14-.11,.22-.14,.32-.13,.41-.36,.29-.71-.19-.02-.39-.04-.64-.07,0-.2,.01-.38,0-.56-.02-.27,.1-.35,.34-.33,.27,.02,.53,0,.85,0Z"/>
    </g>
  </g>
  <g>
    <path class="cls-2" d="M15.29,84.86c-.1-.57-.14-.76-.23-1.02l1.66-.25c0,.28,.05,.58,.13,1l.1,.5,1.4-.22c.64-.1,.89-.14,1.29-.26l.25,1.51q-.31,.03-1.28,.17l-1.4,.22,.22,1.13,1.67-.25c.62-.1,.92-.16,1.3-.28l.27,1.52q-.51,.05-1.27,.16l-1.7,.26,.25,1.31c.14,.77,.16,.86,.27,1.21l-1.71,.28c0-.31-.04-.57-.16-1.25l-.23-1.3-1.78,.28c-.62,.1-.67,.11-1.23,.25l-.24-1.53c.37-.02,.75-.05,1.29-.14l1.72-.27-.21-1.13-1.24,.2c-.77,.12-.97,.15-1.34,.25l-.24-1.54c.4,0,.69-.04,1.32-.14l1.25-.19-.09-.47Z"/>
    <path class="cls-2" d="M24.71,85.95c-.06-.37-.11-.53-.19-.77l1.48-.22c0,.27,.03,.46,.08,.77l.11,.54,2.66-.44c.3-.04,.4-.08,.53-.17l.85,.77c-.09,.12-.11,.14-.23,.49-.38,1.04-.88,1.76-1.8,2.56-.41-.42-.67-.61-1.14-.86,.59-.39,1-.82,1.35-1.42l-1.98,.34,.53,2.77c.13,.67,.17,.87,.3,1.25l-1.57,.27c-.02-.36-.05-.65-.16-1.25l-.49-2.81-.59,.1c-.36,.06-.59,.12-.89,.21l-.24-1.38c.33-.02,.55-.04,.95-.1l.54-.09-.1-.57Z"/>
    <path class="cls-2" d="M34.26,84.14c1.13,.67,1.72,1.08,2.48,1.76l-1.06,1.4c-.78-.82-1.55-1.41-2.45-1.9l1.04-1.27Zm-.95,5.59c.92-.07,1.86-.3,2.71-.65,1.13-.47,1.94-1.14,2.64-2.22,.38-.58,.62-1.07,.88-1.76,.44,.53,.65,.71,1.32,1.21-.82,1.77-1.67,2.84-2.93,3.65-.97,.63-1.83,.96-3.5,1.35-.35,.08-.4,.09-.65,.16l-.47-1.73Z"/>
    <path class="cls-2" d="M50.45,85.45v.04s-.03,.06-.04,.09l-.05,.23c-.74,2.89-2.3,4.71-5.17,5.99-.3-.6-.55-.95-1.13-1.51,2.39-.75,4.02-2.34,4.53-4.44h-3.76c-.95,0-1.17,.02-1.49,.05v-1.62c.34,.05,.59,.07,1.51,.07h4.59c.03-.56,.46-.97,1.01-.97s1.02,.45,1.02,1.02-.44,1.01-1.01,1.02v.04Zm-.52-1.05c0,.27,.23,.5,.51,.5s.51-.23,.51-.5-.23-.51-.51-.51-.51,.23-.51,.51Z"/>
    <path class="cls-2" d="M57.92,89.39h1.75c.8,0,1.08,0,1.49-.07v1.58c-.33-.04-.78-.05-1.46-.05h-5.08c-.81,0-1.05,0-1.45,.04v-1.58c.43,.05,.76,.07,1.48,.07h1.64v-3.41h-.99c-.85,0-1.06,0-1.46,.04v-1.56c.48,.06,.76,.07,1.49,.07h3.66c.76,0,1.07-.02,1.49-.07v1.56c-.41-.04-.61-.04-1.46-.04h-1.09v3.41Z"/>
    <path class="cls-2" d="M66.05,83.9c-.04,.41-.04,.58-.04,1.21v1.79c0,.64,0,.93,.04,1.29h-1.75c.04-.32,.05-.64,.05-1.31v-1.78c0-.55,0-.79-.05-1.19h1.75Zm4.19,0c-.04,.5-.04,.64-.04,1.22v1.05c0,1.23-.07,2.1-.21,2.62-.27,.98-.88,1.72-1.87,2.29-.51,.3-.99,.49-1.87,.74-.21-.6-.43-.98-.92-1.54,.86-.16,1.32-.31,1.78-.55,.79-.42,1.2-.96,1.34-1.75,.05-.33,.1-1.12,.1-1.91v-.94c0-.66,0-.85-.05-1.23h1.75Z"/>
    <path class="cls-2" d="M81.52,84.96c-.14,.14-.16,.19-.28,.47-.58,1.35-1.35,2.26-2.51,2.98-.31-.41-.61-.69-1.01-.98-.05,.94-.21,1.59-.52,2.19-.32,.58-.78,1.09-1.4,1.52-.37,.25-.67,.41-1.27,.69-.36-.71-.5-.93-1.03-1.46,.99-.31,1.64-.71,2.06-1.25,.43-.56,.59-1.2,.59-2.39,0-.29,0-.42-.05-.62h1.69c-.03,.18-.04,.26-.04,.77,0,0,0,.23,0,.32q.05-.04,.21-.11c.66-.33,1.19-.87,1.51-1.53h-4.29c-.68,0-1,.02-1.43,.06v-1.58c.41,.06,.72,.08,1.46,.08h4.72c.5,0,.57,0,.77-.1l.85,.94Z"/>
  </g>
</svg>