<?xml version="1.0" encoding="UTF-8"?>
<svg id="_レイヤー_1" data-name="レイヤー 1" xmlns="http://www.w3.org/2000/svg" viewBox="0 0 100 100">
  <defs>
    <style>
      .cls-1 {
        fill: #fff;
      }

      .cls-2 {
        fill: #3e3a39;
      }
    </style>
  </defs>
  <g>
    <rect class="cls-1" x="14.35" y="2.5" width="71.29" height="71.29" rx="3.04" ry="3.04"/>
    <path class="cls-2" d="M82.6,5c.3,0,.55,.24,.55,.55V70.75c0,.3-.24,.55-.55,.55H17.4c-.3,0-.55-.24-.55-.55V5.55c0-.3,.24-.55,.55-.55H82.6M82.6,0H17.4C14.34,0,11.85,2.48,11.85,5.55V70.75c0,3.06,2.48,5.55,5.55,5.55H82.6c3.06,0,5.55-2.48,5.55-5.55V5.55C88.15,2.48,85.66,0,82.6,0h0Z"/>
  </g>
  <g>
    <path class="cls-2" d="M44.05,50.68c-1.49,0-2.98-1.09-3.57-3.5-.86-3.5-2.58-13.72-2.94-16.5-.07-.43-.17-.6-.26-.6s-.2,.23-.26,.6c-.43,3.01-2.02,12.4-3.08,16.47-.59,2.38-2.21,3.54-3.8,3.54s-3.17-1.16-3.67-3.5c-3.54-16.73-4-19.25-4-19.84,0-1.16,1.03-1.75,2.02-1.75,.93,0,1.82,.5,1.98,1.46,3.31,19.01,3.37,19.21,3.84,19.21,.26,0,.5-.36,.59-.86,.63-2.74,2.41-12.76,3.27-17.16,.33-1.79,1.69-2.58,3.04-2.58,1.46,0,2.91,.89,3.21,2.45,.73,3.77,2.38,13.29,3.08,17.13,.1,.56,.26,.76,.43,.76,.46,0,.66,0,4.4-18.98,.2-.96,1.03-1.42,1.85-1.42,1.03,0,2.08,.66,2.08,1.72,0,.63-1.75,8.5-4.53,20-.53,2.18-2.12,3.37-3.67,3.37Z"/>
    <path class="cls-2" d="M67.52,50.97c-8.23,0-12.66-6.12-12.66-12.56s4.73-13.09,12.8-13.09c5.26,0,8.83,3.04,8.83,4.83,0,1.12-.96,2.05-2.02,2.05-.59,0-1.19-.26-1.69-.89-1.29-1.59-3.37-2.35-5.46-2.35-5.59,0-8.56,4.76-8.56,9.23,0,2.78,1.62,8.99,8.6,8.99,2.51,0,4.99-.96,6.35-2.78,.46-.63,1.02-.86,1.62-.86,1.12,0,2.21,.99,2.21,2.12,0,1.72-3.93,5.32-10.02,5.32Z"/>
  </g>
  <g>
    <path class="cls-2" d="M27.85,87.73c0,.41-.02,.65-.08,.85-.09,.35-.45,.58-.92,.58-.63,0-1.39-.28-1.89-.71-.36-.31-.55-.7-.55-1.13,0-.47,.31-1,.86-1.48,.36-.31,.8-.57,1.46-.85v-1.54q-.09,0-.42,.02c-.15,0-.29,0-.54,0-.15,0-.43,0-.55,0-.13-.01-.22-.01-.25-.01-.04,0-.12,0-.21,.01v-1.12c.27,.06,.67,.09,1.2,.09,.1,0,.21,0,.35,0,.24,0,.29,0,.4,0v-.66c0-.57,0-.83-.06-1.15h1.25c-.05,.32-.06,.53-.06,1.09v.64c.75-.09,1.42-.22,1.93-.38l.04,1.12c-.18,.03-.37,.06-1.06,.18-.33,.06-.53,.09-.91,.13v1.3c.68-.2,1.31-.28,2.04-.28,1.67,0,2.86,1.02,2.86,2.44,0,1.3-.97,2.28-2.27,2.28-.81,0-1.38-.39-1.64-1.11-.13-.34-.17-.67-.17-1.28,.51-.14,.68-.21,1.11-.44-.02,.19-.02,.28-.02,.44,0,.42,.04,.69,.14,.88,.11,.21,.35,.34,.63,.34,.59,0,1.01-.47,1.01-1.11,0-.86-.7-1.42-1.77-1.42-.6,0-1.21,.11-1.92,.33v1.97Zm-1.12-1.61c-.75,.4-1.19,.84-1.19,1.2,0,.17,.1,.32,.33,.46,.2,.14,.45,.22,.64,.22,.17,0,.22-.09,.22-.42v-1.46Zm5.54-2.02c-.5-.79-1.23-1.58-2-2.16l.94-.63c.87,.67,1.45,1.27,1.98,2.05l-.92,.74Z"/>
    <path class="cls-2" d="M39.5,82.06c-1.31,.12-1.81,.15-3.12,.18q-.11-.41-.37-1.03h.49c1.43,0,3.28-.14,4.48-.34,.95-.16,1.31-.25,1.85-.48l.82,1c-.86,.22-2.22,.47-3.03,.56v1.3h2.07c.57,0,.92-.02,1.25-.06v1.12c-.34-.04-.72-.06-1.23-.06h-2.09v1.21h2.56c.56,0,.89-.02,1.22-.06v1.13c-.35-.04-.68-.06-1.22-.06h-2.56v1.96c0,.44-.14,.75-.39,.86-.23,.1-.66,.16-1.12,.16-.3,0-.79-.02-1.36-.07-.05-.44-.11-.67-.3-1.09,.72,.1,1.26,.14,1.67,.14,.29,0,.38-.07,.38-.31v-1.65h-2.79c-.55,0-.88,.02-1.23,.06v-1.13c.33,.04,.66,.06,1.23,.06h2.79v-1.21h-2.23c-.44,0-.91,.02-1.25,.06v-1.12c.33,.04,.67,.06,1.24,.06h2.24v-1.19Z"/>
    <path class="cls-2" d="M47.1,82.93c.77,.47,1.13,.72,1.78,1.28l-.61,.92c-.7-.65-1.03-.9-1.8-1.37l.63-.83Zm1.74,3.43c-.43,1.32-.77,2.12-1.37,3.19l-.95-.83c.49-.52,.98-1.55,1.43-3l.89,.64Zm-1.31-5.9c.62,.39,1.09,.76,1.67,1.29l-.69,.87c-.65-.65-.87-.82-1.68-1.36l.7-.8Zm6.72,1.46c.49,0,.81-.02,1.09-.06v1.08c-.33-.03-.69-.05-1.1-.05h-1.37v1.41h1.81c.48,0,.76-.02,1.06-.06v1.1c-.27-.04-.57-.06-1.04-.06h-1.13v2.98c0,.2,.09,.25,.49,.25s.57-.04,.65-.17c.08-.12,.11-.53,.13-1.45,.42,.19,.6,.24,1.02,.32-.08,2.11-.24,2.3-1.88,2.3-.64,0-.98-.06-1.19-.2-.19-.14-.28-.33-.28-.59v-3.44h-.84c-.05,1.28-.26,2.07-.73,2.79-.24,.36-.6,.72-1.05,1.04-.24,.18-.42,.28-.82,.48-.18-.37-.36-.61-.71-.94,.52-.21,.76-.35,1.1-.61,.77-.61,1.12-1.42,1.16-2.76h-.52c-.42,0-.77,.02-1.09,.06v-1.1c.27,.04,.6,.06,1.01,.06h1.78v-1.41h-1.29c-.27,.54-.47,.85-.89,1.35-.27-.32-.42-.43-.87-.71,.77-.86,1.21-1.74,1.39-2.81l1.07,.26q-.04,.12-.11,.36c-.05,.16-.12,.38-.19,.58h.89v-.47c0-.49-.02-.76-.06-1.01h1.19c-.04,.3-.06,.57-.06,1v.48h1.38Z"/>
    <path class="cls-2" d="M59.9,81.48c-.05,.37-.08,.86-.08,1.52,0,.87,.08,2.07,.19,2.68,.17,1.04,.49,1.68,.81,1.68,.15,0,.29-.15,.41-.43,.24-.54,.42-1.14,.53-1.81,.35,.4,.51,.55,1,.91-.52,1.95-1.1,2.76-1.95,2.76-.67,0-1.21-.49-1.61-1.45-.41-1-.59-2.45-.63-5.22,0-.35,0-.42-.04-.64h1.37Zm4.73,.45c1.26,1.51,1.96,3.18,2.25,5.38l-1.24,.47c-.06-.94-.29-1.98-.64-2.89-.34-.91-.82-1.72-1.42-2.46l1.05-.5Z"/>
  </g>
</svg>