<?xml version="1.0" encoding="UTF-8"?>
<svg id="_レイヤー_1" data-name="レイヤー 1" xmlns="http://www.w3.org/2000/svg" viewBox="0 0 100 100">
  <defs>
    <style>
      .cls-1 {
        fill: #fff;
      }

      .cls-2 {
        fill: #3e3a39;
      }
    </style>
  </defs>
  <g>
    <rect class="cls-1" x="14.06" y="2.5" width="71.87" height="71.87" rx="3.04" ry="3.04"/>
    <path class="cls-2" d="M82.89,5c.3,0,.55,.24,.55,.55V71.33c0,.3-.24,.55-.55,.55H17.11c-.3,0-.55-.24-.55-.55V5.55c0-.3,.24-.55,.55-.55H82.89M82.89,0H17.11C14.05,0,11.56,2.48,11.56,5.55V71.33c0,3.06,2.48,5.55,5.55,5.55H82.89c3.06,0,5.55-2.48,5.55-5.55V5.55C88.44,2.48,85.95,0,82.89,0h0Z"/>
  </g>
  <g>
    <g>
      <g>
        <path class="cls-2" d="M37.69,16.44c.33,0,.65,0,.98,.01v-1.64c0-.54-.44-.98-.98-.98-.54,0-.98,.44-.98,.98v1.64c.33,0,.65-.01,.98-.01Z"/>
        <path class="cls-2" d="M38.67,50.04h-1.96v4.48c-.78,.18-1.49,.57-2.07,1.15-.82,.82-1.26,1.9-1.26,3.05,0,2.38,1.94,4.32,4.32,4.32,1.15,0,2.24-.45,3.05-1.26,.82-.82,1.26-1.9,1.26-3.05,0-1.15-.45-2.24-1.26-3.05-.58-.58-1.29-.97-2.07-1.15v-4.48Zm1.37,8.69c0,.63-.24,1.22-.69,1.66s-1.04,.69-1.66,.69c-1.3,0-2.35-1.06-2.35-2.35,0-.63,.24-1.22,.69-1.66s1.04-.69,1.66-.69c.63,0,1.22,.24,1.66,.69s.69,1.04,.69,1.66Z"/>
      </g>
      <path class="cls-2" d="M45.93,21.52c0,.91-.73,1.49-1.64,1.34-4.37-.72-8.84-.72-13.21,0-.9,.15-1.64-.44-1.64-1.34,0-.34,0-.68,0-1.02,0-.91,.73-1.8,1.64-1.95,4.37-.72,8.84-.72,13.21,0,.9,.15,1.64,1.05,1.64,1.95,0,.34,0,.68,0,1.02Z"/>
      <path class="cls-2" d="M45.93,38.79c0,.91-.73,1.49-1.64,1.34-4.37-.72-8.84-.72-13.21,0-.9,.15-1.64-.44-1.64-1.34,0-.81,0-1.62,0-2.43,0-.91,.73-1.8,1.64-1.95,4.37-.72,8.84-.72,13.21,0,.9,.15,1.64,1.05,1.64,1.95,0,.81,0,1.62,0,2.43Z"/>
      <path class="cls-2" d="M37.69,23.39c-2.6,0-4.71,2.11-4.71,4.71,0,2.6,2.11,4.71,4.71,4.71,2.6,0,4.71-2.11,4.71-4.71,0-2.6-2.11-4.71-4.71-4.71Zm2.42,4.71c0,1.34-1.08,2.42-2.42,2.42-1.34,0-2.42-1.08-2.42-2.42,0-1.34,1.08-2.42,2.42-2.42,1.34,0,2.42,1.08,2.42,2.42Z"/>
      <rect class="cls-2" x="31.84" y="41.69" width="11.7" height="6.78" rx="2.04" ry="2.04"/>
    </g>
    <g>
      <path class="cls-2" d="M70.55,21.65c0,.9-.73,1.48-1.62,1.33-4.34-.72-8.77-.72-13.12,0-.9,.15-1.62-.43-1.62-1.33,0-.34,0-.68,0-1.01,0-.9,.73-1.79,1.62-1.94,4.34-.72,8.77-.72,13.12,0,.9,.15,1.62,1.04,1.62,1.94v1.01Z"/>
      <path class="cls-2" d="M70.55,47.75c0,.9-.73,1.48-1.62,1.33-4.34-.72-8.77-.72-13.12,0-.9,.15-1.62-.43-1.62-1.33,0-.34,0-.68,0-1.01,0-.9,.73-1.79,1.62-1.94,4.34-.72,8.77-.72,13.12,0,.9,.15,1.62,1.04,1.62,1.94v1.01Z"/>
      <path class="cls-2" d="M67.05,28.18c0,2.58-2.09,4.68-4.68,4.68s-4.68-2.09-4.68-4.68,2.09-4.68,4.68-4.68c2.58,0,4.68,2.09,4.68,4.68Z"/>
      <rect class="cls-2" x="56.57" y="34.2" width="11.61" height="8.49" rx="2.03" ry="2.03"/>
      <g>
        <path class="cls-2" d="M62.37,16.6c.39,0,.77,0,1.16,.02v-1.63c0-.64-.52-1.16-1.16-1.16s-1.16,.52-1.16,1.16v1.63c.39-.01,.77-.02,1.16-.02Z"/>
        <path class="cls-2" d="M63.53,54.26v-4.14c-.39-.01-.77-.02-1.16-.02s-.77,0-1.16,.02v4.14c-1.9,.51-3.31,2.25-3.31,4.31,0,2.46,2,4.47,4.47,4.47s4.47-2,4.47-4.47c0-2.06-1.41-3.8-3.31-4.31Zm-1.16,6.47c-1.19,0-2.15-.97-2.15-2.15s.97-2.15,2.15-2.15,2.15,.97,2.15,2.15-.97,2.15-2.15,2.15Z"/>
      </g>
    </g>
  </g>
  <g>
    <path class="cls-2" d="M16.4,88.94c-.58,0-.87,0-1.28,.03,.07-.42,.09-.71,.09-1.35v-5.43c0-.46-.03-.82-.08-1.23,.42,.02,.58,.02,1.26,.02h2.36c1.55,0,2.42,.7,2.42,1.95,0,.61-.18,1.06-.56,1.41-.22,.21-.4,.3-.79,.42,.51,.11,.74,.21,1.01,.46,.41,.38,.62,.88,.62,1.53,0,1.4-.93,2.19-2.59,2.19h-2.46Zm2.21-4.7c.76,0,1.21-.41,1.21-1.09,0-.32-.1-.59-.26-.74-.22-.2-.56-.31-.96-.31h-2.07v2.14h2.08Zm-2.08,3.57h2.15c.89,0,1.39-.44,1.39-1.25,0-.4-.1-.67-.32-.87-.25-.22-.63-.34-1.09-.34h-2.13v2.46Z"/>
    <path class="cls-2" d="M25.19,88.94c-.58,0-.87,0-1.28,.03,.07-.42,.09-.71,.09-1.35v-5.43c0-.46-.03-.82-.08-1.23,.42,.02,.58,.02,1.26,.02h2.36c1.55,0,2.42,.7,2.42,1.95,0,.61-.18,1.06-.56,1.41-.22,.21-.4,.3-.79,.42,.51,.11,.74,.21,1.01,.46,.41,.38,.62,.88,.62,1.53,0,1.4-.93,2.19-2.59,2.19h-2.46Zm2.21-4.7c.76,0,1.21-.41,1.21-1.09,0-.32-.1-.59-.26-.74-.22-.2-.56-.31-.96-.31h-2.07v2.14h2.08Zm-2.08,3.57h2.15c.89,0,1.39-.44,1.39-1.25,0-.4-.1-.67-.32-.87-.25-.22-.63-.34-1.09-.34h-2.13v2.46Z"/>
    <path class="cls-2" d="M38.96,89.65c-.2-.26-.29-.35-.95-1.01-.58,.33-1.11,.47-1.84,.47-1.06,0-1.95-.34-2.6-1-.74-.75-1.13-1.84-1.13-3.12,0-2.52,1.49-4.17,3.76-4.17s3.71,1.61,3.71,4.12c0,.69-.11,1.29-.32,1.85-.18,.45-.34,.7-.75,1.18l.28,.27c.23,.22,.42,.38,.65,.56l-.81,.85Zm-1.85-3.4c.17,.21,.37,.41,.78,.81,.44-.54,.62-1.14,.62-2.14s-.28-1.81-.8-2.33c-.4-.4-.93-.61-1.54-.61s-1.14,.21-1.55,.61c-.52,.52-.8,1.35-.8,2.38,0,1.81,.93,2.98,2.37,2.98,.34,0,.62-.06,.9-.2-.31-.3-.51-.48-.8-.7l.82-.8Z"/>
    <path class="cls-2" d="M44.38,90.58c-.56-.81-.79-1.22-1.06-1.9-.4-.97-.58-1.93-.58-2.98,0-.87,.13-1.72,.39-2.49,.27-.83,.56-1.38,1.25-2.37l1.06,.68c-.58,.84-.82,1.29-1.04,1.99-.23,.69-.34,1.42-.34,2.21s.11,1.51,.32,2.17c.22,.68,.46,1.13,1.04,1.98l-1.04,.71Z"/>
    <path class="cls-2" d="M50.45,85.6c.16-.24,.23-.36,.37-.63h-1.52c-.52,0-.85,0-1.16,.04,.03-.29,.04-.52,.04-.97v-.69c0-.46-.01-.72-.04-1.02,.32,.04,.64,.05,1.11,.05h1.09v-.63h-1.66c-.47,0-.84,.02-1.15,.05v-1.06c.3,.04,.67,.06,1.23,.06h6.36c.58,0,.97-.02,1.24-.06v1.06c-.32-.03-.68-.05-1.16-.05h-1.79v.63h1.16c.51,0,.83,0,1.12-.05-.03,.28-.04,.53-.04,1.02v.68c0,.5,0,.73,.03,.98-.25-.03-.56-.04-1.13-.04h-2.53c-.21,.37-.24,.43-.36,.63h3.53c.58,0,.88-.01,1.16-.06v1.04c-.33-.03-.67-.05-1.16-.05h-.9c-.26,.52-.53,.91-.91,1.3,1.27,.39,1.63,.52,2.74,.97l-.7,.92c-.25-.11-.45-.2-.58-.26q-.85-.39-2.38-.94c-1.17,.66-2.52,.99-4.51,1.09-.12-.41-.19-.58-.45-1.02h.22c1.38,0,2.47-.16,3.36-.49-1.16-.31-1.33-.35-2.34-.59,.45-.39,.64-.57,.99-.98h-1.07c-.49,0-.82,.02-1.15,.05v-1.04c.28,.04,.6,.06,1.15,.06h1.79Zm-1.21-2.41v.95h1.1v-.95h-1.1Zm1.74,3.34c-.15,.18-.23,.27-.48,.52q.35,.1,1.13,.28c.11,.02,.25,.06,.6,.16,.36-.26,.64-.56,.87-.96h-2.12Zm.35-4.15h1.09v-.63h-1.09v.63Zm0,1.76h1.09v-.95h-1.09v.95Zm2.08,0h1.17v-.95h-1.17v.95Z"/>
    <path class="cls-2" d="M66.84,81.51c-.67,.59-.73,.64-1.16,.95-.61,.41-1.03,.69-1.55,1.01,.22,.14,.23,.15,.47,.31l-.3,.3h1.79c.58,0,.9-.02,1.11-.05l.63,.67s-.23,.29-.65,.85c-.47,.62-.85,1.02-1.59,1.65-.32-.36-.51-.53-.88-.75,.74-.55,1-.8,1.45-1.36h-2.32v3.44c0,.82-.33,1.04-1.56,1.04-.33,0-.83,0-1.14-.03-.06-.44-.13-.71-.29-1.11,.6,.08,.95,.1,1.46,.1,.33,0,.4-.05,.4-.27v-3.17h-2.65c-.56,0-.91,.02-1.26,.06v-1.13c.32,.04,.66,.06,1.31,.06h3.09c-.85-.62-1.36-.94-2.2-1.42l.73-.68c.66,.36,.88,.5,1.47,.87,.51-.27,.72-.4,1.59-1.03h-3.9c-.64,0-.87,0-1.21,.05v-1.11c.35,.05,.65,.06,1.23,.06h4.45c.44,0,.62,0,.86-.04l.62,.73Z"/>
    <path class="cls-2" d="M69.99,86.16c-.07,1.25-.21,2.09-.49,2.96l-.89-.41c.28-.86,.41-1.55,.47-2.69l.91,.14Zm-1.33-1.51c.15,.02,.23,.03,.43,.03,.07,0,.17,0,.4,0,.34-.42,.38-.47,.58-.73-.54-.69-.64-.8-1.37-1.48l.57-.83c.14,.17,.2,.23,.3,.35,.38-.58,.73-1.26,.83-1.62l.95,.39c-.06,.09-.1,.16-.21,.36-.23,.46-.68,1.19-.93,1.53,.17,.2,.28,.32,.42,.5,.65-.94,.94-1.42,1.08-1.75l.92,.53c-.1,.11-.16,.21-.33,.46-.56,.83-1.26,1.76-1.69,2.25,.59-.03,.63-.03,1.14-.09-.09-.25-.13-.35-.29-.68l.75-.3c.26,.51,.53,1.18,.79,1.95l-.84,.35c-.05-.23-.07-.31-.11-.47-.3,.03-.53,.06-.71,.07v3.15c0,.5,.02,.77,.06,1.07h-1.1c.04-.3,.06-.57,.06-1.07v-3.06c-.43,.03-.74,.05-.94,.07-.43,.03-.46,.03-.65,.06l-.11-1.03Zm3.87,1.31c.21,.88,.37,1.71,.48,2.55l-.91,.22c-.07-.77-.21-1.78-.38-2.57l.81-.2Zm1.67-3.04c-.36,.72-.53,1-1,1.58-.2-.31-.43-.54-.8-.81,.5-.57,.92-1.28,1.18-1.99,.19-.5,.31-.93,.36-1.26l1.12,.2q-.05,.13-.13,.41c-.13,.41-.17,.53-.29,.84h2.18c.42,0,.6-.01,.82-.04q-.04,.32-.05,1.74c-.01,1.14-.12,2.88-.23,3.7-.16,1.15-.34,1.7-.67,1.96-.23,.18-.63,.26-1.28,.26-.26,0-.57,0-.93-.04-.05-.44-.12-.69-.28-1.12,.51,.09,.96,.13,1.31,.13,.45,0,.56-.12,.68-.74,.2-.97,.32-2.74,.32-4.82h-2.31Zm.46,4.18c-.42-1.22-.62-1.67-1.14-2.54l.87-.48c.59,.94,.85,1.48,1.23,2.51l-.96,.51Z"/>
    <path class="cls-2" d="M82.2,89.87c.58-.85,.82-1.3,1.04-1.98,.21-.67,.32-1.38,.32-2.17s-.11-1.52-.34-2.21c-.22-.7-.46-1.15-1.04-1.99l1.06-.68c.69,.99,.98,1.54,1.26,2.37,.25,.78,.38,1.61,.38,2.49,0,1.06-.18,2.01-.57,2.98-.28,.68-.51,1.09-1.07,1.9l-1.04-.71Z"/>
  </g>
</svg>