<?xml version="1.0" encoding="UTF-8"?>
<svg id="_レイヤー_1" data-name="レイヤー 1" xmlns="http://www.w3.org/2000/svg" viewBox="0 0 100 100">
  <defs>
    <style>
      .cls-1 {
        fill: #fff;
      }

      .cls-2 {
        fill: #3e3a39;
      }

      .cls-3 {
        fill: #1a1a1a;
      }
    </style>
  </defs>
  <g>
    <path class="cls-1" d="M17.11,2.5H82.89c1.68,0,3.05,1.36,3.05,3.05V71.33c0,1.68-1.36,3.05-3.05,3.05H17.11c-1.68,0-3.04-1.36-3.04-3.04V5.54c0-1.68,1.36-3.04,3.04-3.04Z"/>
    <path class="cls-2" d="M82.89,5c.3,0,.55,.24,.55,.55V71.33c0,.3-.24,.55-.55,.55H17.11c-.3,0-.55-.24-.55-.55V5.55c0-.3,.24-.55,.55-.55H82.89M82.89,0H17.11C14.05,0,11.56,2.48,11.56,5.55V71.33c0,3.06,2.48,5.55,5.55,5.55H82.89c3.06,0,5.55-2.48,5.55-5.55V5.55C88.44,2.48,85.95,0,82.89,0h0Z"/>
  </g>
  <g>
    <path class="cls-3" d="M36.89,44.08h3.35v-5.52c0-.24,.2-.44,.44-.44h3.19c.24,0,.44,.2,.44,.44v5.52h3.64v-5.52c0-.24,.2-.44,.44-.44h3.19c.24,0,.44,.2,.44,.44v5.52h3.64v-5.52c0-.24,.2-.44,.44-.44h3.19c.24,0,.44,.2,.44,.44v5.52h3.35v-9.01h-26.22v9.01Z"/>
    <path class="cls-3" d="M66.93,12.43H33.07c-1.26,0-2.29,1.03-2.29,2.29V60.73c0,1.26,1.03,2.29,2.29,2.29h1v1.43h5.09v-1.43h21.69v1.43h5.09v-1.43h1c1.26,0,2.29-1.03,2.29-2.29V14.72c0-1.26-1.03-2.29-2.29-2.29Zm-31.6,4.49h29.33v12.11h-29.33v-12.11Zm0,16.6h29.33v12.11h-29.33v-12.11Zm4.02,16.72h1.48l-5.5,5.5v-1.48l4.02-4.02Zm-4.02,1.96v-1.96h1.96l-1.96,1.96Zm21.03,5.5h-19.62l7.45-7.45h12.16v7.45Zm2.66-7.45h5.63v4.79h-5.63v-4.79Z"/>
    <path class="cls-3" d="M36.89,27.48h3.35v-5.52c0-.24,.2-.44,.44-.44h3.19c.24,0,.44,.2,.44,.44v5.52h3.64v-5.52c0-.24,.2-.44,.44-.44h3.19c.24,0,.44,.2,.44,.44v5.52h3.64v-5.52c0-.24,.2-.44,.44-.44h3.19c.24,0,.44,.2,.44,.44v5.52h3.35v-9h-26.22v9Z"/>
  </g>
  <g>
    <path class="cls-2" d="M28.14,85.4c.17-.39,.3-.79,.35-1.12l1.6,.11q-.06,.15-.29,.71c-.04,.09-.07,.16-.13,.3h2.04c.55,0,.8,0,1.13-.04-.04,.3-.04,.53-.04,1.09v5.29c0,.48,0,.73,.05,1.05h-1.47v-.39h-4.1v.39h-1.44c.04-.29,.05-.58,.05-1.04v-5.29c0-.54,0-.77-.04-1.09,.33,.03,.59,.04,1.13,.04h1.15Zm-.85,1.93h4.11v-.67h-4.11v.67Zm0,1.89h4.11v-.65h-4.11v.65Zm0,1.92h4.11v-.67h-4.11v.67Z"/>
    <path class="cls-2" d="M42.71,86.08c.41,0,.63,0,.88-.04q-.04,.4-.05,1.78c-.04,2.67-.16,4-.42,4.45-.23,.4-.56,.5-1.61,.5-.06,0-.16,0-.28,0-.02-.42-.06-.66-.15-1-.22,.45-.35,.67-.72,1.18-.19-.25-.26-.33-.48-.56-1.82,.18-2.08,.2-3.86,.32-.16,0-.33,.03-.59,.05l-.2-1.26c.2,.02,.32,.02,.75,.02,.37,0,.62,0,1.2-.02v-.34h-.86c-.31,0-.58,0-.87,.03v-1.01c.26,.03,.45,.04,.88,.04h.86v-.27h-.72c-.44,0-.64,0-.92,.02,.03-.23,.04-.44,.04-.86v-1.19c0-.4,0-.58-.04-.84,.27,.02,.5,.03,.92,.03h.72v-.26h-1c-.39,0-.61,0-.87,.04v-1.06c.27,.03,.47,.04,.87,.04h1v-.26c-.67,.03-1.16,.04-1.45,.04-.12-.36-.21-.58-.41-.95,1.99-.02,3.55-.15,4.09-.37l.68,1.02s-.06,0-.13,.02h-.14q-.11,.02-.28,.04c-.3,.04-.41,.05-1.19,.12v.33h.86c.45,0,.64,0,.86-.04v.24c.13,.02,.24,.03,.48,.03h.12v-.85c0-.42,0-.61-.05-.82h1.43q-.05,.25-.06,1.67h.74Zm-6.02,1.78v.31h.48v-.31h-.48Zm0,.99v.32h.48v-.32h-.48Zm3.22,2.19c.44-.83,.63-1.81,.72-3.68-.25,0-.36,0-.57,.03v-.52c-.14-.03-.21-.03-.57-.03h-1.16v.26h.88c.42,0,.53,0,.72-.02-.03,.2-.03,.33-.03,.78v1.3c0,.33,0,.57,.02,.78-.22,0-.32,0-.78,0h-.81v.27h.7c.46,0,.63,0,.87-.03v.86Zm-1.58-2.87h.48v-.31h-.48v.31Zm0,1.01h.48v-.32h-.48v.32Zm0,2.28q.65-.03,1.37-.08c.05-.09,.07-.11,.13-.2-.12-.02-.23-.03-.43-.03h-1.06v.31Zm3.6-4.1c-.07,1.82-.29,3.03-.73,4.09,.17,.03,.32,.04,.4,.04,.37,0,.44-.11,.53-.79,.09-.66,.13-1.23,.19-3.33h-.39Z"/>
    <path class="cls-2" d="M53.64,87.36q-.04,.14-.11,.41s0,.03-.18,.71c-.24,.97-.38,1.32-.77,2.06,.42,.4,.79,.64,1.38,.91-.32,.51-.49,.85-.69,1.39-.66-.41-1-.67-1.45-1.14-.42,.5-.75,.8-1.35,1.25-.24-.41-.43-.68-.7-.95-.13,.31-.22,.48-.48,.89-.26-.31-.44-.47-.77-.72-.3,.2-.43,.29-.7,.51-.31-.54-.46-.87-.68-1.44-.25,.69-.42,1.02-.86,1.66-.36-.35-.62-.55-1.06-.82,.44-.52,.68-.93,.9-1.48-.28,0-.33,0-.5,.02,.03-.39,.04-.68,.04-.98v-4.24c0-.3,0-.55-.04-.81,.3,.03,.5,.04,.79,.04h1.6c.31,0,.49,0,.73-.04-.02,.21-.03,.38-.03,.71v4.57c0,.41,0,.56,.02,.75-.17-.02-.24-.02-.55-.02,.11,.27,.22,.51,.34,.75,.21-.41,.35-.87,.44-1.4,.1-.66,.1-.67,.16-2.77,0-.14,0-1.05,0-1.49,0-.47,0-.73-.04-1.1,.36,.04,.65,.05,1.09,.05h2.48c.48,0,.78-.02,1.12-.06v1.39c-.34-.04-.66-.04-1.11-.04h-2.21v.8h1.89c.38,0,.54,0,.72-.04l.58,.67Zm-5.83,3.23h-1.4l.71,.41,.68-.41Zm-.92-4.27h.6v-.51h-.6v.51Zm0,1.52h.6v-.51h-.6v.51Zm0,1.56h.6v-.53h-.6v.53Zm3.03,2.17c.41-.31,.75-.61,1.05-.96-.24-.41-.38-.69-.6-1.32-.12,1.12-.22,1.66-.45,2.29Zm1.2-3.64c.13,.59,.28,.97,.58,1.49,.2-.48,.3-.81,.42-1.49h-1Z"/>
    <path class="cls-2" d="M59.33,89.34c-.02,.12-.03,.15-.05,.41-.11,.96-.44,1.67-1.04,2.2-.48,.41-.97,.65-1.96,.94-.26-.55-.43-.83-.8-1.29,.58-.09,.88-.17,1.26-.35,.6-.27,.92-.6,1.09-1.14,.05-.2,.09-.41,.09-.59,0-.06,0-.18-.02-.24l1.44,.08Zm-3.72,.67c.04-.23,.04-.43,.04-.68v-.75c0-.29,0-.49-.04-.7,.28,.03,.53,.04,1.02,.04h6.09c.5,0,.72,0,1.04-.04-.03,.2-.04,.35-.04,.66v.77c0,.28,0,.48,.04,.69h-1.41v-.94h-5.37v.94h-1.39Zm3.35-5.09c0-.27,0-.4-.04-.58h1.48c-.04,.16-.04,.3-.04,.58v.04h2.21c.51,0,.89-.02,1.15-.05v1.25c-.32-.04-.59-.04-1.12-.04h-2.24v.36h1.94c.42,0,.66,0,.89-.04v1.19c-.25-.03-.46-.04-.89-.04h-5.2c-.4,0-.63,0-.88,.04v-1.19c.23,.03,.47,.04,.88,.04h1.87v-.36h-2.15c-.51,0-.82,0-1.13,.04v-1.25c.26,.04,.65,.05,1.16,.05h2.12v-.04Zm2.28,6.29c0,.22,.06,.24,.54,.24,.41,0,.56-.03,.61-.13,.05-.08,.09-.41,.12-1.04,.46,.19,.81,.29,1.31,.35-.06,1.05-.16,1.49-.4,1.74-.22,.23-.64,.31-1.89,.31-1.37,0-1.63-.13-1.63-.87v-1.74c0-.36,0-.56-.04-.77h1.41c-.03,.2-.04,.37-.04,.7v1.21Z"/>
    <path class="cls-2" d="M69.82,89.76c.25,.29,.47,.45,.91,.67-.23,.35-.32,.51-.54,1.04-.22-.12-.41-.29-.59-.5-.22,.73-.52,1.25-1.05,1.81-.28-.35-.43-.5-.88-.85q0,.68,.04,.93h-1.3c.03-.28,.05-.67,.05-1.16v-1.04c0-.16,0-.58,.04-1.05-.16,.58-.33,.98-.54,1.31-.17-.59-.31-.96-.52-1.42,.47-.67,.79-1.48,.95-2.38h-.15c-.2,0-.43,.02-.58,.04v-1.3c.15,.04,.27,.04,.58,.04h.22v-.62c0-.38-.02-.66-.04-.94h1.31c-.04,.21-.04,.44-.04,.94v.62h.12c.08,0,.13,0,.26,0-.06-.06-.09-.08-.16-.15l.7-.72,.15,.15c.22-.31,.35-.56,.49-.88l.93,.48q-.36,.61-.75,1.13s.08,.09,.15,.19c.25-.33,.3-.41,.48-.72l.41,.26q-.04-1.04-.08-1.28h1.31c-.03,.16-.04,.34-.04,.53v.35l.15-.19,.14,.13c.2-.24,.38-.55,.5-.86l.93,.51c-.27,.41-.43,.62-.77,1.02,.07,.08,.13,.14,.16,.19,.21-.26,.29-.38,.5-.7l.77,.51c-.68,.8-.86,.99-1.36,1.44,.28,0,.4,0,.58-.02-.04-.15-.06-.2-.13-.37l.67-.17c.15,.43,.23,.67,.38,1.42l-.72,.21c-.03-.16-.04-.21-.05-.32-.19,.02-.2,.02-.33,.04,.11,.18,.14,.26,.22,.43,.4,0,.53,0,.74-.04v1.25c-.25-.03-.66-.04-.94-.04h-.27l.8,.41c-.15,.21-.2,.28-.32,.42,.27,.32,.54,.52,.85,.66-.09,.65-.19,1.01-.36,1.29-.13,.2-.25,.3-.43,.34-.07,.02-.16,.04-.19,.04-.18-.02-.28-.03-.3-.03-.31-.06-.68-.36-1.1-.88-.57,.41-1.03,.65-1.76,.94-.2-.45-.33-.68-.68-1.11,.74-.16,1.2-.34,1.87-.77-.17-.39-.3-.77-.41-1.31h-.95v.09Zm-2.16,2.12c.66-.6,.94-1.21,1.02-2.21q-.33,.02-.45,.03v-1.05c-.08,.2-.12,.3-.24,.62-.15-.22-.21-.32-.36-.67,0,.06,.02,.35,.03,.86v2.23s0,.18,0,.18Zm.52-4.49c.08,0,.13,0,.18,0h.08q.3-.32,.45-.49c-.36-.45-.45-.56-.66-.78v1.03s-.07,0-.09,0c-.1-.02-.25-.03-.35-.03h-.1c.13,.32,.27,.55,.56,.87l-.07-.6Zm2.04,.95c0-.07-.02-.14-.03-.23-.31,.05-.51,.08-.73,.1-.33,.04-.7,.08-1.1,.13-.03,.05-.04,.08-.07,.15,.15,.03,.24,.03,.58,.03h1.72c0-.13,0-.14-.03-.28l-.35,.11Zm.26-1.49c0-.16,0-.29-.02-.55-.04,.04-.05,.07-.07,.09-.18,.24-.55,.65-.87,.97,.21,0,.25-.02,.56-.05-.03-.13-.04-.17-.07-.33l.48-.13Zm1.64-.08c-.21-.25-.25-.31-.48-.55,0,.4,0,.58,.04,.99,.27-.26,.32-.31,.44-.44Zm.24,1.74c-.08-.19-.11-.24-.17-.36-.14,0-.17,.02-.44,.03,.02,.18,.03,.29,.04,.33h.58Zm-.38,1.16c.06,.25,.09,.35,.17,.57,.21-.22,.32-.38,.43-.57h-.6Zm.68,1.5c.18,.22,.27,.3,.33,.3,.13,0,.19-.21,.26-.94-.21,.25-.36,.41-.59,.64Z"/>
  </g>
</svg>