<?xml version="1.0" encoding="UTF-8"?>
<svg id="_レイヤー_1" data-name="レイヤー 1" xmlns="http://www.w3.org/2000/svg" viewBox="0 0 100 100">
  <defs>
    <style>
      .cls-1 {
        fill: #fff;
      }

      .cls-2 {
        fill: #3e3a39;
      }

      .cls-3 {
        fill: #1a1a1a;
      }

      .cls-4 {
        fill: #3d3939;
      }
    </style>
  </defs>
  <g>
    <path class="cls-1" d="M17.11,2.5H82.89c1.68,0,3.05,1.36,3.05,3.05V71.33c0,1.68-1.36,3.05-3.05,3.05H17.11c-1.68,0-3.04-1.36-3.04-3.04V5.54c0-1.68,1.36-3.04,3.04-3.04Z"/>
    <path class="cls-2" d="M82.89,5c.3,0,.55,.24,.55,.55V71.33c0,.3-.24,.55-.55,.55H17.11c-.3,0-.55-.24-.55-.55V5.55c0-.3,.24-.55,.55-.55H82.89M82.89,0H17.11C14.05,0,11.56,2.48,11.56,5.55V71.33c0,3.06,2.48,5.55,5.55,5.55H82.89c3.06,0,5.55-2.48,5.55-5.55V5.55C88.44,2.48,85.95,0,82.89,0h0Z"/>
  </g>
  <g>
    <path class="cls-3" d="M63.46,20.65l-9.35-3.34c.22,.61,.34,1.27,.34,1.95,0,.88-.2,1.72-.55,2.47l3.15,1.31-4.29,2.12h-7.88s-4.18-2.12-4.18-2.12l2.78-1.16c-.4-.79-.63-1.68-.63-2.62,0-.62,.1-1.21,.28-1.77l-8.85,3.16c-.43,.15-.82,.43-1.1,.83-.74,1.04-.5,2.47,.54,3.21l8.47,6.03s.58,10.67,.59,10.8l.78,24.81c.04,1.15,.97,2.1,2.14,2.14,1.22,.04,2.24-.92,2.28-2.14l.68-21.57,.68,21.57c.04,1.15,.97,2.1,2.14,2.14,1.22,.04,2.24-.92,2.28-2.14l.78-24.81c0-.06,.57-10.48,.57-10.48l8.93-6.36c.37-.26,.67-.64,.83-1.1,.43-1.2-.2-2.51-1.39-2.94Z"/>
    <circle class="cls-3" cx="48.65" cy="19.26" r="4.46"/>
    <g>
      <path class="cls-3" d="M34.59,36.16s-.09-.02-.13,.01l-1.32,1.19-.8-1.17s-.05-.05-.08-.05c-.03,0-.07,.01-.09,.04l-1.06,1.19-1.06-1.19s-.06-.04-.09-.04c-.03,0-.06,.02-.08,.05l-.8,1.17-1.32-1.19s-.09-.04-.13-.01c-.04,.02-.06,.07-.05,.12l.75,3.52c.01,.05,.06,.09,.11,.09h5.35c.05,0,.1-.04,.11-.09l.75-3.52s-.01-.09-.05-.12Z"/>
      <path class="cls-3" d="M75.38,23.12s-.1-.02-.14,.02l-1.43,1.3-.87-1.28s-.05-.05-.09-.05c-.04,0-.07,.01-.1,.04l-1.15,1.29-1.15-1.29s-.06-.04-.1-.04c-.04,0-.07,.02-.09,.05l-.87,1.28-1.43-1.3s-.09-.04-.14-.02c-.04,.03-.07,.08-.06,.13l.82,3.83c.01,.05,.06,.09,.12,.09h5.82c.06,0,.1-.04,.12-.09l.82-3.83c.01-.05-.01-.1-.06-.13Z"/>
      <path class="cls-3" d="M29.35,11.17l.57-2.67s0-.07-.04-.09-.07-.01-.1,.01l-1,.91-.61-.89s-.04-.03-.06-.04c-.03,0-.05,0-.07,.03l-.8,.9-.8-.9s-.04-.03-.07-.03c-.03,0-.05,.01-.06,.04l-.61,.89-1-.91s-.07-.03-.1-.01c-.03,.02-.05,.05-.04,.09l.57,2.67s.04,.07,.08,.07h4.06s.07-.03,.08-.07Z"/>
      <path class="cls-3" d="M68.89,46.09s-.08-.02-.11,.01l-1.17,1.06-.71-1.04s-.04-.04-.07-.04c-.03,0-.06,.01-.08,.03l-.94,1.05-.94-1.05s-.05-.03-.08-.03c-.03,0-.06,.02-.07,.04l-.71,1.04-1.17-1.06s-.08-.03-.11-.01c-.04,.02-.06,.06-.05,.1l.67,3.12s.05,.08,.09,.08h4.74s.09-.03,.09-.08l.67-3.12s0-.08-.05-.1Z"/>
    </g>
  </g>
  <g>
    <path class="cls-4" d="M29.51,83.33c0-.22-.02-.42-.05-.6h1.09c-.04,.17-.05,.34-.05,.59v.55h1.87c.42,0,.61,0,.81-.04l.65,.77c-.08,.07-.08,.08-.27,.27-1.18,1.21-2.76,2.34-4.28,3.07,.56,.33,1.25,.45,2.67,.45,.95,0,2-.06,2.82-.17-.18,.38-.26,.65-.36,1.21-.62,.03-1.46,.05-1.96,.05-1.72,0-2.7-.13-3.38-.45-.35-.17-.63-.4-.89-.72-.24-.3-.35-.51-.5-.93-.18,.48-.39,.86-.81,1.48-.08,.13-.1,.15-.2,.28-.05,.08-.12,.17-.18,.26-.04,.07-.06,.09-.13,.19l-.83-1.03c.5-.38,.84-.78,1.21-1.41,.26-.44,.36-.69,.4-1.02h1.05c.01,.3,.14,.68,.35,1.06,1.29-.59,2.53-1.43,3.41-2.31h-4.42c-.43,0-.81,.02-1.16,.06v-1.13c.4,.04,.76,.06,1.17,.06h1.97v-.54Zm-1.64-2.27c0-.21,0-.39-.05-.59h1.15c-.04,.19-.05,.38-.05,.59v.33h2.22v-.33c0-.2-.02-.41-.05-.59h1.15c-.04,.19-.05,.38-.05,.59v.33h1.18c.52,0,.87-.02,1.16-.06v1.12c-.31-.04-.61-.05-1.16-.05h-1.18v.38c0,.19,0,.32,.04,.54h-1.12c.02-.17,.03-.32,.03-.53v-.39h-2.22v.37c0,.26,0,.37,.03,.55h-1.12c.03-.19,.04-.36,.04-.54v-.38h-1.15c-.55,0-.85,0-1.16,.05v-1.12c.3,.04,.66,.06,1.16,.06h1.15v-.33Z"/>
    <path class="cls-4" d="M37.61,83.38c-.41,.86-.81,1.46-1.36,2.1-.26-.38-.49-.62-.82-.85,.75-.76,1.35-1.81,1.69-2.92,.13-.43,.18-.64,.22-.93l1.14,.28q-.02,.08-.09,.26c-.03,.07-.03,.08-.1,.33-.05,.15-.14,.4-.27,.75h1.63v-.76c0-.52-.02-.83-.07-1.2h1.28c-.04,.33-.06,.66-.06,1.19v.77h2.08c.51,0,.94-.02,1.35-.06v1.1c-.43-.04-.84-.06-1.32-.06h-2.11v1.84h1.73c.5,0,.9-.02,1.23-.06v1.1c-.36-.04-.76-.06-1.23-.06h-1.73v2.12h2.4c.57,0,.99-.02,1.39-.07v1.14c-.47-.05-.83-.07-1.36-.07h-6.12c-.52,0-.95,.02-1.42,.07v-1.14c.43,.05,.86,.07,1.39,.07h2.57v-2.12h-1.54c-.47,0-.87,.02-1.21,.06v-1.1c.32,.04,.65,.06,1.2,.06h1.55v-1.84h-2.04Z"/>
    <path class="cls-4" d="M50.66,87.07h2.42c.7,0,.91,0,1.3-.07v1.26c-.36-.04-.62-.05-1.28-.05h-6c-.66,0-.92,0-1.28,.05v-1.26c.39,.06,.6,.07,1.3,.07h2.26v-4.11h-1.53c-.66,0-.92,0-1.28,.05v-1.25c.38,.06,.62,.07,1.3,.07h4.45c.68,0,.92,0,1.3-.07v1.25c-.36-.04-.61-.05-1.28-.05h-1.68v4.11Z"/>
    <path class="cls-4" d="M58.5,80.95c-.04,.28-.04,.37-.04,.9v2.76c0,.5,0,.63,.04,.88h-1.37c.03-.23,.05-.54,.05-.9v-2.75c0-.51,0-.64-.04-.9h1.36Zm4.54,.02c-.04,.25-.05,.36-.05,.93v1.35c0,1.56-.08,2.4-.26,3.03-.29,1-.93,1.75-1.97,2.33-.53,.3-1.03,.5-1.95,.77-.18-.49-.28-.66-.7-1.19,.98-.19,1.56-.4,2.16-.8,.94-.62,1.27-1.23,1.38-2.55,.04-.43,.05-.87,.05-1.67v-1.25c0-.51-.01-.72-.05-.95h1.39Z"/>
    <path class="cls-4" d="M70.4,83.2c-.03,.19-.03,.2-.04,.81-.04,1.71-.31,2.67-.99,3.54-.6,.77-1.33,1.28-2.58,1.8-.26-.54-.39-.72-.79-1.14,.81-.24,1.26-.46,1.75-.85,1.02-.81,1.34-1.67,1.34-3.56,0-.3-.01-.39-.05-.6h1.36Zm4.06-1.26c-.14,.17-.14,.18-.4,.7-.35,.74-.93,1.49-1.54,2.01-.4,.35-.73,.57-1.2,.83-.3-.42-.45-.57-.9-.91,.67-.3,1.05-.53,1.46-.92,.41-.38,.72-.79,.95-1.27h-5.25c-.7,0-.95,0-1.36,.06v-1.25c.38,.06,.69,.08,1.38,.08h5.22c.6,0,.69,0,.97-.09l.67,.76Z"/>
  </g>
</svg>