<?xml version="1.0" encoding="UTF-8"?>
<svg id="_レイヤー_1" data-name="レイヤー 1" xmlns="http://www.w3.org/2000/svg" viewBox="0 0 100 100">
  <defs>
    <style>
      .cls-1 {
        fill: #fff;
      }

      .cls-2 {
        fill: #3e3a39;
      }

      .cls-3 {
        fill: none;
        stroke: #1a1a1a;
        stroke-miterlimit: 10;
        stroke-width: 2.56px;
      }
    </style>
  </defs>
  <g>
    <path class="cls-2" d="M12.05,90.27c.84,0,1.05,0,1.47-.07v1.58c-.41-.04-.72-.04-1.45-.04H6.92c-.61,0-1.02,.02-1.4,.04v-1.58c.4,.06,.62,.07,1.43,.07h2.79c.24-1.22,.36-2.09,.48-3.38h-2.23c-.68,0-.91,0-1.37,.06v-1.59c.39,.06,.68,.08,1.36,.08h2.69c.37,0,.5-.02,.68-.11l.78,.64c-.12,.19-.16,.35-.22,.79-.2,1.58-.29,2.21-.5,3.51h.63Z"/>
    <path class="cls-2" d="M14.64,89.98c.54,.06,.67,.07,1.5,.07h4.65c.9,0,1.18,0,1.59-.07v1.68c-.4-.04-.62-.04-1.57-.04h-4.71c-.8,0-1.12,0-1.48,.04v-1.68Zm.91-4.47c.42,.05,.68,.06,1.4,.06h3.05c.79,0,1.11-.02,1.5-.06v1.65c-.51-.04-.75-.04-1.48-.04h-3.09c-.67,0-1.07,.02-1.39,.04v-1.65Z"/>
    <path class="cls-2" d="M26.97,85.46c-.02,.06-.03,.13-.03,.14,0,.03-.03,.12-.04,.25l-.03,.18-.04,.21c-.36,2.75-1.04,4.63-2.23,6.09-.4-.4-.97-.82-1.47-1.07,1.22-1.24,2.07-3.7,2.12-6.1l1.71,.31Zm2.63-.32v.04c0,.33,.17,1.37,.32,1.95,.45,1.74,1.02,2.91,1.97,4.06-.59,.36-1,.68-1.42,1.13-1.2-1.57-1.98-3.66-2.32-6.18,0-.09-.02-.15-.02-.17l-.06-.34v-.09s-.03-.05-.05-.11l1.58-.3Zm.8-.46c.23,.42,.41,.88,.58,1.45l-.71,.23c-.13-.5-.32-1.03-.54-1.49l.67-.19Zm.95,1.34c-.13-.48-.32-.96-.56-1.41l.67-.21c.26,.46,.44,.89,.57,1.37l-.68,.25Z"/>
    <path class="cls-2" d="M32.53,87.7c.42,.06,.91,.08,1.85,.08h4.3c.9,0,1.24-.02,1.85-.08v1.74c-.43-.04-.83-.05-1.86-.05h-4.29c-1.01,0-1.3,0-1.85,.05v-1.74Z"/>
    <path class="cls-2" d="M46.48,86.29v-.59c0-.51,0-.78-.05-1.01h1.62q-.04,.27-.04,1.6h.35c.68,0,.93,0,1.3-.06v1.54c-.43-.04-.68-.04-1.27-.04h-.4c-.02,.71-.03,.91-.06,1.25-.13,1.22-.54,2.04-1.33,2.72-.49,.42-.95,.67-1.86,1.02-.29-.59-.5-.88-.98-1.38,.87-.26,1.33-.47,1.74-.79,.61-.49,.87-1.07,.94-2.08,0-.16,0-.22,.02-.74h-1.9v1.01c0,.44,0,.68,.04,.93h-1.65c.04-.25,.05-.55,.05-.95v-.99h-.33c-.65,0-.77,0-1.27,.04v-1.54c.41,.05,.58,.06,1.3,.06h.31v-.66c0-.42,0-.62-.05-.95h1.65c-.04,.36-.04,.39-.04,.92v.69h1.93Z"/>
    <path class="cls-2" d="M53.5,84.9q-.04,.31-.1,2.09c-.05,1.88-.23,2.88-.67,3.86-.3,.67-.64,1.15-1.25,1.8-.46-.6-.71-.86-1.29-1.26,.51-.46,.79-.84,1.07-1.43,.42-.88,.57-2,.57-4.33,0-.4,0-.59-.04-.83l1.7,.1Zm2.55-.14c-.05,.37-.06,.51-.07,1.04l-.05,4.72c.49-.31,.77-.57,1.08-.99,.32-.46,.54-.93,.7-1.54,.45,.56,.68,.79,1.2,1.19-.41,1.01-.87,1.7-1.56,2.29-.54,.46-.98,.69-1.89,1.03-.25,.09-.32,.12-.44,.19l-.77-.81c.08-.23,.1-.39,.1-.76l.04-5.33v-.32c0-.29,0-.49-.04-.7h1.69Z"/>
    <path class="cls-2" d="M64.47,88.59c-.06,1.03-.24,1.66-.65,2.32-.47,.78-1.21,1.35-2.41,1.83-.31-.61-.55-.95-1.05-1.42,1.62-.47,2.35-1.29,2.43-2.73h-1.84c-.83,0-1.03,0-1.36,.04v-1.51c.35,.05,.59,.07,1.39,.07h5.01c.83,0,1.06,0,1.43-.06v1.5c-.53-.04-.59-.04-1.4-.04h-1.54Zm-.2-3.71c.67,0,.98-.02,1.33-.05-.03-.05-.04-.06-.07-.13l.73-.23c.23,.34,.45,.82,.66,1.44l-.77,.28c-.16-.56-.34-1-.52-1.33v1.48c-.27-.03-.32-.03-1.32-.04h-2.39c-.77,0-1.01,0-1.4,.04v-1.52c.37,.06,.58,.07,1.43,.07h2.34Zm3.03,.91c-.18-.57-.37-1-.63-1.43l.7-.24c.29,.49,.46,.86,.63,1.4l-.7,.28Z"/>
    <path class="cls-2" d="M74.79,84.75c-.03-.05-.05-.1-.12-.21l.68-.2c.26,.46,.45,.91,.6,1.43l-.71,.24c-.1-.36-.25-.8-.35-1.04,0,.13,0,.16,0,.29,0,.19,0,.53,0,1.03h.36c.75,0,.96-.02,1.3-.06v1.53c-.4-.04-.67-.04-1.27-.04h-.41c-.02,1.4-.13,2.12-.44,2.75-.52,1.07-1.38,1.75-2.81,2.25-.26-.55-.53-.93-.98-1.38,1.34-.37,2.05-.86,2.43-1.67,.21-.49,.27-.95,.28-1.94h-1.91v1.02c0,.56,0,.69,.04,.93h-1.64c.04-.22,.04-.44,.05-.95v-1h-.34c-.65,0-.77,0-1.27,.04v-1.53c.38,.05,.58,.06,1.3,.06h.31v-.67c0-.43,0-.65-.05-.95h1.64c-.04,.36-.04,.41-.04,.92v.69h1.93c0-.2,0-.38,0-.44v-.19c0-.43,0-.68-.04-.92h1.47Zm1.56,.95c-.18-.58-.33-.96-.58-1.4l.66-.21c.23,.32,.41,.71,.59,1.36l-.67,.24Z"/>
    <path class="cls-2" d="M85.22,85.51c-.2,.17-.21,.18-.35,.33-.71,.73-1.35,1.29-2.08,1.81v3.47c0,.74,0,.97,.05,1.46h-1.75c.04-.48,.05-.67,.05-1.45v-2.49c-.94,.55-1.66,.87-2.94,1.33-.24-.6-.42-.9-.86-1.45,1.95-.55,3.33-1.22,4.78-2.34,.77-.59,1.38-1.2,1.64-1.65l1.46,.97Z"/>
    <path class="cls-2" d="M87.88,85.03c1.13,.67,1.72,1.08,2.48,1.76l-1.06,1.4c-.78-.82-1.55-1.41-2.45-1.9l1.04-1.27Zm-.95,5.59c.92-.07,1.86-.3,2.71-.65,1.13-.47,1.94-1.14,2.64-2.22,.38-.58,.62-1.07,.88-1.76,.44,.53,.65,.71,1.32,1.21-.82,1.77-1.67,2.84-2.94,3.65-.97,.63-1.83,.96-3.5,1.35-.35,.08-.41,.09-.65,.16l-.47-1.73Z"/>
  </g>
  <g>
    <path class="cls-1" d="M17.11,2.5H82.89c1.68,0,3.05,1.36,3.05,3.05V71.33c0,1.68-1.36,3.05-3.05,3.05H17.11c-1.68,0-3.04-1.36-3.04-3.04V5.54c0-1.68,1.36-3.04,3.04-3.04Z"/>
    <path class="cls-2" d="M82.89,5c.3,0,.55,.24,.55,.55V71.33c0,.3-.24,.55-.55,.55H17.11c-.3,0-.55-.24-.55-.55V5.55c0-.3,.24-.55,.55-.55H82.89M82.89,0H17.11C14.05,0,11.56,2.48,11.56,5.55V71.33c0,3.06,2.48,5.55,5.55,5.55H82.89c3.06,0,5.55-2.48,5.55-5.55V5.55C88.44,2.48,85.95,0,82.89,0h0Z"/>
  </g>
  <path class="cls-3" d="M77.93,24.09c-2.08-5.47-6.97-8.97-12.78-9.14-.17,0-.34,0-.51,0-6.01,0-11.5,3.07-14.65,8.1-3.15-5.03-8.63-8.1-14.65-8.1-.17,0-.34,0-.51,0-5.8,.17-10.7,3.67-12.78,9.14-2.11,5.57-.75,11.55,3.57,15.61l23.09,21.72c.36,.34,.81,.5,1.27,.5s.91-.17,1.27-.5l23.09-21.72c4.32-4.06,5.68-10.04,3.57-15.61Zm-27.8,36.13c-.08,.07-.19,.07-.27,0l-23.09-21.72c-3.82-3.59-5.03-8.89-3.16-13.81,1.83-4.83,6.15-7.92,11.27-8.07,.15,0,.31,0,.46,0,5.72,0,10.92,3.08,13.67,8.06l-4.68,6.71c-.88,1.32-.59,3.13,.66,4.11l1.88,1.47c1.2,.94,2.94,.85,4.03-.22l3.68-3.61,11.76,11.83-3.82,3.6-5.76-5.63c-.33-.32-.85-.31-1.17,.01-.32,.33-.31,.85,.01,1.17l5.71,5.58-3.27,3.07-5.78-5.64c-.33-.32-.85-.31-1.17,.01-.32,.33-.31,.85,.01,1.17l5.73,5.6-2.92,2.74-5.81-5.67c-.33-.32-.85-.31-1.17,.01-.32,.33-.31,.85,.01,1.17l5.76,5.62-2.59,2.44Zm23.09-21.72l-5.66,5.32-12.38-12.45c-.32-.32-.84-.33-1.17,0l-4.27,4.19c-.5,.49-1.29,.53-1.85,.1l-1.88-1.47c-.57-.45-.71-1.27-.31-1.87l4.97-7.13s.01-.03,.02-.04c0-.02,.02-.03,.03-.05,2.69-5.24,8.02-8.5,13.91-8.5,.15,0,.31,0,.46,0,5.12,.15,9.44,3.24,11.27,8.07,1.87,4.93,.66,10.22-3.16,13.81Z"/>
</svg>