<?xml version="1.0" encoding="UTF-8"?>
<svg id="_レイヤー_1" data-name="レイヤー 1" xmlns="http://www.w3.org/2000/svg" viewBox="0 0 100 100">
  <defs>
    <style>
      .cls-1 {
        fill: #fff;
      }

      .cls-2 {
        fill: #3e3a39;
      }
    </style>
  </defs>
  <g>
    <rect class="cls-1" x="14.35" y="2.5" width="71.29" height="71.29" rx="3.04" ry="3.04"/>
    <path class="cls-2" d="M82.6,5c.3,0,.55,.24,.55,.55V70.75c0,.3-.24,.55-.55,.55H17.4c-.3,0-.55-.24-.55-.55V5.55c0-.3,.24-.55,.55-.55H82.6M82.6,0H17.4C14.34,0,11.85,2.48,11.85,5.55V70.75c0,3.06,2.48,5.55,5.55,5.55H82.6c3.06,0,5.55-2.48,5.55-5.55V5.55C88.15,2.48,85.66,0,82.6,0h0Z"/>
  </g>
  <g>
    <path class="cls-2" d="M44.05,50.68c-1.49,0-2.98-1.09-3.57-3.5-.86-3.5-2.58-13.72-2.94-16.5-.07-.43-.17-.6-.26-.6s-.2,.23-.26,.6c-.43,3.01-2.02,12.4-3.08,16.47-.59,2.38-2.21,3.54-3.8,3.54s-3.17-1.16-3.67-3.5c-3.54-16.73-4-19.25-4-19.84,0-1.16,1.03-1.75,2.02-1.75,.93,0,1.82,.5,1.98,1.46,3.31,19.01,3.37,19.21,3.84,19.21,.26,0,.5-.36,.59-.86,.63-2.74,2.41-12.76,3.27-17.16,.33-1.79,1.69-2.58,3.04-2.58,1.46,0,2.91,.89,3.21,2.45,.73,3.77,2.38,13.29,3.08,17.13,.1,.56,.26,.76,.43,.76,.46,0,.66,0,4.4-18.98,.2-.96,1.03-1.42,1.85-1.42,1.03,0,2.08,.66,2.08,1.72,0,.63-1.75,8.5-4.53,20-.53,2.18-2.12,3.37-3.67,3.37Z"/>
    <path class="cls-2" d="M67.52,50.97c-8.23,0-12.66-6.12-12.66-12.56s4.73-13.09,12.8-13.09c5.26,0,8.83,3.04,8.83,4.83,0,1.12-.96,2.05-2.02,2.05-.59,0-1.19-.26-1.69-.89-1.29-1.59-3.37-2.35-5.46-2.35-5.59,0-8.56,4.76-8.56,9.23,0,2.78,1.62,8.99,8.6,8.99,2.51,0,4.99-.96,6.35-2.78,.46-.63,1.02-.86,1.62-.86,1.12,0,2.21,.99,2.21,2.12,0,1.72-3.93,5.32-10.02,5.32Z"/>
  </g>
  <g>
    <path class="cls-2" d="M35.97,85.88c-.13,.02-.16,.02-.34,.05-.35,.06-.92,.13-1.36,.18v.79c.52-.12,.84-.15,1.31-.15,1.11,0,1.94,.28,2.46,.82,.4,.41,.61,.97,.61,1.59,0,1.27-.96,2.22-2.24,2.22-1.12,0-1.76-.75-1.76-2.04v-.22c.66-.19,.87-.28,1.37-.55,0,.19-.02,.29-.02,.48,0,.28,.02,.43,.07,.57,.06,.16,.22,.27,.4,.27,.39,0,.65-.32,.65-.77,0-.31-.16-.6-.44-.79-.24-.15-.59-.23-1.07-.23-.44,0-.81,.04-1.32,.18v1.59s0,.23,0,.23c0,.55-.04,.75-.17,.94-.17,.25-.51,.4-.92,.4-.67,0-1.43-.28-1.95-.71-.37-.32-.58-.74-.58-1.17,0-.49,.3-1.02,.84-1.49,.36-.32,.74-.54,1.34-.8v-1.06l-.68,.02-.87-.02s-.11,0-.19,0l-.02-1.41c.29,.05,.66,.08,1.23,.08h.34q.13,0,.18,0v-.29c0-.67,0-.88-.06-1.21h1.56c-.04,.32-.05,.53-.05,1.12v.29c.61-.06,1.17-.17,1.65-.31l.04,1.42Zm-3.12,2.85c-.42,.2-.75,.55-.75,.8,0,.11,.06,.2,.2,.29,.13,.08,.3,.14,.41,.14,.12,0,.14-.06,.14-.36v-.87Zm5.03-1.98c-.46-.8-.97-1.41-1.77-2.12l1.19-.8c.77,.62,1.32,1.25,1.77,1.99l-1.19,.93Z"/>
    <path class="cls-2" d="M44.31,84.91c-.78,.05-1.5,.08-2.67,.1-.12-.5-.2-.76-.43-1.25h.6c1.65,0,3.29-.12,4.44-.32,.6-.1,.76-.14,1.24-.31l.96,1.28c-1.04,.2-1.8,.31-2.71,.39v.83h1.57c.6,0,.95-.02,1.29-.05v1.37c-.35-.03-.73-.04-1.27-.04h-1.58v.77h2.03c.59,0,.93-.02,1.26-.05v1.39c-.34-.04-.68-.05-1.26-.05h-2.03v1.44c0,.5-.13,.78-.39,.94-.22,.12-.69,.21-1.09,.21h-.14s-.11,0-.22,0c-.23,0-.28,0-1-.04-.06-.54-.14-.85-.38-1.33,.58,.06,1.07,.1,1.44,.1,.25,0,.33-.06,.33-.29v-1.01h-2.26c-.57,0-.91,.02-1.25,.05v-1.39c.33,.04,.67,.05,1.25,.05h2.26v-.77h-1.76c-.49,0-.91,.02-1.29,.04v-1.37c.33,.04,.67,.05,1.29,.05h1.76v-.72Z"/>
    <path class="cls-2" d="M51.49,85.46c.63,.37,1.02,.62,1.58,1.08,.09,.02,.25,.04,.6,.05-.31-.3-.58-.5-.97-.73,.55-.65,.87-1.26,1.07-2.02,.04-.15,.05-.23,.08-.41l1.32,.28q-.05,.16-.12,.4c-.04,.12-.04,.17-.09,.3h.48v-.26c0-.45-.02-.68-.05-.94h1.48c-.04,.29-.05,.51-.05,.94v.26h1.04c.44,0,.76-.02,1.05-.05v1.33c-.32-.04-.64-.04-1.05-.04h-1.04v.95h1.3c.5,0,.79-.02,1.07-.05v1.35c-.27-.04-.57-.05-1.05-.05h-.77v2.32c0,.12,.05,.15,.26,.15s.3-.04,.32-.15c.04-.13,.07-.55,.07-.99,0-.07,0-.17,0-.3,.49,.19,.75,.26,1.27,.34-.04,2.2-.17,2.37-1.83,2.37-1.13,0-1.4-.16-1.4-.86v-2.89h-.47c-.05,1.02-.17,1.56-.47,2.15-.33,.68-.89,1.2-1.79,1.68-.28-.51-.48-.79-.85-1.19,.77-.35,1.15-.66,1.42-1.14,.22-.41,.32-.82,.35-1.5h-.15c-.41,0-.76,.02-1.06,.05v-1.17l-.66,1c-.7-.59-1.02-.82-1.68-1.22l.79-1.04Zm1.53,3.22c-.37,1.33-.68,2.18-1.11,2.98l-1.2-1.03c.4-.43,.8-1.4,1.16-2.75l1.14,.8Zm-1.21-5.5c.58,.36,.96,.63,1.54,1.12l-.83,1.1c-.58-.54-.87-.76-1.58-1.21l.86-1.01Zm2.17,3.42h1.48v-.95h-.96c-.19,.39-.36,.67-.58,.95h.06Z"/>
    <path class="cls-2" d="M63.1,84.03c-.06,.41-.1,.97-.1,1.63,0,2.02,.29,3.54,.67,3.54,.1,0,.2-.12,.29-.35,.2-.5,.36-1.02,.47-1.56,.42,.5,.66,.7,1.25,1.13-.19,.69-.41,1.23-.68,1.74-.33,.59-.82,.92-1.37,.92-.5,0-.94-.26-1.29-.77-.47-.67-.71-1.57-.83-3-.05-.63-.08-1.39-.1-2.64,0-.31,0-.4-.04-.64h1.73Zm4.15,.32c1.17,1.41,1.83,3.06,2.08,5.24l-1.61,.59c-.1-2.02-.72-3.79-1.84-5.2l1.37-.63Z"/>
  </g>
</svg>