<?xml version="1.0" encoding="UTF-8"?>
<svg id="_レイヤー_1" data-name="レイヤー 1" xmlns="http://www.w3.org/2000/svg" viewBox="0 0 100 100">
  <defs>
    <style>
      .cls-1 {
        fill: #fff;
      }

      .cls-2 {
        fill: #3e3a39;
      }

      .cls-3 {
        fill: #1a1a1a;
      }

      .cls-4 {
        fill: #3d3939;
      }
    </style>
  </defs>
  <g>
    <g>
      <path class="cls-1" d="M17.11,2.5H82.89c1.68,0,3.05,1.36,3.05,3.05V71.33c0,1.68-1.36,3.05-3.05,3.05H17.11c-1.68,0-3.04-1.36-3.04-3.04V5.54c0-1.68,1.36-3.04,3.04-3.04Z"/>
      <path class="cls-2" d="M82.89,5c.3,0,.55,.24,.55,.55V71.33c0,.3-.24,.55-.55,.55H17.11c-.3,0-.55-.24-.55-.55V5.55c0-.3,.24-.55,.55-.55H82.89M82.89,0H17.11C14.05,0,11.56,2.48,11.56,5.55V71.33c0,3.06,2.48,5.55,5.55,5.55H82.89c3.06,0,5.55-2.48,5.55-5.55V5.55C88.44,2.48,85.95,0,82.89,0h0Z"/>
    </g>
    <g>
      <path class="cls-3" d="M28.42,47.54v18.24c-2.93,0-5.83,0-8.74,0-.05-.16-.06-43.25,0-43.51,.1,0,.2,0,.31,0,6.11,0,12.21,0,18.32,0,3.9,0,7.51,2.07,9.5,5.37,.83,1.38,1.35,2.87,1.51,4.48,.04,.4,.07,.8,.07,1.19,0,1.13,.02,2.26,0,3.39-.09,5.11-3.77,9.54-8.78,10.6-.81,.17-1.62,.24-2.45,.24-3.18,0-6.36,0-9.54,0-.05,0-.1,0-.19,0Zm.02-7.57c.1,0,.19,0,.28,0,3.2,0,6.41,0,9.61,0,1.88,0,3.51-1.62,3.49-3.48,0-1.06-.01-2.11,0-3.17,.02-1.84-1.56-3.5-3.48-3.49-.47,0-.95,0-1.42,0-2.74,0-5.47,0-8.21,0-.09,0-.17,0-.26,.01v10.13Z"/>
      <path class="cls-3" d="M58.19,62.97c0,.61,0,1.2,0,1.78,0,.1,0,.2-.02,.3-.09,.4-.44,.71-.85,.72-.73,.01-1.47,.02-2.2,0-.5-.01-.87-.42-.88-.94,0-.52,0-1.03,0-1.55,0-.09,0-.18,0-.3-.1,0-.19-.01-.27-.01-.29,0-.59,.01-.87-.02-1.18-.13-2-1.14-1.98-2.26,.01-1.12,0-2.24,0-3.35,0-1.04,0-2.09,0-3.13,0-.81,.33-1.45,.98-1.92,.49-.36,.98-.72,1.48-1.08,.17-.12,.27-.25,.33-.45,.66-2.13,1.34-4.26,2.01-6.39,.25-.81,.77-1.35,1.59-1.58,.18-.05,.38-.08,.57-.08,5.12,0,10.24,0,15.37,0,1.01,0,1.83,.62,2.14,1.61,.51,1.6,1.01,3.2,1.51,4.79,.18,.57,.37,1.14,.54,1.72,.04,.14,.11,.25,.24,.34,.51,.36,1.01,.74,1.52,1.11,.68,.49,1.01,1.14,1.01,1.99,0,2.16,0,4.32,0,6.48,0,.97-.6,1.82-1.51,2.11-.24,.08-.5,.1-.76,.12-.27,.02-.55,0-.85,0,0,.1-.01,.18-.01,.26,0,.49,0,.98,0,1.48,0,.13,0,.27-.03,.4-.1,.39-.44,.68-.86,.69-.73,.01-1.45,.02-2.18,0-.51-.01-.88-.42-.89-.93,0-.53,0-1.05,0-1.58,0-.09,0-.18,0-.29h-15.07Zm7.53-12.03c2.62,0,5.24,0,7.86,0,.09,0,.18,0,.28,0,.58-.05,.93-.52,.82-1.09-.01-.06-.02-.11-.03-.17-.31-1.33-.63-2.66-.94-3.99-.18-.76-.79-1.24-1.57-1.24-4.27,0-8.54,0-12.81,0-.09,0-.18,0-.27,.02-.71,.15-1.14,.58-1.3,1.28-.29,1.27-.6,2.53-.89,3.79-.04,.17-.08,.34-.08,.52,0,.42,.24,.74,.65,.84,.14,.03,.28,.04,.42,.04,2.63,0,5.25,0,7.88,0Zm9.63,8.32c1.23,0,2.2-.99,2.2-2.22,0-1.21-1-2.19-2.21-2.19-1.22,0-2.2,1-2.2,2.22,0,1.21,.99,2.18,2.21,2.18Zm-17.05-2.17c.02-1.21-.95-2.21-2.16-2.23-1.21-.02-2.21,.94-2.24,2.15-.03,1.23,.93,2.24,2.16,2.25,1.23,.02,2.22-.94,2.24-2.17Zm4.59,4.82c.4,.05,5.49,.03,5.66-.02v-2.11c-.44-.05-5.48-.03-5.66,.02v2.11Z"/>
    </g>
    <circle class="cls-2" cx="65.73" cy="23.6" r="14.2"/>
    <path class="cls-1" d="M63.12,35.13c.15-1.27,.2-2.24,.2-3.61v-1.05h-3.66c-1.12,0-1.85,.05-2.63,.17v-3.29c.73,.15,1.49,.2,2.63,.2h3.66v-.49l-.83-1.37h-2.78c-1.17,0-1.66,.02-2.63,.17v-3.29c.78,.15,1.49,.2,2.63,.2h1.02l-3.05-4.95c-.51-.88-1.46-2.32-1.95-2.98h6.03c.22,.76,.46,1.32,1.12,2.56l2.85,5.42,2.88-5.39c.71-1.34,.93-1.88,1.12-2.59h6c-.44,.63-1.71,2.59-1.93,2.98l-3.03,4.95h1c1.15,0,1.71-.05,2.61-.2v3.29c-.81-.12-1.51-.17-2.61-.17h-2.76l-.85,1.37v.49h3.56c1.1,0,1.78-.05,2.61-.2v3.29c-.93-.12-1.54-.17-2.61-.17h-3.56v1.05c0,1.63,.05,2.49,.2,3.61h-5.25Z"/>
  </g>
  <g>
    <path class="cls-4" d="M27.44,85.1c-.53,.54-.73,.71-1.45,1.26-.21-.44-.36-.65-.68-.97,.67-.43,1.14-.82,1.68-1.37,.51-.51,.82-.92,1.19-1.57h-1.41c-.49,0-.85,.02-1.19,.06v-1.11c.35,.04,.7,.06,1.2,.06h1.88c.16-.41,.25-.75,.29-1.08l1.25,.14c-.07,.15-.09,.19-.22,.56-.04,.12-.06,.17-.14,.38h3.57c.49,0,.84-.02,1.17-.06v1.11c-.33-.04-.7-.06-1.17-.06h-4.02c-.18,.33-.3,.53-.49,.84h3.42c.5,0,.75,0,1.04-.04-.03,.31-.04,.63-.04,1.14v4.17c0,.39-.12,.65-.38,.81-.19,.11-.56,.16-1.17,.16-.23,0-.42-.01-.92-.03-.05-.45-.1-.67-.26-1.05,.56,.07,.85,.09,1.16,.09,.44,0,.5-.04,.5-.28v-.76h-3.74v.85c0,.54,.02,.89,.05,1.25h-1.18c.04-.36,.06-.75,.06-1.26v-3.24Zm4.81-.85h-3.74v.73h3.74v-.73Zm-3.74,1.62v.74h3.74v-.74h-3.74Z"/>
    <path class="cls-4" d="M39.37,86.92c-.05,.13-.06,.18-.11,.34-.42-.47-.7-.86-1.01-1.41,.05,.68,.06,.82,.06,1.14v1.65c0,.48,0,.74,.06,1.04h-1.16c.05-.32,.07-.62,.07-1.06v-1.29c0-.4,.02-.87,.04-1.2-.45,1.1-.77,1.66-1.3,2.25-.11-.39-.29-.75-.51-1.03,.42-.43,.74-.87,1.08-1.48,.21-.37,.25-.47,.53-1.13h-.52c-.44,0-.66,.01-.9,.05v-1.06c.23,.04,.44,.05,.9,.05h.67v-2.37c0-.45,0-.74-.05-.98h1.14c-.04,.26-.05,.49-.05,.97v2.38h.47c.38,0,.55,0,.77-.04v1.04c-.24-.03-.44-.04-.79-.04h-.36c.37,.63,.74,1.08,1.29,1.53-.14,.25-.18,.34-.28,.56,.23,0,.58-.07,.92-.14l2.34-.52v-4.57c0-.58,0-.85-.06-1.16h1.21c-.05,.33-.06,.6-.06,1.15v4.34c.41-.1,.59-.15,.85-.25l.21,1.14c-.27,.03-.55,.08-.96,.18l-.1,.02v1.46c0,.56,.01,.86,.06,1.18h-1.21c.05-.34,.06-.58,.06-1.19v-1.21l-2.12,.48c-.44,.1-.73,.18-.95,.25l-.23-1.07Zm-2.89-5.94c.32,.89,.47,1.4,.61,2.16l-.84,.36c-.16-.92-.34-1.54-.62-2.14l.85-.38Zm3.43,.35c-.26,.92-.39,1.27-.8,2.17l-.73-.38c.32-.67,.49-1.19,.69-2.16l.84,.37Zm.5,2.27c.79,.54,1.22,.91,1.74,1.47l-.68,.81c-.7-.75-1.04-1.05-1.76-1.54l.7-.74Zm.31-2.5c.86,.6,1.18,.88,1.75,1.47l-.68,.84c-.74-.79-.79-.83-1.77-1.54l.7-.77Z"/>
    <path class="cls-4" d="M46.53,86.38c-.07,1.24-.2,2.08-.45,2.77l-.72-.36c.3-.71,.43-1.39,.49-2.56l.68,.15Zm2.07-1.25h.5c.41,0,.59-.01,.79-.04-.02,.15-.02,.25-.04,.68-.05,1.37-.14,2.35-.28,2.9-.19,.75-.48,.96-1.32,.96-.16,0-.3,0-.58-.02,0-.41-.03-.61-.19-1.03,.32,.06,.58,.1,.75,.1,.33,0,.44-.13,.53-.64,.1-.51,.14-1.13,.14-2.05h-2.34c-.27,0-.46,0-.73,.03,.03-.31,.04-.65,.04-1.01v-3.31c0-.42,0-.65-.04-.99,.36,.04,.6,.05,1.01,.05h2c.47,0,.75-.02,1.03-.05v.97c-.23-.03-.46-.04-.75-.04h-.52v.61h.37c.29,0,.46,0,.67-.04v.89c-.22-.03-.4-.04-.67-.04h-.37v.6h.37c.33,0,.47,0,.67-.04v.9c-.22-.03-.4-.04-.67-.04h-.37v.65Zm-1.38,1.18c.07,.63,.11,1.27,.11,1.85,0,.13,0,.33,0,.59l-.67,.1c.05-.57,.06-.83,.06-1.36,0-.44,0-.63-.04-1.1l.55-.08Zm.46-4.67h-.85v.61h.85v-.61Zm0,1.42h-.85v.6h.85v-.6Zm-.85,1.42v.65h.85v-.65h-.85Zm1.02,1.77c.15,.65,.24,1.23,.29,2.01l-.56,.16c-.04-.94-.09-1.41-.22-2.05l.49-.12Zm.62-.07c.17,.51,.25,.86,.32,1.44l-.47,.19c-.06-.56-.13-.98-.27-1.48l.42-.15Zm4.15-3.85c-.47-.42-1.01-.78-1.78-1.18l.76-.73c.7,.37,1.3,.76,1.9,1.25l-.66,.66h.8c.43,0,.71-.02,1.01-.06v1.12c-.31-.03-.61-.05-1-.05h-.83v1.78h.63c.4,0,.7-.02,.99-.06v1.12c-.3-.04-.62-.06-.99-.06h-.63v2.18h.82c.39,0,.8-.02,1.12-.06v1.13c-.33-.04-.7-.06-1.12-.06h-2.69c-.44,0-.8,.02-1.12,.06v-1.13c.31,.04,.73,.06,1.12,.06h.8v-2.18h-.5c-.37,0-.7,.02-.99,.06v-1.12c.28,.04,.59,.06,.98,.06h.51v-1.78h-.68c-.41,0-.71,.02-1.01,.06v-1.13c.34,.04,.65,.06,1.01,.06h1.55Z"/>
    <path class="cls-4" d="M59.48,81.28c0-.33-.02-.56-.07-.86h1.23c-.05,.3-.07,.53-.07,.86v.06h2.77c.56,0,.88-.02,1.16-.07v1.07c-.33-.04-.68-.06-1.13-.06h-2.8v.59h2.02c.6,0,.83,0,1.11-.05-.03,.33-.04,.49-.04,1.02v1.87c0,.53,0,.69,.04,1.02-.3-.04-.53-.05-1.12-.05h-2.01v.62h2.85c.56,0,.87-.02,1.15-.07v1.09c-.32-.04-.64-.06-1.17-.06h-2.83v.26c0,.51,.02,.8,.07,1.13h-1.23c.05-.36,.07-.62,.07-1.13v-.26h-2.7c-.52,0-.87,.02-1.17,.06v-1.09c.29,.05,.61,.07,1.15,.07h2.72v-.62h-1.87c-.58,0-.84,0-1.13,.05,.03-.33,.04-.53,.04-1.02v-1.86c0-.49,0-.7-.04-1.03,.28,.04,.51,.05,1.1,.05h1.9v-.59h-2.69c-.44,0-.8,.02-1.13,.06v-1.07c.3,.05,.66,.07,1.16,.07h2.66v-.06Zm-1.89,2.48v.6h1.89v-.6h-1.89Zm0,1.42v.61h1.89v-.61h-1.89Zm5-.82v-.6h-2.02v.6h2.02Zm0,1.43v-.61h-2.02v.61h2.02Z"/>
    <path class="cls-4" d="M69.53,86.56c-.42,.37-.64,.52-1.23,.85-.12-.22-.17-.29-.38-.53-.57,.35-1.06,.61-1.99,1.05,0,0-.06,.04-.13,.08-.02,0-.06,.02-.1,.05l-.25-1.17c.27-.06,.63-.19,1.13-.4v-2.65h-.29c-.29,0-.52,.01-.78,.05v-1.07c.23,.04,.46,.05,.79,.05h.28v-1.24c0-.51-.02-.81-.06-1.11h1.16c-.05,.32-.06,.59-.06,1.12v1.23h.18c.33,0,.53-.01,.71-.04v1.05c-.24-.03-.43-.04-.7-.04h-.19v2.15c.27-.14,.35-.19,.67-.37v.69c.55-.33,.9-.63,1.19-1.01h-.22c-.42,0-.69,.02-.93,.05v-1c.23,.04,.49,.05,.94,.05h4.37c.48,0,.79-.02,1.04-.06v1c-.28-.03-.6-.04-1.03-.04h-3.06c-.09,.16-.14,.23-.27,.41h3.18c.49,0,.68,0,.97-.03-.02,.16-.03,.29-.04,.59-.05,1.26-.2,2.27-.41,2.72-.2,.46-.52,.59-1.4,.59-.27,0-.45,0-.84-.03-.04-.37-.12-.63-.27-.92-.54,.47-.96,.75-1.65,1.1-.22-.33-.38-.5-.72-.76,.88-.38,1.3-.63,1.82-1.08,.41-.35,.73-.76,1.04-1.33h-.6c-.61,.93-1.47,1.61-2.77,2.19-.17-.31-.32-.48-.64-.76,1.14-.42,1.8-.83,2.32-1.43h-.78Zm.3-2.58c-.39,0-.72,0-.92,.04,.03-.28,.04-.57,.04-.97v-1.46c0-.43-.01-.6-.04-.91,.31,.04,.54,.05,1.01,.05h2.91c.5,0,.78,0,1.07-.05-.03,.28-.04,.48-.04,.99v1.38c0,.44,0,.73,.04,.96-.21-.02-.51-.03-.91-.03h-3.16Zm.15-1.95h2.83v-.42h-2.83v.42Zm0,1.14h2.83v-.41h-2.83v.41Zm3.05,3.39c-.39,.85-.78,1.39-1.4,1.96,.41,.06,.74,.08,1.03,.08,.37,0,.48-.1,.57-.53,.07-.35,.12-.79,.17-1.51h-.37Z"/>
  </g>
</svg>