<?xml version="1.0" encoding="UTF-8"?>
<svg id="_レイヤー_1" data-name="レイヤー 1" xmlns="http://www.w3.org/2000/svg" viewBox="0 0 100 100">
  <defs>
    <style>
      .cls-1 {
        fill: #fff;
      }

      .cls-2 {
        fill: #3e3a39;
      }

      .cls-3 {
        fill: #1a1a1a;
      }

      .cls-4 {
        fill: #3d3939;
      }
    </style>
  </defs>
  <g>
    <path class="cls-1" d="M17.11,2.5H82.89c1.68,0,3.05,1.36,3.05,3.05V71.33c0,1.68-1.36,3.05-3.05,3.05H17.11c-1.68,0-3.04-1.36-3.04-3.04V5.54c0-1.68,1.36-3.04,3.04-3.04Z"/>
    <path class="cls-2" d="M82.89,5c.3,0,.55,.24,.55,.55V71.33c0,.3-.24,.55-.55,.55H17.11c-.3,0-.55-.24-.55-.55V5.55c0-.3,.24-.55,.55-.55H82.89M82.89,0H17.11C14.05,0,11.56,2.48,11.56,5.55V71.33c0,3.06,2.48,5.55,5.55,5.55H82.89c3.06,0,5.55-2.48,5.55-5.55V5.55C88.44,2.48,85.95,0,82.89,0h0Z"/>
  </g>
  <g>
    <path class="cls-3" d="M36.89,44.08h3.35v-5.52c0-.24,.2-.44,.44-.44h3.19c.24,0,.44,.2,.44,.44v5.52h3.64v-5.52c0-.24,.2-.44,.44-.44h3.19c.24,0,.44,.2,.44,.44v5.52h3.64v-5.52c0-.24,.2-.44,.44-.44h3.19c.24,0,.44,.2,.44,.44v5.52h3.35v-9.01h-26.22v9.01Z"/>
    <path class="cls-3" d="M66.93,12.43H33.07c-1.26,0-2.29,1.03-2.29,2.29V60.73c0,1.26,1.03,2.29,2.29,2.29h1v1.43h5.09v-1.43h21.69v1.43h5.09v-1.43h1c1.26,0,2.29-1.03,2.29-2.29V14.72c0-1.26-1.03-2.29-2.29-2.29Zm-31.6,4.49h29.33v12.11h-29.33v-12.11Zm0,16.6h29.33v12.11h-29.33v-12.11Zm4.02,16.72h1.48l-5.5,5.5v-1.48l4.02-4.02Zm-4.02,1.96v-1.96h1.96l-1.96,1.96Zm21.03,5.5h-19.62l7.45-7.45h12.16v7.45Zm2.66-7.45h5.63v4.79h-5.63v-4.79Z"/>
    <path class="cls-3" d="M36.89,27.48h3.35v-5.52c0-.24,.2-.44,.44-.44h3.19c.24,0,.44,.2,.44,.44v5.52h3.64v-5.52c0-.24,.2-.44,.44-.44h3.19c.24,0,.44,.2,.44,.44v5.52h3.64v-5.52c0-.24,.2-.44,.44-.44h3.19c.24,0,.44,.2,.44,.44v5.52h3.35v-9h-26.22v9Z"/>
  </g>
  <g>
    <path class="cls-4" d="M28.27,81.65c.22-.44,.36-.86,.46-1.32l1.26,.12c-.18,.48-.33,.82-.51,1.2h2.32c.58,0,.86-.01,1.23-.05-.04,.34-.05,.61-.05,1.23v5.6c0,.59,.01,.84,.06,1.16h-1.15v-.51h-4.94v.51h-1.13c.04-.25,.06-.69,.06-1.16v-5.6c0-.6,0-.88-.05-1.23,.36,.04,.64,.05,1.22,.05h1.22Zm-1.31,2.15h4.94v-1.13h-4.94v1.13Zm0,2.1h4.94v-1.14h-4.94v1.14Zm0,2.17h4.94v-1.21h-4.94v1.21Z"/>
    <path class="cls-4" d="M37.05,81.62c-.69,.06-.97,.08-1.72,.12-.08-.28-.16-.46-.35-.8,1.96,0,3.68-.22,4.36-.54l.6,.82c-.09,0-.42,.06-.55,.09-.37,.07-.87,.15-1.37,.22v.56h1.04c.47,0,.7,0,.93-.05v.91c-.15-.03-.28-.04-.72-.04h-1.25v.43h.99c.45,0,.63,0,.84-.03-.02,.21-.03,.37-.03,.88v1.35c.01,.48,.02,.78,.03,.91-.23-.02-.43-.02-.9-.02h-.93v.44h.88c.5,0,.71,0,.94-.04v.94c-.18-.04-.32-.05-.7-.05h-1.12v.49c.52-.05,.86-.09,1.8-.22v.43c.43-.64,.76-1.45,.95-2.3,.15-.73,.21-1.35,.26-2.64-.41,0-.57,0-.83,.04v-1.08c.2,.03,.37,.04,.71,.04h.15c.01-.25,.01-.42,.01-.73,0-.83-.01-.99-.06-1.27h1.15q-.05,.27-.08,2h.87c.43,0,.67,0,.94-.04-.04,.36-.04,.44-.07,1.88-.05,2.58-.18,3.99-.43,4.57-.18,.44-.5,.59-1.25,.59-.16,0-.65-.02-.8-.03-.02-.44-.07-.65-.23-1.08-.24,.51-.4,.77-.8,1.31-.21-.31-.45-.55-.79-.79-1.37,.2-2.1,.28-3.93,.42-.19,.02-.34,.04-.58,.08l-.18-1.07c.21,.02,.3,.02,.52,.02,.45,0,.64-.01,1.7-.07v-.55h-1.03c-.32,0-.66,0-.93,.04v-.94c.28,.04,.49,.05,.94,.05h1.02v-.44h-.87c-.45,0-.69,0-.97,.03,.02-.25,.03-.46,.03-.95v-1.29c0-.47,0-.66-.03-.91,.28,.02,.54,.03,.98,.03h.86v-.43h-1.22c-.42,0-.65,0-.93,.05v-.92c.27,.04,.52,.05,.93,.05h1.22v-.47Zm-.87,2.47v.42h.87v-.42h-.87Zm0,1.15v.44h.87v-.44h-.87Zm1.84-.73h.87v-.42h-.87v.42Zm0,1.17h.87v-.44h-.87v.44Zm4.04-2.2c-.1,2.38-.33,3.54-.94,4.88,.51,.08,.66,.1,.88,.1,.45,0,.52-.12,.64-1.05,.07-.53,.1-.96,.14-2.07q0-.35,.02-1.16c0-.31,0-.37,.02-.7h-.76Z"/>
    <path class="cls-4" d="M46.61,87.68c-.33,.93-.53,1.3-1.05,1.95-.27-.32-.51-.5-.89-.69,.52-.57,.75-.96,1.04-1.71l.9,.45Zm-.71-.51c-.42,0-.54,0-.7,.02,.02-.35,.03-.65,.03-1v-4.55c0-.35,0-.63-.04-.9,.26,.03,.52,.04,.89,.04h1.43c.42,0,.6-.01,.84-.04-.02,.25-.03,.4-.03,.82v4.78c0,.44,0,.63,.03,.85-.24-.02-.37-.02-.72-.02h-1.73Zm.3-4.5h1.15v-.94h-1.15v.94Zm0,1.74h1.15v-.87h-1.15v.87Zm0,1.82h1.15v-.94h-1.15v.94Zm7.63-2.5c-.11,.26-.14,.35-.31,.96-.3,1.07-.61,1.79-1.08,2.53,.5,.55,1.07,.97,1.8,1.34-.27,.34-.45,.65-.61,1.05-.88-.57-1.37-.97-1.85-1.52-.55,.65-.96,1.01-1.85,1.62-.22-.4-.44-.68-.69-.87-.14,.3-.22,.44-.46,.83-.24-.28-.46-.46-.78-.66-.15,.11-.2,.17-.38,.35-.38-.65-.52-.94-.84-1.71l.87-.4c.18,.43,.34,.74,.58,1.16,.53-1.01,.75-2.5,.76-5.12,0-.37,0-.78,0-1.22v-.14c0-.42,0-.8-.04-1.14,.35,.03,.7,.05,1.13,.05h2.83c.46,0,.8-.02,1.11-.06v1.13c-.32-.03-.65-.05-1.1-.05h-2.89v1.32h2.49c.41,0,.63,0,.81-.05l.49,.6Zm-3.81,.42c-.07,2.34-.27,3.53-.76,4.64,.8-.47,1.35-.92,1.89-1.56-.54-.84-.81-1.6-1.12-3.08h0Zm.93,0c.23,.95,.46,1.57,.83,2.17,.4-.7,.59-1.22,.82-2.17h-1.65Z"/>
    <path class="cls-4" d="M58.84,85.75c-.03,.12-.04,.19-.06,.43-.09,.95-.43,1.74-.97,2.29-.31,.31-.75,.61-1.18,.82-.27,.13-.52,.22-1.08,.38-.22-.48-.38-.72-.72-1.11,.62-.09,.94-.17,1.37-.37,.7-.32,1.1-.71,1.29-1.24,.09-.27,.16-.66,.16-.94,0-.09,0-.21-.03-.32l1.22,.06Zm-3.82,.79c.04-.23,.05-.45,.05-.72v-.71c0-.31,0-.51-.04-.74,.31,.03,.58,.04,1.07,.04h6.61c.48,0,.73-.01,1.08-.04-.03,.21-.04,.38-.04,.71v.73c0,.3,.01,.51,.05,.73h-1.17v-1.16h-6.46v1.16h-1.15Zm3.78-5.38c0-.36,0-.53-.05-.77h1.22c-.05,.2-.06,.4-.06,.77v.12h2.7c.55,0,.94-.02,1.2-.06v1.06c-.31-.03-.65-.05-1.17-.05h-2.73v.66h2.23c.51,0,.76,0,1.02-.05v1.03c-.28-.03-.52-.04-1.02-.04h-5.47c-.47,0-.72,0-1.01,.04v-1.03c.26,.04,.51,.05,1.01,.05h2.13v-.66h-2.57c-.53,0-.84,0-1.18,.05v-1.06c.26,.04,.65,.06,1.21,.06h2.54v-.12Zm2.08,6.98c0,.26,.09,.3,.77,.3s.92-.04,1.01-.17,.13-.4,.18-1.24c.34,.17,.64,.27,1.07,.34-.08,1.01-.23,1.55-.5,1.8-.23,.22-.7,.29-1.85,.29-1.52,0-1.79-.13-1.79-.86v-2.05c0-.41,0-.62-.04-.83h1.2c-.04,.23-.05,.41-.05,.78v1.64Z"/>
    <path class="cls-4" d="M73.14,80.9c-.32,.53-.46,.74-.85,1.23,.12,.13,.14,.16,.27,.31,.21-.29,.3-.44,.62-.96l.73,.53q-.21,.26-.7,.9c-.27,.34-.49,.59-.8,.9,.3-.02,.41-.03,.72-.06-.06-.16-.09-.22-.18-.39l.63-.23c.25,.52,.36,.79,.59,1.57l-.7,.23c-.05-.22-.07-.29-.11-.48-.2,.03-.44,.06-.73,.09,.23,.15,.25,.16,.52,.41l-.38,.36h.22c.6,0,.78-.01,1.05-.06v1.05c-.3-.04-.66-.06-1.05-.06h-.34l.77,.49c-.39,.51-.67,.82-1.09,1.2,.29,.4,.55,.62,.7,.62,.18,0,.27-.28,.37-1.21,.24,.25,.48,.42,.76,.55-.11,.73-.22,1.12-.41,1.41-.14,.22-.34,.32-.65,.32-.5,0-.96-.33-1.53-1.08-.72,.51-1.29,.81-2.19,1.12-.17-.38-.27-.55-.57-.89,.9-.22,1.54-.49,2.3-.99-.23-.47-.35-.83-.51-1.54h-1.33c0,.16,0,.2-.03,.32,.33,.37,.59,.56,1.11,.84-.13,.18-.19,.28-.27,.44q-.14,.25-.21,.38c-.33-.2-.59-.42-.83-.7-.26,.87-.59,1.41-1.24,2.08-.28-.32-.4-.43-.8-.72,.79-.59,1.2-1.41,1.3-2.64-.37,.01-.55,.02-.75,.04v-1.01c.24,.03,.4,.04,.82,.04h2.06c-.04-.29-.05-.37-.07-.56l-.56,.2c-.02-.17-.03-.23-.04-.34-.26,.04-.43,.07-.7,.11-.77,.1-1.29,.17-1.43,.2l-.04-.31c-.15,.29-.21,.44-.29,.7-.19-.3-.33-.57-.47-.92,.02,.28,.04,.87,.04,1.22v2.88c0,.62,0,.97,.05,1.23h-1.09c.04-.28,.06-.71,.06-1.23v-1.76c0-.45,.02-.81,.08-1.65-.3,1.05-.56,1.71-.87,2.24-.12-.46-.27-.82-.48-1.1,.27-.43,.43-.75,.75-1.59,.1-.26,.18-.5,.41-1.35h-.24c-.25,0-.5,.02-.68,.04v-1.07c.17,.04,.32,.05,.68,.05h.34v-.83c0-.48,0-.79-.05-1.05h1.08c-.03,.24-.04,.51-.04,1.04v.84h.18c.21,0,.39,0,.51-.02-.07-.07-.11-.1-.22-.2l.58-.69,.22,.21c.31-.44,.48-.76,.64-1.19l.82,.41c-.32,.6-.51,.91-.87,1.4,.1,.12,.14,.17,.24,.31,.27-.41,.34-.52,.52-.94l.71,.48v-.47c0-.69-.02-.84-.07-1.14h1.1c-.05,.19-.06,.36-.06,.67,0,.03,0,.16,0,.32v.31l.31-.43c.12,.11,.19,.18,.22,.21,.27-.36,.45-.69,.61-1.09l.82,.45Zm-5.5,2.42c-.25-.03-.36-.04-.57-.04h-.14c.15,.37,.31,.62,.61,.98l-.03-.22c.07,0,.11,0,.15,0h.18c.34-.39,.45-.53,.63-.77-.3-.39-.51-.63-.83-.93v.97Zm2.39-.04c.14,.31,.19,.43,.26,.66-.06-.84-.08-1.3-.08-1.75-.12,.17-.15,.22-.22,.32-.37,.56-.81,1.12-1.14,1.47q.39-.03,.73-.08c-.07-.16-.09-.22-.18-.42l.63-.2Zm1.15-1.06q0,.91,.05,1.62h.14q.39-.41,.64-.72c-.26-.35-.5-.61-.83-.9Zm1,2.37c-.09,0-.15,.02-.19,.02q-.17,.03-.43,.05s-.11,0-.25,.02c.02,.23,.03,.26,.08,.63h1.12c-.22-.22-.35-.3-.63-.43l.3-.29Zm-.62,1.65c.08,.37,.15,.57,.32,.94,.47-.44,.61-.61,.76-.94h-1.08Z"/>
  </g>
</svg>