<?xml version="1.0" encoding="UTF-8"?>
<svg id="_レイヤー_1" data-name="レイヤー 1" xmlns="http://www.w3.org/2000/svg" viewBox="0 0 100 100">
  <defs>
    <style>
      .cls-1 {
        fill: #fff;
      }

      .cls-2 {
        fill: #3e3a39;
      }

      .cls-3 {
        fill: #1a1a1a;
      }
    </style>
  </defs>
  <g>
    <path class="cls-1" d="M17.11,2.5H82.89c1.68,0,3.05,1.36,3.05,3.05V71.33c0,1.68-1.36,3.05-3.05,3.05H17.11c-1.68,0-3.04-1.36-3.04-3.04V5.54c0-1.68,1.36-3.04,3.04-3.04Z"/>
    <path class="cls-2" d="M82.89,5c.3,0,.55,.24,.55,.55V71.33c0,.3-.24,.55-.55,.55H17.11c-.3,0-.55-.24-.55-.55V5.55c0-.3,.24-.55,.55-.55H82.89M82.89,0H17.11C14.05,0,11.56,2.48,11.56,5.55V71.33c0,3.06,2.48,5.55,5.55,5.55H82.89c3.06,0,5.55-2.48,5.55-5.55V5.55C88.44,2.48,85.95,0,82.89,0h0Z"/>
  </g>
  <g>
    <path class="cls-3" d="M76.19,69.9H23.75c-.3-.42-.83-.82-.85-1.25-.1-1.73-.04-3.46-.04-5.32h3.6c.07-.24,.14-.36,.14-.47,.01-5.47,.03-10.94,0-16.41,0-.37-.41-.85-.75-1.08-1.21-.8-2.31-1.78-2.39-3.24-.16-3.01-.1-6.03-.1-9.05,0-.26,.21-.52,.33-.78,1.58-3.36,3.19-6.7,4.72-10.08,.64-1.42,1.61-2.02,3.15-2,4.24,.04,8.49,.02,12.74,.02,8.04,0,16.08,.02,24.12-.02,1.54,0,2.55,.57,3.15,2,.58,1.39,1.16,2.8,1.94,4.08,2.69,4.44,3.73,9.22,3.16,14.36,0,.08,0,.16,0,.24,.03,1.87-.76,3.35-2.36,4.27-.81,.46-.99,1.01-.98,1.87,.03,4.98,.01,9.96,.02,14.94,0,.43,.05,.86,.09,1.41h3.73c0,1.55,.1,2.98-.04,4.39-.07,.73-.58,1.41-.9,2.11Zm-44.15-6.94h35.77c.04-.24,.08-.4,.08-.55,0-5.26,0-10.53,.01-15.79,0-1.11-.56-1.22-1.43-.88-1.87,.73-3.72,.71-5.61,.03-.37-.14-.89-.13-1.26,0-1.84,.67-3.65,.66-5.51,.04-.45-.15-1.03-.14-1.48,.01-1.77,.59-3.5,.59-5.28,0-.45-.15-1.04-.18-1.49-.03-1.85,.63-3.66,.64-5.51-.03-.38-.14-.89-.15-1.26-.01-1.88,.69-3.73,.69-5.61,0-1.08-.4-1.43-.15-1.43,.98-.01,3.18,0,6.37,0,9.55,0,2.2,0,4.39,0,6.69Zm15.26-39.99c-.05,.32-.1,.52-.1,.71-.23,5.66-.49,11.32-.68,16.98-.06,1.87,1.22,2.93,3.39,2.96,2.22,.03,3.56-1.05,3.53-2.95-.06-3.87-.14-7.74-.29-11.61-.08-2.02-.3-4.03-.46-6.08h-5.38Zm-5.4-.03c-1.8,0-3.46-.02-5.11,.03-.21,0-.49,.39-.58,.66-1.84,5.42-4.24,10.73-3.43,16.69,.01,.08,0,.16,0,.24,.02,1.94,1.26,3.04,3.45,3.06,2.26,.02,3.46-1.07,3.49-3.11,.05-2.61-.06-5.24,.27-7.81,.42-3.21,1.22-6.38,1.9-9.76Zm16.05,0c1.5,6.21,2.69,12.15,2.34,18.3-.04,.63,.76,1.53,1.41,1.91,1.29,.76,2.78,.72,4.08-.07,.54-.33,1.23-.98,1.26-1.52,.12-2.68,.46-5.46-.07-8.05-.68-3.37-2.1-6.59-3.23-9.86-.1-.28-.44-.68-.69-.69-1.62-.06-3.23-.03-5.1-.03Z"/>
    <path class="cls-3" d="M60.46,15.35c-1.13,.36-1.87,.14-2.24-1-.15-.46-.46-.86-.64-1.32-.29-.74-.76-1.01-1.68-.62v3c-.55,.03-.94,.05-1.43,.07V7.27c1.05,0,2.09-.04,3.13,0,1.25,.06,2.21,.6,2.54,1.89,.31,1.23-.2,2.14-1.38,2.8,.56,1.13,1.11,2.24,1.68,3.38Zm-4.44-6.95v2.77c.95-.29,1.75-.46,2.46-.81,.16-.08,.16-1.09-.02-1.17-.71-.35-1.52-.51-2.44-.79Z"/>
    <path class="cls-3" d="M67.27,15.42h-5.17V7.25c1.57,0,3.11-.02,4.65,0,1.01,.02,.55,.73,.65,1.36h-3.7v2.03h3.08c.04,.49,.06,.84,.1,1.32h-3.16v2.14c.9,0,1.79-.01,2.68,0,1.08,.02,1.08,.03,.88,1.31Z"/>
    <path class="cls-3" d="M52.66,11.72c-.05,.41-.06,1.03-.2,1.62-.35,1.49-1.35,2.22-2.92,2.2-1.49-.02-2.53-.74-2.77-2.21-.19-1.15-.21-2.35-.09-3.51,.17-1.63,1.43-2.63,3-2.6,1.52,.03,2.64,1.02,2.89,2.61,.09,.56,.07,1.13,.1,1.9Zm-1.55-.35c-.04-.53,.07-1.15-.17-1.56-.28-.49-.86-1.11-1.32-1.11-.46,0-1.25,.61-1.33,1.06-.2,1.06-.2,2.21,0,3.27,.09,.47,.88,1.18,1.28,1.14,.51-.06,1.07-.7,1.38-1.22,.24-.41,.13-1.03,.17-1.56Z"/>
    <path class="cls-3" d="M32.47,14.47c.37-.36,.63-.61,.78-.75,.91,.2,1.66,.52,2.39,.47,.47-.03,1.15-.52,1.3-.95,.25-.74-.42-1.03-1.07-1.14-.44-.08-.88-.17-1.31-.27-1.11-.24-1.71-.95-1.7-2.07,0-1.12,.57-1.97,1.65-2.33,1.27-.42,2.49-.28,3.64,.6-.31,.64-.58,1.13-1.44,.69-.34-.17-.86-.27-1.18-.13-.45,.2-.79,.65-1.18,.99,.31,.32,.56,.75,.93,.94,.46,.23,1.02,.24,1.54,.36,.98,.22,1.57,.79,1.65,1.84,.09,1.13-.22,2.09-1.33,2.49-1.56,.57-3.1,.52-4.66-.74Z"/>
    <path class="cls-3" d="M41.71,8.69c-.81-.05-1.42-.08-2.13-.12-.02-.41-.04-.79-.06-1.25h5.87v1.24c-.67,.05-1.31,.09-2.1,.15v6.71h-1.57v-6.72Z"/>
  </g>
  <g>
    <path class="cls-2" d="M44.63,89.29c-.02,.12-.03,.15-.05,.41-.11,.96-.44,1.67-1.04,2.2-.48,.41-.97,.65-1.96,.94-.26-.55-.43-.83-.8-1.29,.58-.09,.88-.17,1.26-.35,.6-.27,.92-.6,1.09-1.14,.05-.2,.09-.41,.09-.59,0-.06,0-.18-.02-.24l1.44,.08Zm-3.72,.67c.04-.23,.04-.43,.04-.68v-.75c0-.29,0-.49-.04-.7,.28,.03,.53,.04,1.02,.04h6.09c.5,0,.72,0,1.04-.04-.03,.2-.04,.35-.04,.66v.77c0,.28,0,.48,.04,.69h-1.41v-.94h-5.37v.94h-1.39Zm3.35-5.09c0-.27,0-.4-.04-.58h1.48c-.04,.16-.04,.3-.04,.58v.04h2.21c.51,0,.89-.02,1.15-.05v1.25c-.32-.04-.59-.04-1.12-.04h-2.24v.36h1.94c.42,0,.66,0,.89-.04v1.19c-.25-.03-.46-.04-.89-.04h-5.2c-.4,0-.63,0-.88,.04v-1.19c.23,.03,.47,.04,.88,.04h1.87v-.36h-2.15c-.51,0-.82,0-1.13,.04v-1.25c.26,.04,.65,.05,1.16,.05h2.12v-.04Zm2.28,6.29c0,.22,.06,.24,.54,.24,.41,0,.56-.03,.61-.13,.05-.08,.09-.41,.12-1.04,.46,.19,.81,.29,1.31,.35-.06,1.05-.16,1.49-.4,1.74-.22,.23-.64,.31-1.89,.31-1.37,0-1.63-.13-1.63-.87v-1.74c0-.36,0-.56-.04-.77h1.41c-.03,.2-.04,.37-.04,.7v1.21Z"/>
    <path class="cls-2" d="M54.58,84.75c0-.2,0-.32-.04-.47h1.49c-.03,.13-.04,.26-.04,.49v.27h1.97c.57,0,.99-.02,1.27-.05v1.39c-.36-.03-.85-.04-1.24-.04h-5.08v.4c0,3.12-.29,4.75-1.06,6.07-.37-.5-.65-.79-1.11-1.12,.61-1.1,.78-2.28,.78-5.28,0-.68,0-1.08-.03-1.4,.35,.03,.74,.04,1.19,.04h1.89v-.29Zm.41,2.75c0-.52,0-.74-.04-.98h1.4c-.02,.18-.03,.32-.04,.61h1.75c.5,0,.8-.02,1.02-.04v1.33c-.31-.03-.64-.04-.97-.04h-1.79v.65h1.57c.41,0,.6,0,.83-.04-.04,.33-.04,.59-.04,1.01v1.53c0,.58,.02,.91,.05,1.23h-1.43v-.35h-2.79v.34h-1.41c.04-.26,.05-.65,.05-1.14v-1.81c0-.34,0-.58-.03-.81,.23,.03,.43,.04,.82,.04h1.06v-1.52Zm-.5,3.66h2.79v-.88h-2.79v.88Z"/>
  </g>
</svg>