<?xml version="1.0" encoding="UTF-8"?>
<svg id="_レイヤー_1" data-name="レイヤー 1" xmlns="http://www.w3.org/2000/svg" viewBox="0 0 100 100">
  <defs>
    <style>
      .cls-1 {
        fill: #fff;
      }

      .cls-2 {
        fill: #3e3a39;
      }

      .cls-3 {
        fill: #3d3939;
      }
    </style>
  </defs>
  <g>
    <path class="cls-1" d="M17.11,2.5H82.89c1.68,0,3.05,1.36,3.05,3.05V71.33c0,1.68-1.36,3.05-3.05,3.05H17.11c-1.68,0-3.04-1.36-3.04-3.04V5.54c0-1.68,1.36-3.04,3.04-3.04Z"/>
    <path class="cls-2" d="M82.89,5c.3,0,.55,.24,.55,.55V71.33c0,.3-.24,.55-.55,.55H17.11c-.3,0-.55-.24-.55-.55V5.55c0-.3,.24-.55,.55-.55H82.89M82.89,0H17.11C14.05,0,11.56,2.48,11.56,5.55V71.33c0,3.06,2.48,5.55,5.55,5.55H82.89c3.06,0,5.55-2.48,5.55-5.55V5.55C88.44,2.48,85.95,0,82.89,0h0Z"/>
  </g>
  <g>
    <path class="cls-2" d="M53.53,25.77c-2.98-2.99-7.84-2.99-10.82,0l-16.29,16.29c-2.99,2.99-2.99,7.84,0,10.83l.77,.77,8.36,8.36c2.99,2.99,7.84,2.99,10.83,0l9.43-9.42,6.87-6.87c2.98-2.99,2.98-7.84,0-10.83l-9.14-9.14Zm6.19,17.01l-6.1,6.1H28.64c-.57-1.28-.32-2.83,.72-3.88l3.57-3.57,4.28,4.28c.24,.24,.64,.24,.88,0,.25-.24,.25-.64,0-.89l-4.27-4.27,3.69-3.69h0s4.27,4.27,4.27,4.27c.24,.24,.65,.24,.89,0,.24-.25,.24-.65,0-.89l-4.28-4.27,3.7-3.7,4.28,4.27c.24,.25,.64,.25,.88,0,.24-.24,.24-.64,0-.88l-4.28-4.28,2.69-2.68c1.36-1.36,3.57-1.36,4.93,0l9.14,9.14c1.36,1.36,1.36,3.58,0,4.93Z"/>
    <path class="cls-2" d="M75.82,15.66c0-.78-.3-1.57-.89-2.16-1.19-1.19-3.13-1.19-4.32,0l-1.26,1.26-1.17,1.15c-.09-.03-.18-.07-.28-.09-2.48-.79-5.44-.32-7.96,1.34-.15,.1-.3,.21-.45,.32-.03,.02-.05,.04-.08,.05h0s0,0-.01,.01l3.95,3.95,3.6,3.6,3.95,3.95c.13-.18,.26-.36,.38-.55,1.72-2.62,2.15-5.71,1.24-8.26l2.42-2.42c.59-.59,.89-1.38,.89-2.16Z"/>
    <polygon class="cls-2" points="56.74 17.12 56.71 17.09 56.71 17.09 56.7 17.07 52.11 21.66 66.77 36.33 71.34 31.76 71.35 31.75 71.35 31.75 71.36 31.74 56.74 17.12"/>
  </g>
  <g>
    <path class="cls-3" d="M36.59,81.48c0-.47-.02-.71-.06-1.02h1.17c-.05,.3-.06,.56-.06,1.01v.82h.31c.2,0,.32-.01,.5-.04v1.04c-.21-.02-.34-.03-.52-.03h-.29v1.51c.2-.08,.32-.12,.68-.27l.02,.99q-.5,.2-.7,.28v2.86c0,.53-.12,.74-.47,.85-.26,.09-.52,.12-.95,.12-.09,0-.23,0-.44-.02-.04-.4-.09-.62-.24-1.02,.31,.05,.55,.07,.75,.07,.24,0,.3-.05,.3-.29v-2.2l-.45,.15q-.09,.03-.22,.08s-.19,.07-.31,.12l-.22-1.11c.27-.03,.53-.1,1.2-.28v-1.84h-.38c-.24,0-.44,.01-.7,.04v-1.06c.22,.04,.41,.05,.71,.05h.37v-.81Zm7.25,4.2q-.11,.17-.31,.48c-.35,.55-.85,1.13-1.38,1.62,.81,.45,1.58,.7,2.68,.87-.28,.45-.34,.59-.52,1.08-1.28-.3-2.22-.7-3.03-1.27-.82,.55-1.7,.93-2.84,1.23-.21-.48-.32-.68-.57-1,1.01-.17,1.74-.43,2.56-.92-.41-.4-.66-.73-1.12-1.43l.95-.35h-.59c-.35,0-.53,.01-.75,.04v-.52h-.4c.02-.21,.03-.32,.03-.66v-.82c0-.27,0-.42-.03-.6,.17,.02,.34,.03,.78,.03h.07c-.15-.45-.27-.73-.51-1.17l.88-.27c.24,.44,.29,.55,.51,1.14l-.79,.3h1.72c-.17-.63-.23-.79-.47-1.32l.94-.25c.26,.61,.32,.77,.45,1.3l-.86,.27h1.25c.42-.66,.62-1.07,.84-1.81l1,.36c-.28,.59-.52,1.01-.81,1.45h.12c.5,0,.73,0,1-.04-.03,.22-.03,.36-.03,.73v.71c0,.22,.01,.4,.04,.63h-.96l.15,.19Zm.55-4.33q-.14,.03-.52,.11c-1.16,.23-3.21,.44-5.08,.51-.08-.36-.18-.62-.36-.93h.26c1.76,0,4.24-.32,4.93-.63l.77,.94Zm-.83,2.99h-4v.72h3.13c.31,0,.49-.01,.62-.04l.25,.31v-.99Zm-3.26,1.65c.3,.51,.56,.82,.99,1.19,.48-.39,.71-.67,1.03-1.19h-2.02Z"/>
    <path class="cls-3" d="M50.71,81.27q-.29,.07-1.14,.27c-1.2,.29-2.23,.44-3.68,.54-.12-.4-.19-.57-.38-.95,.48,0,1.25-.06,2-.15,1.02-.12,1.87-.33,2.44-.6l.76,.89Zm.05,.87c-.36,.79-.65,1.32-1,1.85,.24-.01,.37-.02,.52-.04l.36,.59c-.18,.14-.22,.17-.37,.32-.41,.39-.82,.72-1.38,1.12v.14c.74-.09,1.04-.13,1.96-.28v.95c-.85,.15-.88,.15-1.96,.29v1.55c0,.35-.12,.61-.35,.74-.24,.13-.56,.18-1.27,.18-.26,0-.43,0-.8-.03-.06-.4-.12-.65-.27-1.05,.38,.06,.81,.09,1.24,.09,.32,0,.41-.05,.41-.24v-1.11c-1.75,.19-1.91,.21-2.23,.28l-.11-1.12c.08,.01,.09,.01,.16,.01,.33,0,.84-.04,2.18-.16,0-.32,0-.48-.04-.69h.3c.32-.18,.54-.34,.82-.61h-2.26c-.44,0-.6,.01-.86,.05v-1.03c.25,.04,.47,.05,.98,.05h1.92c.51-.78,.78-1.33,1.06-2.24l.99,.39Zm-3.95-.02c.25,.44,.43,.87,.59,1.41l-.89,.36c-.15-.52-.33-.95-.58-1.41l.88-.36Zm1.55-.18c.26,.47,.39,.79,.57,1.42l-.9,.31c-.14-.55-.28-.91-.55-1.45l.88-.28Zm3.96,6.25c0,.2,.11,.25,.53,.25,.53,0,.71-.08,.76-.35,.08-.34,.1-.81,.11-1.99,.44,.25,.63,.32,1.03,.39-.05,2.74-.21,2.97-2.08,2.97-1.12,0-1.44-.2-1.44-.93v-6.86c0-.45-.02-.79-.05-1.12h1.2c-.04,.33-.06,.69-.06,1.12v6.52Z"/>
    <path class="cls-3" d="M59.47,85.54q-.65,.04-2.21,.11c-.48,.02-.78,.04-.88,.05l-.12-1.01c.26,.02,.42,.03,.73,.03,.18,0,.41,0,.86,0,.23-.32,.42-.63,.59-.97h-.48c-.67,0-.91,0-1.2,.05v-.48h-1q0-.16,.02-.34c.01-.13,.02-.36,.02-.6v-.51c0-.3,0-.49-.04-.74,.36,.03,.67,.04,1.24,.04h2.44v-.14c0-.24-.02-.45-.05-.65h1.22c-.03,.19-.05,.4-.05,.65v.14h2.59c.62,0,.95,0,1.26-.04-.02,.23-.03,.36-.03,.78v.55c0,.32,.02,.57,.05,.82h-1.02v.52c-.29-.04-.49-.05-1.08-.05h-.23c.65,.54,.81,.69,1.78,1.67l-.81,.69c-.32-.39-.43-.52-.63-.73q-.64,.04-1.87,.12v.93h2.09c.5,0,.7,0,1.01-.04v1.04c-.32-.04-.55-.05-1.03-.05h-2.07v.95h2.8c.62,0,.93-.02,1.24-.06v1.09c-.35-.04-.75-.06-1.37-.06h-6.31c-.61,0-1.01,.02-1.35,.06v-1.09c.32,.05,.63,.06,1.24,.06h2.65v-.95h-1.9c-.5,0-.73,0-1.05,.05v-1.04c.29,.03,.48,.04,1.07,.04h1.88v-.88Zm3.87-3.42h-6.5v.67c.23,.02,.47,.03,1,.03h4.46c.57,0,.82,0,1.04-.03v-.67Zm-3.75,1.62c-.23,.42-.33,.59-.58,.94q1.87-.07,2.66-.12c-.2-.18-.27-.25-.53-.46l.61-.36h-2.16Z"/>
  </g>
</svg>