<?xml version="1.0" encoding="UTF-8"?>
<svg id="_レイヤー_1" data-name="レイヤー 1" xmlns="http://www.w3.org/2000/svg" viewBox="0 0 100 100">
  <defs>
    <style>
      .cls-1 {
        fill: #fff;
      }

      .cls-2 {
        fill: #3e3a39;
      }

      .cls-3 {
        fill: #1a1a1a;
      }
    </style>
  </defs>
  <g>
    <path class="cls-2" d="M25.8,87.03c-.13,.02-.16,.02-.34,.05-.35,.06-.92,.13-1.36,.18v.79c.52-.12,.84-.15,1.31-.15,1.11,0,1.94,.28,2.46,.82,.4,.41,.61,.97,.61,1.59,0,1.27-.96,2.22-2.24,2.22-1.12,0-1.76-.75-1.76-2.04v-.22c.66-.19,.87-.28,1.37-.55,0,.19-.02,.29-.02,.48,0,.28,.02,.43,.07,.57,.06,.16,.22,.27,.4,.27,.39,0,.65-.32,.65-.77,0-.31-.16-.6-.44-.79-.24-.15-.59-.23-1.07-.23-.44,0-.81,.04-1.32,.18v1.59s0,.23,0,.23c0,.55-.04,.75-.17,.94-.17,.25-.51,.4-.92,.4-.67,0-1.43-.28-1.95-.71-.37-.32-.58-.74-.58-1.17,0-.49,.3-1.02,.84-1.49,.36-.32,.74-.54,1.34-.8v-1.06l-.68,.02-.87-.02s-.11,0-.19,0l-.02-1.41c.29,.05,.66,.08,1.23,.08h.34q.13,0,.18,0v-.29c0-.67,0-.88-.06-1.21h1.56c-.04,.32-.05,.53-.05,1.12v.29c.61-.06,1.17-.17,1.65-.31l.04,1.42Zm-3.12,2.85c-.42,.2-.75,.55-.75,.8,0,.11,.06,.2,.2,.29,.13,.08,.3,.14,.41,.14,.12,0,.14-.06,.14-.36v-.87Zm5.03-1.98c-.46-.8-.97-1.41-1.77-2.12l1.19-.8c.77,.62,1.32,1.25,1.77,1.99l-1.19,.93Z"/>
    <path class="cls-2" d="M30.93,85.57c.34,.08,.67,.11,1.53,.11v-.16c0-.11,0-.19,0-.22,0-.25-.03-.55-.06-.74h1.58c-.06,.3-.07,.4-.1,1.05,.8-.08,1.14-.14,1.47-.25l.04,1.4q-.13,0-.58,.08c-.27,.04-.58,.07-.96,.1v.46c0,.05,0,.09,0,.11,0,.04,0,.07,0,.13,.38,.32,.52,.63,.52,1.14,0,.32-.07,.6-.22,.89q-.04,.09-.32,.49c-.19,.31-.28,.51-.28,.68,0,.28,.35,.4,1.21,.4,.72,0,1.34-.09,1.61-.23,.23-.12,.32-.31,.32-.64,0-.46-.1-.98-.32-1.67,.74,.26,1.09,.35,1.67,.41,.02,.07,.03,.13,.04,.17,.13,.55,.17,.89,.17,1.35,0,.76-.29,1.29-.85,1.56-.4,.2-.76,.29-1.53,.36-.39,.04-.86,.06-1.17,.06-.92,0-1.7-.13-2.14-.36-.39-.2-.59-.54-.59-.99,0-.22,.05-.45,.15-.67q-.12,0-.14,0c-.3,0-.65-.18-.85-.44-.22-.28-.34-.68-.34-1.05,0-.94,.67-1.66,1.63-1.73,0-.16,0-.18,0-.21v-.22h-.51q-.23,0-.61-.02c-.08,0-.15,0-.22,0h-.19l.02-1.38Zm1.66,2.94c-.25,0-.44,.23-.44,.54,0,.24,.13,.41,.35,.41,.26,0,.45-.23,.45-.55,0-.25-.11-.38-.32-.39-.02,0-.04,0-.04,0Zm4.37-3.43c1.02,.86,1.45,1.32,2.07,2.21l-1.23,.96c-.49-.82-1.3-1.75-2.01-2.31l1.17-.86Z"/>
    <path class="cls-2" d="M40.8,86.21c.36-.04,.58-.07,1.19-.21,1.84-.38,2.53-.48,3.44-.48s1.69,.19,2.23,.57c.7,.5,1.11,1.31,1.11,2.23,0,1.32-.77,2.47-2.11,3.11-.91,.43-1.79,.64-3.38,.78-.22-.81-.29-.98-.64-1.63,1.11,0,1.88-.11,2.57-.32,.71-.21,1.21-.54,1.55-1.01,.2-.27,.29-.56,.29-.9,0-.36-.11-.65-.33-.87-.29-.3-.7-.43-1.33-.43-.95,0-2.04,.2-3.47,.64-.33,.1-.57,.19-.77,.29l-.34-1.77Z"/>
    <path class="cls-2" d="M56.63,86.43c.36,.4,.5,.55,.79,.78,.56,.45,.97,.68,1.76,1-.33,.41-.52,.72-.75,1.23-.64-.33-.87-.48-1.26-.75-.38,.68-.67,1.11-1.11,1.6,.95,.52,2.02,.89,3.23,1.1-.32,.49-.45,.77-.65,1.42-.95-.23-1.51-.41-2.2-.72-.55-.26-.98-.51-1.45-.85-.6,.44-1.22,.77-1.89,1.04-.6,.25-1.18,.44-1.68,.58-.18-.55-.33-.86-.66-1.32,.64-.13,.88-.19,1.37-.36,.81-.28,1.3-.5,1.84-.86-.5-.56-.82-1.02-1.13-1.63-.36,.3-.58,.46-1.13,.83-.29-.47-.52-.76-.9-1.12,.72-.38,1.15-.67,1.65-1.13,.3-.27,.43-.42,.76-.85h-1.06c-.57,0-.95,.02-1.23,.05v-1.41c.26,.04,.68,.05,1.23,.05h2.09v-.23c0-.18-.02-.38-.05-.55h1.52c-.04,.16-.04,.34-.04,.55v.23h2.21c.54,0,.96-.02,1.22-.05v1.41c-.24-.04-.71-.05-1.24-.05h-1.23Zm-2.6,1.66c.32,.68,.53,.99,.96,1.41,.39-.41,.68-.86,.94-1.42l1.17,.57c-.68-.5-1.06-.86-1.64-1.58l1.02-.63h-3.15l1.12,.61c-.51,.68-.82,1.01-1.51,1.58l1.09-.54Z"/>
    <path class="cls-2" d="M67.21,90.86c.59,.47,1.2,.67,2.28,.73-.23,.5-.35,.81-.45,1.3-.68-.13-1.05-.24-1.57-.5-.5-.25-.83-.5-1.16-.89-.55,.69-1.35,1.12-2.66,1.39-.14-.5-.27-.78-.52-1.17,0,.42-.06,.63-.2,.8-.17,.21-.55,.3-1.23,.3-.14,0-.28,0-.55-.03-.05-.54-.11-.8-.29-1.27,.29,.04,.47,.04,.71,.04,.19,0,.23-.05,.23-.28v-1.47c-.13,.04-.19,.04-.32,.08-.02,0-.18,.05-.49,.14l-.13-1.37c.22,0,.47-.05,.93-.16v-1.35h-.23c-.19,0-.37,0-.62,.04v-1.32c.21,.03,.4,.04,.64,.04h.22v-.6c0-.48,0-.67-.04-.93h1.41c-.04,.26-.04,.46-.04,.93v.6c.2,0,.28,0,.41-.02v.23c.47-.4,.64-.59,.95-1.05,.17-.25,.29-.5,.36-.78l1.4,.12s-.07,.15-.15,.32h1.04c.3,0,.44,0,.65-.04l.66,.64c-.09,.1-.15,.19-.24,.31-.11,.16-.3,.41-.48,.64h.51c.43,0,.57,0,.79-.03-.02,.24-.03,.5-.03,.9v2.54c.18,0,.27-.02,.37-.03v1.23c-.26-.03-.48-.04-.89-.04h-1.28Zm-2.93,0c-.41,0-.6,0-.87,.04v-1.23c.11,.02,.19,.02,.41,.03v-2.56c-.1-.2-.14-.26-.28-.46v.5c-.13,0-.25-.02-.35-.02h-.06v.98c.18-.06,.25-.09,.47-.17v1.25l-.47,.17v2.26c.42-.04,.72-.08,1.02-.17,.5-.15,.85-.35,1.09-.62h-.95Zm.64-3.47v1.34c.31-.34,.41-.62,.43-1.34h-.43Zm.76,2.3c.02-.14,.03-.21,.03-.39-.08,.09-.11,.13-.2,.22-.21-.25-.34-.37-.58-.54v.71h.76Zm.58-3.41c.16-.2,.22-.25,.33-.43h-1.13c-.13,.17-.19,.26-.33,.43h1.13Zm.73,2.88c-.02,.27-.03,.31-.04,.53h.87v-.55c-.35,0-.39,0-.47,0-.57,0-.85-.21-.85-.63v-1.13h-.26c-.03,.86-.12,1.28-.4,1.72l1.14,.05Zm.83-1.77h-.44v.57c0,.18,.04,.22,.26,.22h.11s.05,0,.07,0v-.77Z"/>
    <path class="cls-2" d="M71.22,86.85c.21,.02,.41,.03,.94,.03h.32c.63-.88,1.22-1.95,1.4-2.58l1.54,.41c-.07,.12-.07,.13-.19,.34-.38,.72-.73,1.3-1.11,1.81,1.64-.04,1.86-.05,2.75-.13-.4-.49-.58-.68-1.03-1.13l1.23-.67c1.03,1.05,1.63,1.79,2.44,2.97l-1.25,.77c-.24-.38-.32-.5-.51-.77-1.63,.2-2.72,.26-5.72,.37-.28,0-.4,.02-.61,.04l-.2-1.46Zm.76,5.92c.04-.34,.05-.72,.05-1.2v-1.95c0-.39-.02-.67-.04-.93,.2,.02,.48,.03,.93,.03h4.74c.44,0,.72,0,.93-.03-.04,.27-.05,.5-.05,.93v1.95c0,.51,.02,.84,.05,1.2h-1.43v-.38h-3.76v.38h-1.41Zm1.4-1.64h3.79v-1.16h-3.79v1.16Z"/>
  </g>
  <g>
    <rect class="cls-1" x="14.19" y="2.5" width="71.62" height="71.62" rx="3.04" ry="3.04"/>
    <path class="cls-2" d="M82.76,5c.3,0,.55,.24,.55,.55V71.07c0,.3-.24,.55-.55,.55H17.24c-.3,0-.55-.24-.55-.55V5.55c0-.3,.24-.55,.55-.55H82.76M82.76,0H17.24C14.17,0,11.69,2.48,11.69,5.55V71.07c0,3.06,2.48,5.55,5.55,5.55H82.76c3.06,0,5.55-2.48,5.55-5.55V5.55C88.31,2.48,85.83,0,82.76,0h0Z"/>
  </g>
  <g>
    <path class="cls-3" d="M56.31,17.74c-1.57,2.26-4.68,2.82-6.94,1.25-2.26-1.57-2.82-4.68-1.25-6.94,1.57-2.26,4.68-2.82,6.94-1.25,2.26,1.57,2.82,4.68,1.25,6.94Z"/>
    <path class="cls-3" d="M71.14,45.44c.01,2.26-1.82,4.11-4.08,4.12-2.26,.01-4.11-1.81-4.12-4.07,0-2.26,1.82-4.11,4.08-4.12,2.26-.01,4.11,1.81,4.11,4.07Z"/>
    <path class="cls-3" d="M61.88,46.61l-1.57-7.29c-.16-.73-.69-1.25-1.41-1.18-.72,.06-1.25,.69-1.18,1.41l.16,3.94h-3.05s.43-1.21,.68-1.98c.4-1.29-.21-2.24-1.31-2.49-.81-.19-6.33-1.3-6.33-1.3-.75-.17-1.49,.3-1.66,1.04-.17,.75,.3,1.49,1.05,1.66l3.7,1.16s-1.03,1.53-1.98,3.21c-1.18,2.07-.21,4.86,2.32,4.86h8.36c1.58,0,2.56-1.27,2.24-3.04Z"/>
    <path class="cls-3" d="M55.32,33.78l-7.54-2.15,.16-9.42c0-4.39-5.67-6.52-8.36-3.07-2.58,3.3-10.1,13.84-10.1,13.84-1.46,2.17-1.13,3.52-.87,5.55l2.54,25.66c0,1.4,1.13,2.53,2.53,2.53s2.53-1.13,2.53-2.53l1.58-26.8,4.84-6.64,.16,2.42c.09,1.41,.65,2.18,1.78,2.47l9.8,1.92c1.04,.27,2.1-.36,2.36-1.4,.27-1.04-.36-2.1-1.4-2.36Z"/>
    <rect class="cls-3" x="48.67" y="50.45" width="22.95" height="3.27" rx=".58" ry=".58"/>
  </g>
</svg>