<?xml version="1.0" encoding="UTF-8"?>
<svg id="_レイヤー_1" data-name="レイヤー 1" xmlns="http://www.w3.org/2000/svg" viewBox="0 0 100 100">
  <defs>
    <style>
      .cls-1 {
        fill: #fff;
      }

      .cls-2 {
        fill: #3e3a39;
      }

      .cls-3 {
        fill: #1a1a1a;
      }

      .cls-4 {
        fill: #3d3939;
      }
    </style>
  </defs>
  <g>
    <path class="cls-4" d="M44.46,85.75c-.03,.12-.04,.19-.06,.43-.09,.95-.43,1.74-.97,2.29-.31,.31-.75,.61-1.18,.82-.27,.13-.52,.22-1.08,.38-.22-.48-.38-.72-.72-1.11,.62-.09,.94-.17,1.37-.37,.7-.32,1.1-.71,1.29-1.24,.09-.27,.16-.66,.16-.94,0-.09,0-.21-.03-.32l1.22,.06Zm-3.82,.79c.04-.23,.05-.45,.05-.72v-.71c0-.31,0-.51-.04-.74,.31,.03,.58,.04,1.07,.04h6.61c.48,0,.73-.01,1.08-.04-.03,.21-.04,.38-.04,.71v.73c0,.3,.01,.51,.05,.73h-1.17v-1.16h-6.46v1.16h-1.15Zm3.78-5.38c0-.36,0-.53-.05-.77h1.22c-.05,.2-.06,.4-.06,.77v.12h2.7c.55,0,.94-.02,1.2-.06v1.06c-.31-.03-.65-.05-1.17-.05h-2.73v.66h2.23c.51,0,.76,0,1.02-.05v1.03c-.28-.03-.52-.04-1.02-.04h-5.47c-.47,0-.72,0-1.01,.04v-1.03c.26,.04,.51,.05,1.01,.05h2.13v-.66h-2.57c-.53,0-.84,0-1.18,.05v-1.06c.26,.04,.65,.06,1.21,.06h2.54v-.12Zm2.08,6.98c0,.26,.09,.3,.77,.3s.92-.04,1.01-.17,.13-.4,.18-1.24c.34,.17,.64,.27,1.07,.34-.08,1.01-.23,1.55-.5,1.8-.23,.22-.7,.29-1.85,.29-1.52,0-1.79-.13-1.79-.86v-2.05c0-.41,0-.62-.04-.83h1.2c-.04,.23-.05,.41-.05,.78v1.64Z"/>
    <path class="cls-4" d="M54.71,80.98c0-.27-.02-.43-.05-.61h1.2c-.04,.16-.05,.33-.05,.62v.36h2.48c.59,0,.99-.02,1.26-.06v1.11c-.3-.03-.75-.05-1.24-.05h-5.92c0,4.24-.23,5.75-1.15,7.25-.3-.37-.45-.52-.89-.86,.4-.62,.59-1.16,.75-2.03,.15-.85,.21-1.92,.21-3.89,0-.85-.01-1.17-.04-1.52,.35,.03,.73,.05,1.18,.05h2.26v-.37Zm.38,2.61c0-.55,0-.74-.05-.99h1.14c-.03,.23-.04,.44-.04,.99v.12h2.1c.51,0,.83-.02,1.06-.06v1.1c-.29-.04-.63-.06-1.02-.06h-2.14v1.05h1.83c.42,0,.64-.01,.88-.04-.03,.32-.04,.58-.04,1.01v1.63c0,.62,.01,.98,.06,1.3h-1.14v-.43h-3.7v.42h-1.13c.04-.28,.06-.68,.06-1.23v-1.82c0-.37,0-.62-.04-.88,.25,.03,.47,.04,.89,.04h1.28v-2.15Zm-1.06,4.63h3.7v-1.48h-3.7v1.48Z"/>
  </g>
  <g>
    <path class="cls-1" d="M17.11,2.5H82.89c1.68,0,3.05,1.36,3.05,3.05V71.33c0,1.68-1.36,3.05-3.05,3.05H17.11c-1.68,0-3.04-1.36-3.04-3.04V5.54c0-1.68,1.36-3.04,3.04-3.04Z"/>
    <path class="cls-2" d="M82.89,5c.3,0,.55,.24,.55,.55V71.33c0,.3-.24,.55-.55,.55H17.11c-.3,0-.55-.24-.55-.55V5.55c0-.3,.24-.55,.55-.55H82.89M82.89,0H17.11C14.05,0,11.56,2.48,11.56,5.55V71.33c0,3.06,2.48,5.55,5.55,5.55H82.89c3.06,0,5.55-2.48,5.55-5.55V5.55C88.44,2.48,85.95,0,82.89,0h0Z"/>
  </g>
  <path class="cls-3" d="M76.19,69.9H23.75c-.3-.42-.83-.82-.85-1.25-.1-1.73-.04-3.46-.04-5.32h3.6c.07-.24,.14-.36,.14-.47,.01-5.47,.03-10.94,0-16.41,0-.37-.41-.85-.75-1.08-1.21-.8-2.31-1.78-2.39-3.24-.16-3.01-.1-6.03-.1-9.05,0-.26,.21-.52,.33-.78,1.58-3.36,3.19-6.7,4.72-10.08,.64-1.42,1.61-2.02,3.15-2,4.24,.04,8.49,.02,12.74,.02,8.04,0,16.08,.02,24.12-.02,1.54,0,2.55,.57,3.15,2,.58,1.39,1.16,2.8,1.94,4.08,2.69,4.44,3.73,9.22,3.16,14.36,0,.08,0,.16,0,.24,.03,1.87-.76,3.35-2.36,4.27-.81,.46-.99,1.01-.98,1.87,.03,4.98,.01,9.96,.02,14.94,0,.43,.05,.86,.09,1.41h3.73c0,1.55,.1,2.98-.04,4.39-.07,.73-.58,1.41-.9,2.11Zm-44.15-6.94h35.77c.04-.24,.08-.4,.08-.55,0-5.26,0-10.53,.01-15.79,0-1.11-.56-1.22-1.43-.88-1.87,.73-3.72,.71-5.61,.03-.37-.14-.89-.13-1.26,0-1.84,.67-3.65,.66-5.51,.04-.45-.15-1.03-.14-1.48,.01-1.77,.59-3.5,.59-5.28,0-.45-.15-1.04-.18-1.49-.03-1.85,.63-3.66,.64-5.51-.03-.38-.14-.89-.15-1.26-.01-1.88,.69-3.73,.69-5.61,0-1.08-.4-1.43-.15-1.43,.98-.01,3.18,0,6.37,0,9.55,0,2.2,0,4.39,0,6.69Zm15.26-39.99c-.05,.32-.1,.52-.1,.71-.23,5.66-.49,11.32-.68,16.98-.06,1.87,1.22,2.93,3.39,2.96,2.22,.03,3.56-1.05,3.53-2.95-.06-3.87-.14-7.74-.29-11.61-.08-2.02-.3-4.03-.46-6.08h-5.38Zm-5.4-.03c-1.8,0-3.46-.02-5.11,.03-.21,0-.49,.39-.58,.66-1.84,5.42-4.24,10.73-3.43,16.69,.01,.08,0,.16,0,.24,.02,1.94,1.26,3.04,3.45,3.06,2.26,.02,3.46-1.07,3.49-3.11,.05-2.61-.06-5.24,.27-7.81,.42-3.21,1.22-6.38,1.9-9.76Zm16.05,0c1.5,6.21,2.69,12.15,2.34,18.3-.04,.63,.76,1.53,1.41,1.91,1.29,.76,2.78,.72,4.08-.07,.54-.33,1.23-.98,1.26-1.52,.12-2.68,.46-5.46-.07-8.05-.68-3.37-2.1-6.59-3.23-9.86-.1-.28-.44-.68-.69-.69-1.62-.06-3.23-.03-5.1-.03Z"/>
  <g>
    <path class="cls-2" d="M29.14,14.54c.05,.43,.13,.65,.31,.89,.29,.36,.79,.56,1.4,.56,.92,0,1.48-.41,1.48-1.08,0-.37-.19-.7-.5-.84-.25-.12-.55-.2-1.8-.49-1.1-.24-1.49-.38-1.93-.7-.75-.53-1.16-1.33-1.16-2.3,0-1.85,1.49-3.01,3.85-3.01,1.52,0,2.69,.47,3.33,1.37,.3,.4,.44,.76,.6,1.44l-2.54,.28c-.14-.78-.58-1.1-1.49-1.1-.73,0-1.27,.4-1.27,.95,0,.34,.18,.59,.56,.77q.24,.11,1.65,.4c.91,.19,1.49,.4,1.94,.68,.86,.54,1.29,1.34,1.29,2.45,0,.9-.29,1.67-.84,2.21-.7,.67-1.75,1.02-3.15,1.02-1.02,0-2.03-.22-2.67-.59-.6-.34-1.04-.85-1.29-1.54-.12-.29-.18-.56-.26-1.12l2.5-.24Z"/>
    <path class="cls-2" d="M41.23,15.98c0,.72,.02,1.25,.1,1.81h-2.65c.07-.56,.1-1.06,.1-1.81v-6.04h-1.42c-.76,0-.96,.01-1.81,.08v-2.29c.4,.05,1.06,.08,1.79,.08h5.25c.84,0,1.32-.02,1.87-.08v2.29c-.54-.06-1.01-.08-1.87-.08h-1.35v6.04Z"/>
    <path class="cls-2" d="M54.76,12.76c0,3.17-1.93,5.27-4.84,5.27s-4.83-2.05-4.83-5.23,1.9-5.19,4.85-5.19,4.83,2.02,4.83,5.16Zm-2.49,.02c0-1.94-.89-3.12-2.34-3.12s-2.36,1.19-2.36,3.12,.9,3.17,2.36,3.17,2.34-1.2,2.34-3.17Z"/>
    <path class="cls-2" d="M62.03,17.79c-.07-.38-.22-.88-.59-1.87-.38-1.04-.53-1.32-.83-1.58-.25-.23-.55-.32-.94-.32h-1.22v1.97c0,.82,.02,1.26,.1,1.81h-2.58c.07-.55,.1-.91,.1-1.8v-6.45c0-.74-.02-1.19-.1-1.76,.53,.02,.97,.04,1.79,.04h3.12c1.94,0,3.07,1.01,3.07,2.73,0,.85-.24,1.52-.71,1.97-.3,.28-.55,.41-1.14,.6,.61,.19,.89,.47,1.27,1.32,.18,.38,.35,.79,.89,2.09,.13,.34,.28,.64,.58,1.27h-2.81Zm-1.7-5.83c.71,0,1.14-.43,1.14-1.12s-.38-1.02-1.13-1.02h-1.88v2.13h1.87Z"/>
    <path class="cls-2" d="M73.35,17.88c-.52-.06-.95-.08-1.98-.08h-3.78c-.91,0-1.25,.01-1.76,.04,.07-.48,.1-.92,.1-1.75v-6.55c0-.74-.02-1.16-.1-1.75,.49,.02,.83,.04,1.76,.04h3.83c.82,0,1.22-.02,1.79-.08v2.24c-.55-.06-.98-.08-1.79-.08h-3.12v1.76h2.59c.79,0,1.08-.01,1.8-.08v2.22c-.56-.06-.97-.08-1.8-.08h-2.59v2.01h3.09c.91,0,1.44-.02,1.96-.08v2.24Z"/>
  </g>
</svg>