<?xml version="1.0" encoding="UTF-8"?>
<svg id="_レイヤー_1" data-name="レイヤー 1" xmlns="http://www.w3.org/2000/svg" viewBox="0 0 100 100">
  <defs>
    <style>
      .cls-1 {
        fill: #3e3a39;
      }

      .cls-2 {
        fill: #1a1a1a;
      }
    </style>
  </defs>
  <g>
    <g>
      <g>
        <path class="cls-2" d="M37.8,16.44c.33,0,.65,0,.98,.01v-1.64c0-.54-.44-.98-.98-.98-.54,0-.98,.44-.98,.98v1.64c.33,0,.65-.01,.98-.01Z"/>
        <path class="cls-2" d="M38.78,50.04h-1.96v4.48c-.78,.18-1.49,.57-2.07,1.15-.82,.82-1.26,1.9-1.26,3.05,0,2.38,1.94,4.32,4.32,4.32,1.15,0,2.24-.45,3.05-1.26,.82-.82,1.26-1.9,1.26-3.05,0-1.15-.45-2.24-1.26-3.05-.58-.58-1.29-.97-2.07-1.15v-4.48Zm1.37,8.69c0,.63-.24,1.22-.69,1.66s-1.04,.69-1.66,.69c-1.3,0-2.35-1.06-2.35-2.35,0-.63,.24-1.22,.69-1.66s1.04-.69,1.66-.69c.63,0,1.22,.24,1.66,.69s.69,1.04,.69,1.66Z"/>
      </g>
      <path class="cls-2" d="M46.04,21.52c0,.91-.73,1.49-1.64,1.34-4.37-.72-8.84-.72-13.21,0-.9,.15-1.64-.44-1.64-1.34,0-.34,0-.68,0-1.02,0-.91,.73-1.8,1.64-1.95,4.37-.72,8.84-.72,13.21,0,.9,.15,1.64,1.05,1.64,1.95,0,.34,0,.68,0,1.02Z"/>
      <path class="cls-2" d="M46.04,38.79c0,.91-.73,1.49-1.64,1.34-4.37-.72-8.84-.72-13.21,0-.9,.15-1.64-.44-1.64-1.34,0-.81,0-1.62,0-2.43,0-.91,.73-1.8,1.64-1.95,4.37-.72,8.84-.72,13.21,0,.9,.15,1.64,1.05,1.64,1.95,0,.81,0,1.62,0,2.43Z"/>
      <path class="cls-2" d="M37.8,23.39c-2.6,0-4.71,2.11-4.71,4.71,0,2.6,2.11,4.71,4.71,4.71,2.6,0,4.71-2.11,4.71-4.71,0-2.6-2.11-4.71-4.71-4.71Zm2.42,4.71c0,1.34-1.08,2.42-2.42,2.42-1.34,0-2.42-1.08-2.42-2.42,0-1.34,1.08-2.42,2.42-2.42,1.34,0,2.42,1.08,2.42,2.42Z"/>
      <rect class="cls-2" x="31.95" y="41.69" width="11.7" height="6.78" rx="2.04" ry="2.04"/>
    </g>
    <g>
      <path class="cls-2" d="M70.66,21.65c0,.9-.73,1.48-1.62,1.33-4.34-.72-8.77-.72-13.12,0-.9,.15-1.62-.43-1.62-1.33,0-.34,0-.68,0-1.01,0-.9,.73-1.79,1.62-1.94,4.34-.72,8.77-.72,13.12,0,.9,.15,1.62,1.04,1.62,1.94v1.01Z"/>
      <path class="cls-2" d="M70.66,47.75c0,.9-.73,1.48-1.62,1.33-4.34-.72-8.77-.72-13.12,0-.9,.15-1.62-.43-1.62-1.33,0-.34,0-.68,0-1.01,0-.9,.73-1.79,1.62-1.94,4.34-.72,8.77-.72,13.12,0,.9,.15,1.62,1.04,1.62,1.94v1.01Z"/>
      <path class="cls-2" d="M67.15,28.18c0,2.58-2.09,4.68-4.68,4.68s-4.68-2.09-4.68-4.68,2.09-4.68,4.68-4.68c2.58,0,4.68,2.09,4.68,4.68Z"/>
      <rect class="cls-2" x="56.67" y="34.2" width="11.61" height="8.49" rx="2.03" ry="2.03"/>
      <g>
        <path class="cls-2" d="M62.48,16.6c.39,0,.77,0,1.16,.02v-1.63c0-.64-.52-1.16-1.16-1.16s-1.16,.52-1.16,1.16v1.63c.39-.01,.77-.02,1.16-.02Z"/>
        <path class="cls-2" d="M63.63,54.26v-4.14c-.39-.01-.77-.02-1.16-.02s-.77,0-1.16,.02v4.14c-1.9,.51-3.31,2.25-3.31,4.31,0,2.46,2,4.47,4.47,4.47s4.47-2,4.47-4.47c0-2.06-1.41-3.8-3.31-4.31Zm-1.16,6.47c-1.19,0-2.15-.97-2.15-2.15s.97-2.15,2.15-2.15,2.15,.97,2.15,2.15-.97,2.15-2.15,2.15Z"/>
      </g>
    </g>
  </g>
  <path class="cls-1" d="M83,5c.3,0,.55,.24,.55,.55V71.33c0,.3-.24,.55-.55,.55H17.22c-.3,0-.55-.24-.55-.55V5.55c0-.3,.24-.55,.55-.55H83M83,0H17.22C14.15,0,11.67,2.48,11.67,5.55V71.33c0,3.06,2.48,5.55,5.55,5.55H83c3.06,0,5.55-2.48,5.55-5.55V5.55C88.54,2.48,86.06,0,83,0h0Z"/>
  <g>
    <path class="cls-1" d="M18.34,91.38c-.68,0-.95,0-1.33,.03,.05-.39,.07-.69,.07-1.32v-4.92c0-.48-.02-.86-.07-1.3,.46,.03,.59,.03,1.32,.03h2.36c1.46,0,2.31,.7,2.31,1.89,0,.55-.18,.98-.52,1.29-.2,.17-.36,.26-.73,.4,.44,.1,.67,.21,.94,.43,.39,.34,.59,.83,.59,1.42,0,1.3-.92,2.06-2.48,2.06h-2.45Zm2.09-4.6c.48,0,.77-.28,.77-.72s-.28-.69-.79-.69h-1.57v1.41h1.58Zm-1.58,3.12h1.66c.57,0,.91-.32,.91-.85s-.34-.83-.92-.83h-1.65v1.67Z"/>
    <path class="cls-1" d="M26.64,91.38c-.68,0-.95,0-1.33,.03,.05-.39,.07-.69,.07-1.32v-4.92c0-.48-.02-.86-.07-1.3,.46,.03,.59,.03,1.32,.03h2.36c1.46,0,2.31,.7,2.31,1.89,0,.55-.18,.98-.52,1.29-.2,.17-.36,.26-.73,.4,.44,.1,.67,.21,.94,.43,.39,.34,.59,.83,.59,1.42,0,1.3-.92,2.06-2.48,2.06h-2.45Zm2.09-4.6c.48,0,.77-.28,.77-.72s-.28-.69-.79-.69h-1.57v1.41h1.58Zm-1.58,3.12h1.66c.57,0,.91-.32,.91-.85s-.34-.83-.92-.83h-1.65v1.67Z"/>
    <path class="cls-1" d="M39.68,92.11c-.2-.24-.32-.37-.95-.97-.53,.3-1.04,.41-1.7,.41-2.23,0-3.66-1.53-3.66-3.92s1.43-3.91,3.66-3.91,3.61,1.51,3.61,3.88c0,1.06-.23,1.78-.86,2.63l.32,.32c.19,.17,.38,.33,.58,.48l-1.01,1.08Zm-1.86-3.78q.15,.18,.69,.69c.21-.39,.29-.77,.29-1.39,0-1.47-.68-2.36-1.78-2.36s-1.77,.88-1.77,2.31c0,.86,.22,1.54,.64,1.96,.29,.3,.69,.46,1.13,.46,.17,0,.33-.03,.47-.08-.28-.25-.44-.4-.69-.59l1.03-1.01Z"/>
    <path class="cls-1" d="M44.74,92.82c-.53-.71-.75-1.07-1-1.62-.43-.94-.65-1.94-.65-2.94,0-.77,.13-1.54,.37-2.25,.27-.79,.58-1.32,1.28-2.27l1.23,.86c-.57,.77-.79,1.18-1,1.79-.2,.58-.3,1.22-.3,1.93s.09,1.27,.28,1.82c.2,.61,.43,1.02,1.01,1.82l-1.22,.86Z"/>
    <path class="cls-1" d="M50.37,88.04c.08-.14,.11-.18,.2-.36h-1.22c-.46,0-.74,0-1.04,.04,.03-.3,.04-.51,.04-.96v-.54c0-.46,0-.71-.04-1,.3,.03,.58,.04,1.03,.04h.93v-.35h-1.4c-.42,0-.76,.02-1.09,.04v-1.25c.32,.04,.69,.05,1.21,.05h5.75c.54,0,.95-.02,1.21-.05v1.25c-.33-.03-.66-.04-1.08-.04h-1.45v.35h.93c.49,0,.77,0,1.04-.04-.03,.26-.04,.5-.04,.99v.53c0,.5,0,.75,.03,.98-.23-.03-.52-.04-1.02-.04h-2.3c-.05,.09-.09,.17-.13,.22q-.03,.05-.07,.14h2.98c.56,0,.82,0,1.08-.04v1.22c-.32-.04-.62-.05-1.08-.05h-.59c-.2,.42-.36,.67-.63,.98,.87,.26,1.22,.39,2.07,.72l-.82,1.12c-1.11-.51-1.41-.64-2.34-.97-1.05,.55-2.25,.8-4.17,.89-.14-.5-.26-.76-.51-1.21,.31,0,.5,0,.61,0,.96,0,1.69-.07,2.31-.24-.95-.24-1.18-.3-2.02-.48,.4-.39,.54-.54,.78-.82h-.69c-.47,0-.77,.02-1.09,.05v-1.22c.28,.04,.56,.04,1.09,.04h1.52Zm-.69-1.88v.62h.58v-.62h-.58Zm1.4,3.01c-.08,.1-.12,.13-.23,.26q1.07,.23,1.38,.32c.22-.2,.35-.36,.49-.58h-1.63Zm.47-3.92h.59v-.35h-.59v.35Zm0,1.53h.59v-.62h-.59v.62Zm1.87,0h.61v-.62h-.61v.62Z"/>
    <path class="cls-1" d="M65.43,84.59c-.13,.12-.15,.13-.32,.29-.56,.5-1.04,.87-2,1.52q.26,.17,.49,.33h.82c.52,0,.85-.02,1.04-.05l.79,.83q-.07,.07-.22,.28c-.68,1.01-1.22,1.63-2.02,2.36-.35-.44-.61-.68-1.07-.99,.53-.37,.82-.63,1.27-1.13h-1.58v2.69c0,.54-.13,.82-.47,.98-.26,.13-.73,.18-1.69,.18-.1,0-.29,0-.57,0-.06-.53-.16-.87-.38-1.4,.56,.07,.87,.09,1.37,.09,.26,0,.31-.04,.31-.24v-2.29h-1.95c-.62,0-1,.02-1.35,.05v-1.4c.32,.04,.69,.05,1.37,.05h1.98c-.61-.41-.98-.64-1.58-.97l.86-.74h-.62c-.68,0-.91,0-1.25,.04v-1.39c.36,.04,.67,.05,1.28,.05h3.85c.47,0,.64,0,.88-.04l.76,.9Zm-4.63,.43q.48,.25,1.14,.64c.35-.19,.53-.32,.94-.64h-2.08Z"/>
    <path class="cls-1" d="M69.07,88.74c-.03,1.33-.09,1.89-.31,2.77l-.97-.47c.21-.69,.31-1.42,.32-2.42l.97,.12Zm-1.18-1.58c.16,.03,.29,.04,.57,.04,.08,0,.13,0,.24,0q.16-.2,.3-.38c-.45-.63-.59-.78-1.15-1.36l.61-1.12,.25,.29c.23-.37,.51-.96,.58-1.24l1.16,.43c-.05,.08-.08,.13-.17,.31-.2,.39-.56,1-.81,1.36,.09,.12,.1,.12,.23,.29,.44-.68,.76-1.22,.87-1.49l1.07,.59c-.07,.1-.13,.18-.32,.47-.34,.51-1,1.4-1.36,1.82,.37-.02,.5-.03,.77-.04-.07-.22-.11-.3-.22-.58l.74-.29c.62-.81,1.12-1.94,1.27-2.84l1.37,.2q-.05,.13-.2,.59c-.03,.12-.04,.15-.13,.4h1.84c.38,0,.54,0,.74-.04q-.05,.34-.05,1.76c0,1.13-.08,2.69-.17,3.43-.13,1.08-.32,1.6-.67,1.85-.25,.17-.7,.25-1.43,.25-.2,0-.35,0-.68-.02-.05-.52-.13-.79-.34-1.4,.41,.05,.9,.1,1.14,.1,.4,0,.5-.11,.59-.65,.13-.67,.19-2.02,.19-3.95h-1.71c-.29,.56-.48,.85-.85,1.3-.19-.29-.36-.46-.71-.77,.18,.42,.37,.97,.58,1.72l-.94,.37c-.03-.18-.03-.2-.06-.35-.23,.02-.4,.04-.49,.04v2.72c0,.51,0,.7,.05,1h-1.34c.04-.29,.05-.48,.05-1v-2.62c-.31,.02-.55,.03-.72,.04-.43,.03-.45,.03-.6,.06l-.1-1.28Zm3.76,1.45c.17,.86,.27,1.6,.33,2.45l-1.05,.14c-.04-.95-.11-1.67-.2-2.41l.92-.18Zm1.35,1.02c-.34-1.21-.49-1.6-.82-2.27l1.19-.49c.43,.88,.64,1.4,.89,2.24l-1.26,.51Z"/>
    <path class="cls-1" d="M81.35,83.74c.69,.95,1,1.49,1.27,2.27,.24,.71,.37,1.48,.37,2.25,0,1.02-.22,2.01-.65,2.94-.25,.55-.47,.91-.99,1.62l-1.23-.86c.58-.8,.81-1.21,1.02-1.82,.18-.55,.27-1.13,.27-1.82s-.1-1.34-.3-1.93c-.21-.61-.43-1.02-1-1.79l1.24-.86Z"/>
  </g>
</svg>