<?xml version="1.0" encoding="UTF-8"?>
<svg id="_レイヤー_1" data-name="レイヤー 1" xmlns="http://www.w3.org/2000/svg" viewBox="0 0 100 100">
  <defs>
    <style>
      .cls-1 {
        fill: #fff;
      }

      .cls-2 {
        fill: #3e3a39;
      }

      .cls-3 {
        fill: #1a1a1a;
      }

      .cls-4 {
        fill: #3d3939;
      }
    </style>
  </defs>
  <g>
    <rect class="cls-1" x="14.19" y="2.5" width="71.62" height="71.62" rx="3.04" ry="3.04"/>
    <path class="cls-2" d="M82.76,5c.3,0,.55,.24,.55,.55V71.07c0,.3-.24,.55-.55,.55H17.24c-.3,0-.55-.24-.55-.55V5.55c0-.3,.24-.55,.55-.55H82.76M82.76,0H17.24C14.17,0,11.69,2.48,11.69,5.55V71.07c0,3.06,2.48,5.55,5.55,5.55H82.76c3.06,0,5.55-2.48,5.55-5.55V5.55C88.31,2.48,85.83,0,82.76,0h0Z"/>
  </g>
  <g>
    <path class="cls-3" d="M56.31,17.74c-1.57,2.26-4.68,2.82-6.94,1.25-2.26-1.57-2.82-4.68-1.25-6.94,1.57-2.26,4.68-2.82,6.94-1.25,2.26,1.57,2.82,4.68,1.25,6.94Z"/>
    <path class="cls-3" d="M71.14,45.44c.01,2.26-1.82,4.11-4.08,4.12-2.26,.01-4.11-1.81-4.12-4.07,0-2.26,1.82-4.11,4.08-4.12,2.26-.01,4.11,1.81,4.11,4.07Z"/>
    <path class="cls-3" d="M61.88,46.61l-1.57-7.29c-.16-.73-.69-1.25-1.41-1.18-.72,.06-1.25,.69-1.18,1.41l.16,3.94h-3.05s.43-1.21,.68-1.98c.4-1.29-.21-2.24-1.31-2.49-.81-.19-6.33-1.3-6.33-1.3-.75-.17-1.49,.3-1.66,1.04-.17,.75,.3,1.49,1.05,1.66l3.7,1.16s-1.03,1.53-1.98,3.21c-1.18,2.07-.21,4.86,2.32,4.86h8.36c1.58,0,2.56-1.27,2.24-3.04Z"/>
    <path class="cls-3" d="M55.32,33.78l-7.54-2.15,.16-9.42c0-4.39-5.67-6.52-8.36-3.07-2.58,3.3-10.1,13.84-10.1,13.84-1.46,2.17-1.13,3.52-.87,5.55l2.54,25.66c0,1.4,1.13,2.53,2.53,2.53s2.53-1.13,2.53-2.53l1.58-26.8,4.84-6.64,.16,2.42c.09,1.41,.65,2.18,1.78,2.47l9.8,1.92c1.04,.27,2.1-.36,2.36-1.4,.27-1.04-.36-2.1-1.4-2.36Z"/>
    <rect class="cls-3" x="48.67" y="50.45" width="22.95" height="3.27" rx=".58" ry=".58"/>
  </g>
  <g>
    <path class="cls-4" d="M24.02,87.74c0,.41-.02,.65-.08,.85-.09,.35-.45,.58-.92,.58-.63,0-1.39-.28-1.89-.71-.36-.31-.55-.7-.55-1.13,0-.47,.31-1,.86-1.48,.36-.31,.8-.57,1.46-.85v-1.54q-.09,0-.42,.02c-.15,0-.29,0-.54,0-.15,0-.43,0-.55,0-.13-.01-.22-.01-.25-.01-.04,0-.12,0-.21,.01v-1.12c.27,.06,.67,.09,1.2,.09,.1,0,.21,0,.35,0,.24,0,.29,0,.4,0v-.66c0-.57,0-.83-.06-1.15h1.25c-.05,.32-.06,.53-.06,1.09v.64c.75-.09,1.42-.22,1.93-.38l.04,1.12c-.18,.03-.37,.06-1.06,.18-.33,.06-.53,.09-.91,.13v1.3c.68-.2,1.31-.28,2.04-.28,1.67,0,2.86,1.02,2.86,2.44,0,1.3-.97,2.28-2.27,2.28-.81,0-1.38-.39-1.64-1.11-.13-.34-.17-.67-.17-1.28,.51-.14,.68-.21,1.11-.44-.02,.19-.02,.28-.02,.44,0,.42,.04,.69,.14,.88,.11,.21,.35,.34,.63,.34,.59,0,1.01-.47,1.01-1.11,0-.86-.7-1.42-1.77-1.42-.6,0-1.21,.11-1.92,.33v1.97Zm-1.12-1.61c-.75,.4-1.19,.84-1.19,1.2,0,.17,.1,.32,.33,.46,.2,.14,.45,.22,.64,.22,.17,0,.22-.09,.22-.42v-1.46Zm5.54-2.02c-.5-.79-1.23-1.58-2-2.16l.94-.63c.87,.67,1.45,1.27,1.98,2.05l-.92,.74Z"/>
    <path class="cls-4" d="M35.44,82.75c-.11,0-.15,0-.3,.04-.63,.11-1.02,.16-1.49,.19,0,.69,0,.74,0,1.06,.34,.29,.48,.6,.48,1.11,0,.34-.07,.64-.23,.95-.06,.12-.1,.19-.34,.56-.25,.39-.36,.67-.36,.91,0,.39,.48,.55,1.63,.55,.56,0,1.18-.07,1.65-.19,.54-.13,.76-.38,.76-.86,0-.36-.06-.65-.22-1.15-.15-.47-.16-.5-.25-.7,.56,.21,.78,.26,1.34,.32q.04,.13,.09,.34t.11,.39c.09,.31,.14,.65,.14,1,0,.71-.25,1.19-.78,1.47-.4,.22-.8,.32-1.55,.41-.46,.06-1,.09-1.44,.09-.9,0-1.65-.12-2.04-.33-.46-.25-.66-.57-.66-1.08,0-.31,.08-.56,.29-.89h-.02c-.09,.06-.19,.09-.3,.09-.39,0-.79-.23-1.01-.58-.15-.24-.24-.61-.24-.94,0-.96,.77-1.74,1.73-1.74h.11c0-.07,0-.23,0-.45v-.31h-.65c-.27,0-.48-.01-.77-.02-.1,0-.17,0-.22,0-.03,0-.09,0-.16,0v-1.1c.29,.08,.69,.11,1.39,.11h.43c0-.09,0-.17,0-.21v-.37c0-.39,0-.52-.05-.76h1.27c-.05,.22-.06,.28-.09,.7q-.01,.1-.01,.34c0,.09,0,.12,0,.24,.69-.06,1.38-.18,1.71-.3l.05,1.11Zm-3,1.9c-.37,0-.69,.37-.69,.8,0,.39,.21,.64,.54,.64,.39,0,.71-.37,.71-.83,0-.39-.16-.58-.52-.6-.02,0-.03,0-.04,0Zm4.57-3.24c.92,.68,1.61,1.37,2.28,2.26l-.96,.77c-.54-.85-1.44-1.8-2.22-2.34l.9-.69Z"/>
    <path class="cls-4" d="M40.55,82.71c.34-.03,.5-.05,1.17-.2,2.28-.49,2.82-.57,3.98-.57,1.98,0,3.27,1.11,3.27,2.81,0,1.36-.8,2.51-2.22,3.2-.91,.45-1.69,.63-3.52,.83-.13-.54-.22-.75-.51-1.29,1.6-.07,2.44-.22,3.29-.59,.72-.32,1.31-.89,1.51-1.48,.07-.2,.11-.45,.11-.71,0-.55-.28-1.03-.76-1.3-.32-.18-.74-.27-1.29-.27-1.04,0-2.33,.23-3.94,.71-.51,.15-.59,.17-.8,.28l-.29-1.42Z"/>
    <path class="cls-4" d="M57,85c-.59,1.01-.83,1.34-1.34,1.9,1.01,.77,2.1,1.24,3.84,1.63-.28,.41-.37,.6-.54,1.11-1.87-.52-2.99-1.06-4.1-1.98-1.06,.86-2.39,1.54-3.96,2.02-.15-.43-.27-.67-.55-1.05,1.52-.39,2.85-1,3.73-1.71-.54-.6-.89-1.12-1.32-1.96l.9-.58c.05,.09,.08,.17,.1,.21,.31,.62,.64,1.09,1.11,1.6,.29-.3,.47-.52,.72-.92,.21-.32,.27-.44,.46-.9l.95,.63Zm-3-1.82c-.5,.72-.82,1.08-1.37,1.58-.48,.44-.86,.74-1.47,1.14-.21-.34-.4-.56-.75-.87,1.18-.61,1.92-1.28,2.64-2.37l.95,.52Zm.25-2.04c0-.26-.02-.5-.06-.72h1.24c-.04,.18-.06,.42-.06,.72v.35h2.71c.56,0,.95-.02,1.24-.06v1.14c-.23-.04-.73-.06-1.26-.06h-6.36c-.61,0-.94,.02-1.25,.06v-1.14c.29,.04,.68,.06,1.25,.06h2.55v-.35Zm2.28,1.5c.47,.6,.71,.85,1.18,1.23,.53,.41,.88,.62,1.66,.97-.28,.32-.45,.57-.64,.97-.86-.48-1.25-.74-1.8-1.23-.5-.43-.77-.72-1.28-1.39l.88-.55Z"/>
    <path class="cls-4" d="M66.8,87.32c.63,.77,1.26,1.07,2.84,1.36-.22,.38-.31,.61-.43,1.01-.82-.2-1.36-.41-1.94-.78-.53-.33-.82-.61-1.14-1.08-.31,.48-.63,.8-1.15,1.12-.6,.36-1.14,.56-1.98,.74-.13-.37-.24-.61-.47-.98,.88-.1,1.4-.25,1.93-.56,.39-.23,.66-.49,.86-.83h-1.48c-.4,0-.59,0-.9,.04v-1c.18,.03,.26,.03,.56,.04v-2.78l-.24,.18c-.12-.24-.18-.32-.35-.55-.12,0-.26-.02-.38-.02h-.11v1.56c.21-.08,.33-.13,.64-.26v.99c-.33,.14-.4,.17-.64,.27v2.82c0,.79-.25,.97-1.34,.97-.16,0-.28-.01-.57-.03-.03-.41-.08-.63-.22-1.01,.34,.04,.56,.06,.81,.06,.22,0,.27-.05,.27-.27v-2.16q-.8,.25-.99,.33l-.15-1.09c.3-.03,.54-.09,1.14-.26v-1.92h-.37c-.21,0-.41,0-.67,.04v-1.06c.25,.04,.43,.05,.68,.05h.36v-.81c0-.49-.02-.75-.06-1.03h1.16c-.04,.28-.05,.53-.05,1.02v.82h.1c.2,0,.34,0,.52-.03v.49c.53-.42,.94-.85,1.25-1.33,.26-.4,.43-.75,.5-1.07l1.11,.12q-.05,.1-.15,.33s-.05,.09-.09,.17h1.18c.35,0,.53,0,.73-.04l.53,.54c-.08,.1-.13,.18-.25,.37-.18,.28-.4,.59-.62,.86h.95c.42,0,.62-.01,.86-.03-.02,.26-.03,.51-.03,.97v2.79c.26,0,.38-.02,.54-.04v1.01c-.27-.04-.53-.05-.97-.05h-1.78Zm-1.2-.92c.05-.31,.05-.33,.05-.71l1.03,.03q-.04,.38-.07,.68h1.45v-.88c-.32,.01-.49,.02-.53,.02-.84,0-1.08-.15-1.08-.64v-1.33h-.44c-.05,1.34-.27,1.87-1,2.51-.22-.23-.36-.36-.59-.53v.85h1.18Zm-1.18-2.83v1.84c.36-.31,.48-.46,.59-.79,.11-.29,.14-.52,.16-1.05h-.75Zm1.64-.9c.17-.19,.41-.52,.6-.83h-1.51c-.21,.31-.37,.52-.63,.83h1.54Zm2,.9h-.77v.9c0,.22,.04,.24,.42,.24,.08,0,.16,0,.35,0v-1.13Z"/>
    <path class="cls-4" d="M70.48,83.42c.2,.02,.59,.04,.99,.04h.44c.54-.72,1.13-1.69,1.48-2.41,.17-.35,.19-.42,.25-.64l1.21,.35q-.06,.11-.21,.38c-.47,.87-.93,1.6-1.44,2.3,2.18-.06,2.6-.08,3.8-.2-.51-.59-.76-.85-1.38-1.4l.97-.55c1.18,1.12,1.81,1.82,2.82,3.16l-.99,.68c-.33-.5-.44-.66-.69-.99-1.72,.21-3.01,.29-6.49,.41-.23,0-.36,.02-.58,.05l-.18-1.18Zm.96,6.18c.04-.38,.06-.69,.06-1.14v-2.26c0-.37-.02-.65-.05-.93q.21,.03,1.04,.04h4.77q.83-.01,1.05-.04c-.04,.29-.05,.52-.05,.93v2.26c0,.47,.02,.79,.06,1.14h-1.14v-.52h-4.61v.52h-1.13Zm1.12-1.5h4.63v-1.81h-4.63v1.81Z"/>
  </g>
</svg>