<?xml version="1.0" encoding="UTF-8"?>
<svg id="_レイヤー_1" data-name="レイヤー 1" xmlns="http://www.w3.org/2000/svg" viewBox="0 0 100 100">
  <defs>
    <style>
      .cls-1 {
        fill: #fff;
      }

      .cls-2 {
        fill: #3e3a39;
      }

      .cls-3 {
        fill: #1a1a1a;
      }

      .cls-4 {
        fill: #3d3939;
      }
    </style>
  </defs>
  <g>
    <g>
      <rect class="cls-1" x="13.98" y="2.34" width="72.03" height="72.03" rx="3.05" ry="3.05"/>
      <path class="cls-2" d="M82.97,4.84c.3,0,.55,.24,.55,.55V71.33c0,.3-.24,.55-.55,.55H17.03c-.3,0-.55-.24-.55-.55V5.38c0-.3,.24-.55,.55-.55H82.97m0-5H17.03c-3.06,0-5.55,2.48-5.55,5.55V71.33c0,3.06,2.48,5.55,5.55,5.55H82.97c3.06,0,5.55-2.48,5.55-5.55V5.38c0-3.06-2.48-5.55-5.55-5.55h0Z"/>
    </g>
    <g>
      <path class="cls-4" d="M81.95,46.83c-.43,.11-.88,.19-1.3,.35-8.04,3.23-16.07,6.48-24.12,9.68-.61,.24-1.37,.31-2.02,.2-11.81-1.99-23.62-4.03-35.42-6.06-.28-.05-.56-.16-1.04-.31,4.23-5.15,7.58-10.74,10.51-16.59,2.91-5.82,5.33-11.84,7.27-18.19,9.04,3.17,18.27,3.61,27.66,2.27,.91,2.23,1.75,4.45,2.69,6.61,2.69,6.17,5.67,12.19,10.26,17.2,1.6,1.74,3.66,3.07,5.51,4.59v.25Zm-5.22-.74c-1.19-1.33-2.35-2.52-3.38-3.81-4.73-5.92-7.99-12.66-10.73-19.67-.53-1.35-1.15-1.71-2.53-1.54-4.61,.58-9.23,.52-13.82-.21-2.69-.43-5.37-.92-8.06-1.39,.24,7.85,11.07,29.68,17.44,35.11,7-2.82,14.01-5.65,21.09-8.5ZM36.65,22.24c-2.09,4.59-4,9.26-6.3,13.73-2.3,4.46-4.98,8.72-7.53,13.13,2.89,.49,5.93,1.01,9.01,1.53,1.18-3.99,2.31-7.84,3.5-11.89,1.36,3.43,2.27,6.88,6.14,8.31v5.25c3.65,.64,7.18,1.26,11.09,1.95-7.64-9.85-13.03-20.36-15.91-32.01Z"/>
      <g>
        <path class="cls-1" d="M68.38,51.74c-.21,.11-3.06,1.53-5.1,.11-.29-.2-.64-.51-.95-1-.04-2.02-.09-4.03-.13-6.05h6.84c.26,1.04,.52,2.76,.08,4.77-.19,.86-.46,1.59-.74,2.18Z"/>
        <path class="cls-3" d="M71.18,59.45h-10.92c0-.74,.03-1.48,.02-2.22-.01-1.03-.03-2.06,.78-2.88-.77-.72-.94-1.6-.9-2.56,.02-.44-.04-.89,.01-1.33,.12-.97-.16-1.73-1-2.28-.39-.26-.53-.69-.53-1.16,0-.79,0-1.58,0-2.37,0-.91,.56-1.48,1.47-1.49,.66,0,1.33,0,1.99,0,.28,0,.34-.11,.24-.39h-.94c-.08-.56-.01-.69,.46-.87,.06-.02,.13-.07,.17-.12,.37-.66,1-.92,1.69-1.08,.37-.08,.74-.14,1.11-.21,.59,0,1.18,0,1.77,0,.12,.03,.23,.06,.35,.08,.96,.14,1.91,.29,2.47,1.24,.03,.05,.09,.07,.15,.09,.47,.18,.54,.31,.46,.88h-.95c-.09,.29,0,.38,.26,.38,.68,0,1.35,0,2.03,0,.84,.01,1.41,.58,1.43,1.42,.01,.84,0,1.68,0,2.52,0,.42-.16,.77-.47,1.05-.18,.17-.36,.34-.56,.49-.38,.27-.5,.64-.5,1.09,0,.7-.02,1.41,0,2.11,.04,.95-.16,1.81-.9,2.52,.78,.8,.79,1.8,.78,2.81,0,.76,.01,1.53,.02,2.29Zm-8.76-13.93c0,.18,0,.33,0,.47,0,1.11,.04,2.22-.01,3.33-.05,1.09,.53,1.81,1.25,2.47,.07,.06,.2,.08,.31,.08,1.17,0,2.34,0,3.5,0,.11,0,.24,0,.31-.07,.7-.66,1.31-1.35,1.26-2.43-.05-1.13-.01-2.27-.01-3.4,0-.14,0-.29,0-.45h-6.61Zm7.14-.02c0,.2,0,.34,0,.47,0,1.12-.01,2.25,0,3.37,.01,.88-.23,1.65-.87,2.28-.06,.05-.09,.13-.18,.26,.36,0,.65,0,.94,0,.21,0,.29,.07,.28,.28-.01,.2,0,.41,0,.62-.25,.02-.45,.04-.63,.06-.1,.48-.09,.48,.27,.71,.14,.09,.27,.17,.39,.27,.19,.16,.33,.11,.47-.06,.34-.41,.52-.89,.53-1.43,0-.68,.05-1.36,0-2.04-.1-1.03,.2-1.83,1.07-2.42,.21-.14,.4-.45,.42-.69,.05-.91,.03-1.82,0-2.74-.01-.41-.27-.7-.66-.72-.64-.05-1.28-.01-2.03-.01,.56,.32,1.02,.59,1.49,.87,.16,.09,.33,.18,.45,.31,.25,.26,.16,.52-.18,.59-.13,.03-.27,.02-.4,.03-.43,0-.86,0-1.33,0Zm-6.65,6.38c-.03-.09-.04-.12-.05-.14-.04-.05-.08-.1-.12-.14-.61-.61-.86-1.36-.85-2.21,.01-1.12,0-2.25,0-3.37,0-.16,0-.31,0-.48-.11-.01-.18-.03-.25-.03-.46,0-.91,.02-1.36-.01-.15,0-.39-.13-.4-.23-.02-.14,.08-.36,.2-.46,.21-.18,.48-.3,.72-.44,.34-.2,.69-.4,1.03-.6-.55-.09-1.06-.09-1.57-.09-.75,0-1.07,.32-1.07,1.09,0,.49,.04,.99-.01,1.48-.1,.88,.16,1.56,.92,2.05,.47,.31,.62,.8,.62,1.35-.01,.88-.04,1.76,.01,2.63,.02,.41,.16,.84,.35,1.22,.24,.49,.35,.49,.8,.18,.07-.05,.14-.11,.22-.14,.32-.13,.41-.36,.29-.71-.19-.02-.39-.04-.64-.07,0-.2,.01-.38,0-.56-.02-.27,.1-.35,.34-.33,.27,.02,.53,0,.85,0Z"/>
      </g>
    </g>
  </g>
  <g>
    <path class="cls-4" d="M18.61,81.78c-.09-.49-.13-.66-.24-.94l1.32-.21c0,.26,.05,.55,.12,.94l.16,.87,2.11-.33c.49-.08,.7-.13,.96-.22l.21,1.2q-.27,.02-.96,.13l-2.11,.33,.3,1.64,2.35-.37c.42-.07,.77-.15,1.04-.23l.22,1.2c-.21,0-.25,0-.46,.05-.06,0-.11,0-.16,.02-.07,.01-.2,.03-.4,.06l-2.38,.38,.36,1.94c.12,.66,.13,.69,.24,1.03l-1.34,.24c0-.3-.05-.58-.13-1.05l-.36-1.97-2.47,.39c-.48,.08-.66,.12-1.02,.22l-.2-1.23c.34,0,.63-.03,1.06-.1l2.43-.39-.3-1.64-1.86,.29c-.46,.08-.83,.15-1.1,.23l-.2-1.23c.36,0,.68-.05,1.1-.11l1.86-.29-.15-.85Z"/>
    <path class="cls-4" d="M27.83,83.2c-.08-.43-.1-.53-.19-.75l1.19-.18c0,.2,.03,.42,.1,.77l.15,.77,2.99-.5c.29-.04,.46-.09,.66-.17l.7,.63c-.09,.13-.15,.24-.25,.48-.44,1.11-1.01,1.86-1.97,2.6-.36-.38-.51-.49-.93-.71,.74-.46,1.29-1.04,1.7-1.79q-.12,.03-.37,.07l-2.35,.39,.71,3.7q.1,.55,.19,.81l-1.25,.22c0-.26-.02-.48-.08-.81l-.68-3.73-.86,.14c-.35,.06-.59,.12-.88,.22l-.21-1.14c.32,0,.57-.03,.95-.09l.83-.14-.15-.79Z"/>
    <path class="cls-4" d="M36.07,87.62c.86-.05,2.05-.34,2.96-.74,1.25-.54,2.18-1.31,2.97-2.45,.44-.64,.72-1.19,1.02-2,.39,.47,.55,.62,1.06,.98-.85,1.83-1.8,3.01-3.17,3.92-1.02,.68-2.26,1.17-3.81,1.5-.4,.08-.43,.09-.66,.17l-.37-1.38Zm.85-6.21c1.19,.74,1.81,1.2,2.58,1.93l-.86,1.09c-.8-.85-1.62-1.51-2.55-2.03l.83-.99Z"/>
    <path class="cls-4" d="M51.83,81.56c.3,0,.42-.01,.59-.02,0-.65,.51-1.16,1.15-1.16s1.16,.52,1.16,1.15-.52,1.16-1.16,1.16c-.06,0-.12,0-.19-.02-.81,3.27-2.58,5.31-5.74,6.63-.26-.52-.43-.75-.88-1.19,2.77-.86,4.58-2.72,5.22-5.38h-4.76c-.74,0-.93,0-1.26,.06v-1.3c.36,.06,.6,.07,1.28,.07h4.59Zm1.09-.03c0,.36,.29,.66,.65,.66s.66-.3,.66-.66-.29-.65-.66-.65-.65,.29-.65,.65Z"/>
    <path class="cls-4" d="M60.43,87.07h2.42c.7,0,.91,0,1.3-.07v1.26c-.36-.04-.62-.05-1.28-.05h-6c-.66,0-.92,0-1.28,.05v-1.26c.39,.06,.6,.07,1.3,.07h2.26v-4.11h-1.53c-.66,0-.92,0-1.28,.05v-1.25c.38,.06,.62,.07,1.3,.07h4.45c.68,0,.92,0,1.3-.07v1.25c-.36-.04-.61-.05-1.28-.05h-1.68v4.11Z"/>
    <path class="cls-4" d="M68.27,80.95c-.04,.28-.04,.37-.04,.9v2.76c0,.5,0,.63,.04,.88h-1.37c.03-.23,.05-.54,.05-.9v-2.75c0-.51-.01-.64-.04-.9h1.36Zm4.54,.02c-.04,.25-.05,.36-.05,.93v1.35c-.01,1.56-.08,2.4-.26,3.03-.29,1-.93,1.75-1.97,2.33-.53,.3-1.03,.5-1.95,.77-.18-.49-.28-.66-.7-1.19,.98-.19,1.56-.4,2.16-.8,.94-.62,1.27-1.23,1.38-2.55,.04-.43,.05-.87,.05-1.67v-1.25c0-.51,0-.72-.05-.95h1.39Z"/>
    <path class="cls-4" d="M80.17,83.2c-.03,.19-.03,.2-.04,.81-.04,1.71-.31,2.67-.99,3.54-.6,.77-1.33,1.28-2.58,1.8-.26-.54-.39-.72-.79-1.14,.81-.24,1.26-.46,1.75-.85,1.02-.81,1.34-1.67,1.34-3.56,0-.3,0-.39-.05-.6h1.36Zm4.06-1.26c-.14,.17-.14,.18-.4,.7-.35,.74-.93,1.49-1.54,2.01-.4,.35-.73,.57-1.2,.83-.3-.42-.45-.57-.9-.91,.67-.3,1.05-.53,1.46-.92,.41-.38,.72-.79,.95-1.27h-5.25c-.7,0-.95,0-1.36,.06v-1.25c.38,.06,.69,.08,1.38,.08h5.22c.6,0,.69,0,.97-.09l.67,.76Z"/>
  </g>
</svg>