<?xml version="1.0" encoding="UTF-8"?>
<svg id="_レイヤー_1" data-name="レイヤー 1" xmlns="http://www.w3.org/2000/svg" viewBox="0 0 100 100">
  <defs>
    <style>
      .cls-1 {
        fill: #fff;
      }

      .cls-2 {
        fill: #3e3a39;
      }

      .cls-3 {
        fill: #1a1a1a;
      }
    </style>
  </defs>
  <g>
    <path class="cls-2" d="M29.14,86.96c0-.17,0-.33-.04-.46h1.36c-.03,.13-.04,.26-.04,.45v.38h1.51c.42,0,.59,0,.79-.04l.78,.94s-.07,.07-.46,.44c-1.04,.99-2.26,1.83-3.43,2.37,.47,.17,.99,.23,1.87,.23s1.71-.05,2.67-.16c-.23,.56-.32,.88-.43,1.49-.58,0-1.38,.02-1.75,.02-1.53,0-2.38-.12-3-.41-.64-.31-1.01-.69-1.3-1.4-.2,.61-.51,1.12-1.22,1.96l-.9-1.33c.42-.32,.76-.69,1.04-1.16,.23-.39,.33-.67,.35-.97h1.4s0,.03,0,.04c0,.17,.09,.46,.24,.76,1.17-.53,1.88-.95,2.54-1.54h-3.55c-.42,0-.79,.02-1.18,.05v-1.34c.41,.04,.77,.05,1.21,.05h1.53v-.37Zm-1.57-2.23c0-.16,0-.26-.04-.42h1.4c-.03,.14-.04,.27-.04,.42v.31h1.75v-.31c0-.14,0-.29-.04-.42h1.4c-.03,.15-.04,.27-.04,.42v.31h.86c.49,0,.79-.02,1.09-.05v1.33c-.31-.04-.56-.04-1.09-.04h-.86v.31c0,.14,0,.26,.03,.4h-1.27c0-.11,.02-.19,.02-.36v-.34h-1.96v.3c0,.21,0,.29,.03,.41h-1.28c.02-.13,.03-.25,.03-.38v-.32h-.77c-.53,0-.79,0-1.09,.04v-1.33c.32,.04,.62,.05,1.09,.05h.77v-.31Z"/>
    <path class="cls-2" d="M37.74,87.16c-.37,.74-.74,1.31-1.23,1.86-.34-.58-.48-.74-.9-1.17,.83-.81,1.5-2.23,1.58-3.34l1.4,.33q-.11,.31-.18,.55c-.04,.18-.09,.32-.15,.51h1.08v-.42c0-.55-.02-.9-.05-1.21h1.54c-.05,.32-.05,.62-.05,1.21v.42h1.57c.53,0,.97-.02,1.4-.05v1.36c-.45-.04-.87-.05-1.36-.05h-1.61v1.35h1.32c.5,0,.91-.02,1.26-.05v1.36c-.41-.04-.77-.05-1.25-.05h-1.33v1.47h1.85c.57,0,1.01-.02,1.43-.06v1.4c-.51-.04-.89-.06-1.39-.06h-5.25c-.51,0-.96,.02-1.49,.06v-1.4c.46,.04,.91,.06,1.43,.06h1.97v-1.47h-1.12c-.48,0-.85,.02-1.23,.05v-1.35c.35,.04,.66,.04,1.21,.04h1.14v-1.35h-1.59Z"/>
    <path class="cls-2" d="M50.83,90.19h1.75c.8,0,1.08,0,1.49-.07v1.58c-.33-.04-.78-.05-1.46-.05h-5.08c-.81,0-1.05,0-1.45,.04v-1.58c.43,.05,.76,.07,1.48,.07h1.64v-3.41h-.99c-.85,0-1.06,0-1.46,.04v-1.56c.48,.06,.76,.07,1.49,.07h3.66c.76,0,1.07-.02,1.49-.07v1.56c-.41-.04-.61-.04-1.46-.04h-1.09v3.41Z"/>
    <path class="cls-2" d="M58.96,84.7c-.04,.41-.04,.58-.04,1.21v1.79c0,.64,0,.93,.04,1.29h-1.75c.04-.32,.05-.64,.05-1.31v-1.78c0-.55,0-.79-.05-1.19h1.75Zm4.19,0c-.04,.5-.04,.64-.04,1.22v1.05c0,1.23-.07,2.1-.21,2.62-.27,.98-.88,1.72-1.87,2.29-.51,.3-.99,.49-1.87,.74-.21-.6-.43-.98-.92-1.54,.86-.16,1.32-.31,1.78-.55,.79-.42,1.2-.96,1.34-1.75,.05-.33,.1-1.12,.1-1.91v-.94c0-.66,0-.85-.05-1.23h1.75Z"/>
    <path class="cls-2" d="M74.44,85.76c-.13,.14-.16,.19-.28,.47-.58,1.35-1.35,2.26-2.51,2.98-.32-.41-.61-.69-1.01-.98-.05,.94-.21,1.59-.52,2.19-.31,.58-.78,1.09-1.4,1.52-.37,.25-.67,.41-1.27,.69-.36-.71-.5-.93-1.03-1.46,.99-.31,1.64-.71,2.06-1.25,.43-.56,.58-1.2,.58-2.39,0-.29,0-.42-.05-.62h1.69c-.03,.18-.04,.26-.05,.77,0,0,0,.23,0,.32q.05-.04,.21-.11c.66-.33,1.19-.87,1.51-1.53h-4.29c-.68,0-1,.02-1.43,.06v-1.58c.41,.06,.72,.08,1.46,.08h4.72c.5,0,.57,0,.77-.1l.85,.94Z"/>
  </g>
  <g>
    <path class="cls-1" d="M17.11,2.5H82.89c1.68,0,3.05,1.36,3.05,3.05V71.33c0,1.68-1.36,3.05-3.05,3.05H17.11c-1.68,0-3.04-1.36-3.04-3.04V5.54c0-1.68,1.36-3.04,3.04-3.04Z"/>
    <path class="cls-2" d="M82.89,5c.3,0,.55,.24,.55,.55V71.33c0,.3-.24,.55-.55,.55H17.11c-.3,0-.55-.24-.55-.55V5.55c0-.3,.24-.55,.55-.55H82.89M82.89,0H17.11C14.05,0,11.56,2.48,11.56,5.55V71.33c0,3.06,2.48,5.55,5.55,5.55H82.89c3.06,0,5.55-2.48,5.55-5.55V5.55C88.44,2.48,85.95,0,82.89,0h0Z"/>
  </g>
  <g>
    <path class="cls-3" d="M63.46,20.65l-9.35-3.34c.22,.61,.34,1.27,.34,1.95,0,.88-.2,1.72-.55,2.47l3.15,1.31-4.29,2.12h-7.88s-4.18-2.12-4.18-2.12l2.78-1.16c-.4-.79-.63-1.68-.63-2.62,0-.62,.1-1.21,.28-1.77l-8.85,3.16c-.43,.15-.82,.43-1.1,.83-.74,1.04-.5,2.47,.54,3.21l8.47,6.03s.58,10.67,.59,10.8l.78,24.81c.04,1.15,.97,2.1,2.14,2.14,1.22,.04,2.24-.92,2.28-2.14l.68-21.57,.68,21.57c.04,1.15,.97,2.1,2.14,2.14,1.22,.04,2.24-.92,2.28-2.14l.78-24.81c0-.06,.57-10.48,.57-10.48l8.93-6.36c.37-.26,.67-.64,.83-1.1,.43-1.2-.2-2.51-1.39-2.94Z"/>
    <circle class="cls-3" cx="48.65" cy="19.26" r="4.46"/>
    <g>
      <path class="cls-3" d="M34.59,36.16s-.09-.02-.13,.01l-1.32,1.19-.8-1.17s-.05-.05-.08-.05c-.03,0-.07,.01-.09,.04l-1.06,1.19-1.06-1.19s-.06-.04-.09-.04c-.03,0-.06,.02-.08,.05l-.8,1.17-1.32-1.19s-.09-.04-.13-.01c-.04,.02-.06,.07-.05,.12l.75,3.52c.01,.05,.06,.09,.11,.09h5.35c.05,0,.1-.04,.11-.09l.75-3.52s-.01-.09-.05-.12Z"/>
      <path class="cls-3" d="M75.38,23.12s-.1-.02-.14,.02l-1.43,1.3-.87-1.28s-.05-.05-.09-.05c-.04,0-.07,.01-.1,.04l-1.15,1.29-1.15-1.29s-.06-.04-.1-.04c-.04,0-.07,.02-.09,.05l-.87,1.28-1.43-1.3s-.09-.04-.14-.02c-.04,.03-.07,.08-.06,.13l.82,3.83c.01,.05,.06,.09,.12,.09h5.82c.06,0,.1-.04,.12-.09l.82-3.83c.01-.05-.01-.1-.06-.13Z"/>
      <path class="cls-3" d="M29.35,11.17l.57-2.67s0-.07-.04-.09-.07-.01-.1,.01l-1,.91-.61-.89s-.04-.03-.06-.04c-.03,0-.05,0-.07,.03l-.8,.9-.8-.9s-.04-.03-.07-.03c-.03,0-.05,.01-.06,.04l-.61,.89-1-.91s-.07-.03-.1-.01c-.03,.02-.05,.05-.04,.09l.57,2.67s.04,.07,.08,.07h4.06s.07-.03,.08-.07Z"/>
      <path class="cls-3" d="M68.89,46.09s-.08-.02-.11,.01l-1.17,1.06-.71-1.04s-.04-.04-.07-.04c-.03,0-.06,.01-.08,.03l-.94,1.05-.94-1.05s-.05-.03-.08-.03c-.03,0-.06,.02-.07,.04l-.71,1.04-1.17-1.06s-.08-.03-.11-.01c-.04,.02-.06,.06-.05,.1l.67,3.12s.05,.08,.09,.08h4.74s.09-.03,.09-.08l.67-3.12s0-.08-.05-.1Z"/>
    </g>
  </g>
</svg>