<?xml version="1.0" encoding="UTF-8"?>
<svg id="_レイヤー_1" data-name="レイヤー 1" xmlns="http://www.w3.org/2000/svg" viewBox="0 0 409.66 173.16">
  <defs>
    <style>
      .cls-1 {
        fill: #f5e343;
      }

      .cls-2 {
        fill: #e73d75;
      }

      .cls-3 {
        fill: #47b1e6;
      }
    </style>
  </defs>
  <path class="cls-3" d="M379.68,104.25c-4.1-.1-8.32,.47-11.92-2.23-.94,.06-1.87,.12-2.81,.18-1.33-.02-2.67,.05-4.01,.07,1.34-.02,2.68-.09,4.01-.07-2.39-3.68,.16-7.36,.03-11.05-.06-1.79,.27-3.6,.43-5.4-.3-.26-.6-.53-.89-.79-3.9,.78-3.58-2-3.73-4.38-18.45-2.17-36.91-4.27-55.35-6.53-22.56-2.77-45.09-5.75-67.65-8.5-26.19-3.18-52.4-6.14-78.59-9.32-32.44-3.94-64.86-8.02-97.29-12.04-.94,1.93-1.1,4.82-4.67,3.1-1.65-.79-1.22,.98-1.33,1.71-.72,4.69-1.36,9.4-2.02,14.1-1.55,1.25-3.16,.39-4.76,.14-3.84,.54-7.64,.66-11.3-.95-.2,.92-.57,2.68-1.06,4.93-.98,4.45-1.37,6.03-.47,7.14,.62,.78,1.57,1.03,2.53,1.11,3.45,.31,6.87,.98,10.3,1.5,2.42,.09,4.87,.03,7.12,1.16,14.76,.85,29.33,3.27,43.98,5.05,33.59,4.08,67.16,8.22,100.75,12.33,4.07,.37,8.2,.32,12.12,1.71,4.96,.47,9.92,.82,14.86,1.42,25.72,3.13,51.42,6.3,77.13,9.49,17.63,2.19,35.25,4.42,52.88,6.64,2.39,.36,4.92-.16,7.14,1.18,3.46,.27,6.93,.44,10.38,.84,1.34,.15,2.18,0,2.83-.42,1.04-.68,1.15-2.15,1.25-4.78,.08-2.14,.14-4.6,.15-7.35Z"/>
  <path class="cls-1" d="M200.94,95.52c4.07,.37,8.2,.32,12.12,1.71,4.72,12.91,9.44,25.82,14.16,38.74,.91,2.5,2.39,5.36-1.11,6.82-3.67,1.54-4.92-1.28-5.95-4.12-3.93-10.73-7.9-21.45-11.87-32.17-.38-1.03-.37-2.32-1.99-3.15-4.37,11.71-8.69,23.27-13,34.84-.23,.62-.36,1.28-.61,1.89-.89,2.18-2.24,3.89-4.89,3.03-2.82-.92-3.19-3.02-2.24-5.6,3.54-9.64,7.04-19.3,10.57-28.95,1.59-4.36,3.21-8.7,4.81-13.05Z"/>
  <path class="cls-2" d="M53.86,63.11c-1.55,1.25-3.16,.39-4.76,.14,.97-6.79,1.95-13.58,2.92-20.38,1.94-3.2,3.88-6.41,5.83-9.61,.77-1.27,1.57-2.72,3.4-2.04,1.71,.64,1.7,2.21,1.56,3.73-.3,3.08-.62,6.16-.93,9.24-.94,1.93-1.1,4.82-4.67,3.1-1.65-.79-1.22,.98-1.33,1.71-.72,4.69-1.36,9.4-2.02,14.1Z"/>
  <path class="cls-2" d="M367.75,102.02c-.94,.06-1.87,.12-2.81,.18-2.39-3.68,.16-7.36,.03-11.05-.06-1.79,.27-3.6,.43-5.4,.04-.43,.07-.85,.11-1.28-.33,.16-.67,.33-1,.49-3.9,.78-3.58-2-3.73-4.38,.42-2.93,.87-5.86,1.26-8.8,.21-1.56,.57-3.05,2.39-3.29,1.94-.25,2.49,1.28,2.95,2.73,1.13,3.61,2.22,7.22,3.33,10.84-.95,6.66-.93,13.46-2.94,19.96Z"/>
  <path class="cls-3" d="M367.75,102.02c2.01-6.5,1.99-13.3,2.94-19.96,1.93,.09,3.47,.56,4.02,2.79,1.59,6.48,3.3,12.94,4.96,19.4-4.1-.1-8.32,.47-11.92-2.23Z"/>
  <path class="cls-3" d="M52.03,42.87c-.97,6.79-1.95,13.58-2.92,20.38-3.84,.54-7.64,.66-11.3-.95,3.15-5.75,6.38-11.46,9.42-17.26,1.11-2.12,2.57-2.83,4.8-2.17Z"/>
  <path class="cls-1" d="M49.09,76.98c2.42,.09,4.87,.03,7.12,1.16-.31,2.6-.61,5.2-.93,7.79-.32,2.6-.98,5.22-4.32,4.69-3.3-.52-3.11-3.3-2.83-5.84,.29-2.6,.63-5.2,.95-7.8Z"/>
  <path class="cls-1" d="M357.94,114.78c2.39,.36,4.92-.16,7.14,1.18-.4,3.1-.76,6.2-1.2,9.29-.31,2.16-1.69,3.12-3.82,2.97-2.23-.16-3.29-1.53-3.14-3.63,.23-3.28,.67-6.54,1.02-9.81Z"/>
  <path class="cls-3" d="M364.51,84.96c.33-.16,.67-.33,1-.49-.04,.43-.08,.85-.11,1.28-.29-.26-.59-.53-.89-.79Z"/>
</svg>