<?xml version="1.0" encoding="UTF-8"?>
<svg id="_レイヤー_1" data-name="レイヤー 1" xmlns="http://www.w3.org/2000/svg" viewBox="0 0 180.84 199.04">
  <defs>
    <style>
      .cls-1 {
        stroke: #f5e343;
        stroke-width: 7.64px;
      }

      .cls-1, .cls-2, .cls-3, .cls-4, .cls-5, .cls-6, .cls-7 {
        fill: none;
      }

      .cls-1, .cls-3, .cls-4, .cls-8, .cls-6, .cls-7 {
        stroke-miterlimit: 10;
      }

      .cls-2 {
        stroke: #5fb630;
      }

      .cls-2, .cls-3, .cls-4, .cls-5, .cls-6, .cls-7 {
        stroke-width: 6.11px;
      }

      .cls-2, .cls-5 {
        stroke-linejoin: round;
      }

      .cls-2, .cls-6, .cls-7 {
        stroke-linecap: round;
      }

      .cls-3, .cls-8, .cls-6 {
        stroke: #47b1e6;
      }

      .cls-4 {
        stroke: #e73d75;
      }

      .cls-5 {
        stroke: #ea9416;
      }

      .cls-8 {
        fill: #47b1e6;
        stroke-width: 13.75px;
      }

      .cls-7 {
        stroke: #d83e6f;
      }
    </style>
  </defs>
  <line class="cls-8" x1="91.19" y1="18.83" x2="91.19" y2="189.1"/>
  <path class="cls-1" d="M91.19,171.75c-42.23,0-76.46-34.23-76.46-76.46S48.96,18.83,91.19,18.83"/>
  <path class="cls-4" d="M91.19,171.75c-33.72,0-61.05-34.23-61.05-76.46S57.47,18.83,91.19,18.83"/>
  <path class="cls-5" d="M91.19,171.75c-15.98,0-28.93-34.23-28.93-76.46s12.95-76.46,28.93-76.46"/>
  <path class="cls-1" d="M91.19,18.83c42.23,0,76.46,34.23,76.46,76.46s-34.23,76.46-76.46,76.46"/>
  <path class="cls-4" d="M91.19,18.83c33.72,0,61.05,34.23,61.05,76.46s-27.33,76.46-61.05,76.46"/>
  <path class="cls-5" d="M91.19,18.83c15.98,0,28.93,34.23,28.93,76.46s-12.95,76.46-28.93,76.46"/>
  <line class="cls-7" x1="171.13" y1="95.29" x2="11.25" y2="95.29"/>
  <line class="cls-6" x1="160.42" y1="57.06" x2="21.96" y2="57.06"/>
  <line class="cls-2" x1="160.42" y1="133.52" x2="21.96" y2="133.52"/>
  <line class="cls-3" x1="129.79" y1="189.1" x2="52.59" y2="189.1"/>
</svg>